<svg width="1440.000000" height="544.000000" viewBox="0 0 1440 544" fill="none" xmlns="http://www.w3.org/2000/svg" xmlns:xlink="http://www.w3.org/1999/xlink">
	<desc>
			Created with Pixso.
	</desc>
	<defs>
		<filter id="filter_1_4579_dd" x="39.500000" y="111.500000" width="266.599609" height="321.000000" filterUnits="userSpaceOnUse" color-interpolation-filters="sRGB">
			<feFlood flood-opacity="0" result="BackgroundImageFix"/>
			<feGaussianBlur in="BackgroundImage" stdDeviation="10"/>
			<feComposite in2="SourceAlpha" operator="in" result="effect_backgroundBlur_1"/>
			<feBlend mode="normal" in="SourceGraphic" in2="effect_backgroundBlur_1" result="shape"/>
		</filter>
		<clipPath id="clip1_4580">
			<rect id="иконка 5" rx="0.500000" width="33.000000" height="33.000000" transform="translate(103.500000 143.500000) rotate(90.000000)" fill="white" fill-opacity="0"/>
		</clipPath>
		<clipPath id="clip1_4579">
			<rect id="Frame 193" rx="8.000000" width="265.600006" height="320.000000" transform="translate(40.000000 112.000000)" fill="white" fill-opacity="0"/>
		</clipPath>
		<filter id="filter_1_4582_dd" x="313.099609" y="111.500000" width="266.599609" height="321.000000" filterUnits="userSpaceOnUse" color-interpolation-filters="sRGB">
			<feFlood flood-opacity="0" result="BackgroundImageFix"/>
			<feGaussianBlur in="BackgroundImage" stdDeviation="10"/>
			<feComposite in2="SourceAlpha" operator="in" result="effect_backgroundBlur_1"/>
			<feBlend mode="normal" in="SourceGraphic" in2="effect_backgroundBlur_1" result="shape"/>
		</filter>
		<clipPath id="clip1_4583">
			<rect id="иконка 6" rx="0.500000" width="33.000000" height="33.000000" transform="translate(377.099609 143.500000) rotate(90.000000)" fill="white" fill-opacity="0"/>
		</clipPath>
		<clipPath id="clip1_4582">
			<rect id="Frame 194" rx="8.000000" width="265.600006" height="320.000000" transform="translate(313.599609 112.000000)" fill="white" fill-opacity="0"/>
		</clipPath>
		<filter id="filter_1_4585_dd" x="586.700195" y="111.500000" width="266.600586" height="321.000000" filterUnits="userSpaceOnUse" color-interpolation-filters="sRGB">
			<feFlood flood-opacity="0" result="BackgroundImageFix"/>
			<feGaussianBlur in="BackgroundImage" stdDeviation="10"/>
			<feComposite in2="SourceAlpha" operator="in" result="effect_backgroundBlur_1"/>
			<feBlend mode="normal" in="SourceGraphic" in2="effect_backgroundBlur_1" result="shape"/>
		</filter>
		<clipPath id="clip1_4586">
			<rect id="иконка 7" rx="0.500000" width="33.000000" height="33.000000" transform="translate(650.700195 143.500000) rotate(90.000000)" fill="white" fill-opacity="0"/>
		</clipPath>
		<clipPath id="clip1_4585">
			<rect id="Frame 195" rx="8.000000" width="265.600006" height="320.000000" transform="translate(587.200195 112.000000)" fill="white" fill-opacity="0"/>
		</clipPath>
		<filter id="filter_1_4588_dd" x="860.300781" y="111.500000" width="266.599609" height="321.000000" filterUnits="userSpaceOnUse" color-interpolation-filters="sRGB">
			<feFlood flood-opacity="0" result="BackgroundImageFix"/>
			<feGaussianBlur in="BackgroundImage" stdDeviation="10"/>
			<feComposite in2="SourceAlpha" operator="in" result="effect_backgroundBlur_1"/>
			<feBlend mode="normal" in="SourceGraphic" in2="effect_backgroundBlur_1" result="shape"/>
		</filter>
		<clipPath id="clip1_4589">
			<rect id="иконка 9" rx="0.500000" width="33.000000" height="33.000000" transform="translate(924.300781 143.500000) rotate(90.000000)" fill="white" fill-opacity="0"/>
		</clipPath>
		<clipPath id="clip1_4588">
			<rect id="Frame 197" rx="8.000000" width="265.600037" height="320.000000" transform="translate(860.800781 112.000000)" fill="white" fill-opacity="0"/>
		</clipPath>
		<filter id="filter_1_4591_dd" x="1133.900391" y="111.500000" width="266.599609" height="321.000000" filterUnits="userSpaceOnUse" color-interpolation-filters="sRGB">
			<feFlood flood-opacity="0" result="BackgroundImageFix"/>
			<feGaussianBlur in="BackgroundImage" stdDeviation="10"/>
			<feComposite in2="SourceAlpha" operator="in" result="effect_backgroundBlur_1"/>
			<feBlend mode="normal" in="SourceGraphic" in2="effect_backgroundBlur_1" result="shape"/>
		</filter>
		<clipPath id="clip1_4592">
			<rect id="иконка 8" rx="0.500000" width="33.000000" height="33.000000" transform="translate(1197.900391 143.500000) rotate(90.000000)" fill="white" fill-opacity="0"/>
		</clipPath>
		<clipPath id="clip1_4591">
			<rect id="Frame 196" rx="8.000000" width="265.600037" height="320.000000" transform="translate(1134.400391 112.000000)" fill="white" fill-opacity="0"/>
		</clipPath>
		<filter id="filter_1_4594_dd" x="-904.496094" y="-51.274414" width="1914.087891" height="1701.079102" filterUnits="userSpaceOnUse" color-interpolation-filters="sRGB">
			<feFlood flood-opacity="0" result="BackgroundImageFix"/>
			<feBlend mode="normal" in="SourceGraphic" in2="BackgroundImageFix" result="shape"/>
			<feGaussianBlur stdDeviation="166.566" result="effect_layerBlur_1"/>
		</filter>
		<clipPath id="clip1_4577">
			<rect id="2" rx="0.000000" width="1439.000000" height="543.000000" transform="translate(0.500000 0.500000)" fill="white" fill-opacity="0"/>
		</clipPath>
	</defs>
	<g clip-path="url(#clip1_4577)">
		<g opacity="0.000000">
			<g filter="url(#filter_1_4579_dd)">
				<rect id="Frame 193" rx="8.000000" width="265.600006" height="320.000000" transform="translate(40.000000 112.000000)" fill="#1B3C84" fill-opacity="0.200000"/>
				<g clip-path="url(#clip1_4579)">
					<g clip-path="url(#clip1_4580)">
						<rect id="Rectangle 240" x="72.000000" y="155.000000" rx="2.000000" width="10.000000" height="10.000000" transform="rotate(1.52588e-05 72.000000 155.000000)" fill="#316CED" fill-opacity="1.000000"/>
						<rect id="Rectangle 244" x="83.000000" y="166.000000" rx="2.000000" width="10.000000" height="10.000000" transform="rotate(1.52588e-05 83.000000 166.000000)" fill="#316CED" fill-opacity="1.000000"/>
						<rect id="Rectangle 246" x="83.000000" y="144.000000" rx="2.000000" width="10.000000" height="10.000000" transform="rotate(1.52588e-05 83.000000 144.000000)" fill="#316CED" fill-opacity="1.000000"/>
						<rect id="Rectangle 245" x="94.000000" y="155.000000" rx="2.000000" width="10.000000" height="10.000000" transform="rotate(1.52588e-05 94.000000 155.000000)" fill="#316CED" fill-opacity="1.000000"/>
						<rect id="Rectangle 247" x="83.000000" y="155.000000" rx="2.000000" width="10.000000" height="10.000000" transform="rotate(1.52588e-05 83.000000 155.000000)" fill="#316CED" fill-opacity="1.000000"/>
					</g>
					<path id="Профессиональное управление вашими активами" d="M82.08 351.66L83.91 351.66L83.91 338.61L73.72 338.61L73.72 351.66L75.56 351.66L75.56 340.19L82.08 340.19L82.08 351.66ZM114.76 341.99L114.76 338.61L113.12 338.61L113.12 341.99C110.31 341.99 108.13 343.56 108.13 346.85C108.13 350.25 110.31 351.75 113.12 351.75L113.12 354.81L114.76 354.81L114.76 351.75C117.55 351.75 119.74 350.25 119.74 346.85C119.74 343.56 117.58 341.99 114.76 341.99ZM184.42 349.1C184.42 350.88 185.94 351.89 187.75 351.89C189.48 351.89 190.47 351.33 191.07 350.32C191.08 350.9 191.14 351.3 191.19 351.66L192.85 351.66C192.65 350.74 192.58 349.64 192.6 348L192.61 345.77C192.63 343.03 191.44 341.77 188.76 341.77C186.89 341.77 185.02 342.94 184.87 345.03L186.57 345.03C186.64 343.83 187.41 343.11 188.78 343.11C190 343.11 190.98 343.68 190.98 345.46L190.98 345.7C187.02 346.13 184.42 346.81 184.42 349.1ZM88.66 341.97L87.02 341.97L87.02 354.81L88.66 354.81L88.66 350.2C89.25 351.22 90.26 351.89 91.83 351.89C94.06 351.89 95.97 350.07 95.97 346.85C95.97 343.68 94.06 341.81 91.83 341.81C90.26 341.81 89.25 342.48 88.66 343.5L88.66 341.97ZM106.7 346.85C106.7 343.34 104.31 341.81 102.06 341.81C99.81 341.81 97.41 343.34 97.41 346.85C97.41 350.36 99.81 351.89 102.06 351.89C104.31 351.89 106.7 350.36 106.7 346.85ZM122.91 347.35L130.36 347.35C130.56 344.28 128.81 341.81 125.84 341.81C123.19 341.81 121.14 343.75 121.14 346.83C121.14 349.69 122.83 351.89 125.89 351.89C128.25 351.89 129.8 350.5 130.23 348.85L128.54 348.85C128.13 349.8 127.33 350.45 125.89 350.45C124.47 350.45 122.96 349.44 122.91 347.35ZM140.44 345.21C140.2 343.56 138.76 341.81 136.39 341.81C133.52 341.81 131.71 343.95 131.71 346.83C131.71 349.78 133.43 351.89 136.22 351.89C138.49 351.89 140.2 350.32 140.54 348.51L138.85 348.51C138.62 349.51 137.66 350.45 136.28 350.45C134.84 350.45 133.49 349.26 133.49 346.81C133.49 344.38 134.84 343.25 136.28 343.25C137.56 343.25 138.55 344.06 138.78 345.21L140.44 345.21ZM150.54 345.21C150.31 343.56 148.87 341.81 146.49 341.81C143.63 341.81 141.81 343.95 141.81 346.83C141.81 349.78 143.54 351.89 146.33 351.89C148.6 351.89 150.31 350.32 150.65 348.51L148.96 348.51C148.72 349.51 147.77 350.45 146.38 350.45C144.94 350.45 143.6 349.26 143.6 346.81C143.6 344.38 144.94 343.25 146.38 343.25C147.66 343.25 148.65 344.06 148.89 345.21L150.54 345.21ZM172.21 346.85C172.21 343.34 169.82 341.81 167.57 341.81C165.32 341.81 162.92 343.34 162.92 346.85C162.92 350.36 165.32 351.89 167.57 351.89C169.82 351.89 172.21 350.36 172.21 346.85ZM234.37 346.85C234.37 343.34 231.98 341.81 229.73 341.81C227.48 341.81 225.08 343.34 225.08 346.85C225.08 350.36 227.48 351.89 229.73 351.89C231.98 351.89 234.37 350.36 234.37 346.85ZM237.57 347.35L245.02 347.35C245.22 344.28 243.47 341.81 240.5 341.81C237.86 341.81 235.8 343.75 235.8 346.83C235.8 349.69 237.5 351.89 240.56 351.89C242.91 351.89 244.46 350.5 244.89 348.85L243.2 348.85C242.79 349.8 242 350.45 240.56 350.45C239.13 350.45 237.62 349.44 237.57 347.35ZM159.23 344.35L159.23 351.66L160.87 351.66L160.87 341.97L159.23 341.97L154.23 349.28L154.23 341.97L152.59 341.97L152.59 351.66L154.23 351.66L159.23 344.35ZM180.69 351.66L182.33 351.66L182.33 341.97L180.69 341.97L180.69 346L175.9 346L175.9 341.97L174.26 341.97L174.26 351.66L175.9 351.66L175.9 347.43L180.69 347.43L180.69 351.66ZM202.8 351.66L202.8 341.97L196.33 341.97L196.19 345.28C195.99 349.3 195.16 350.23 194.3 350.23L194.12 350.23L194.12 351.66L194.43 351.66C196.68 351.66 197.52 349.64 197.76 345.73L197.9 343.39L201.16 343.39L201.16 351.66L202.8 351.66ZM209.51 345.39L207.21 345.39L207.21 341.97L205.57 341.97L205.57 351.66L209.49 351.66C211.73 351.66 213.13 350.85 213.13 348.45C213.13 346.38 212.05 345.39 209.51 345.39ZM221.4 351.66L223.04 351.66L223.04 341.97L221.4 341.97L221.4 346L216.61 346L216.61 341.97L214.97 341.97L214.97 351.66L216.61 351.66L216.61 347.43L221.4 347.43L221.4 351.66ZM91.41 350.49C89.96 350.49 88.59 349.41 88.59 346.85C88.59 344.29 89.96 343.21 91.41 343.21C93.09 343.21 94.19 344.53 94.19 346.85C94.19 349.17 93.09 350.49 91.41 350.49ZM122.92 345.95C123.07 344.01 124.4 343.21 125.84 343.21C127.59 343.21 128.58 344.58 128.63 345.95L122.92 345.95ZM237.59 345.95C237.73 344.01 239.06 343.21 240.5 343.21C242.25 343.21 243.24 344.58 243.29 345.95L237.59 345.95ZM102.06 350.45C100.56 350.45 99.16 349.44 99.16 346.85C99.16 344.2 100.56 343.25 102.06 343.25C103.55 343.25 104.95 344.26 104.95 346.85C104.95 349.33 103.55 350.45 102.06 350.45ZM167.57 350.45C166.08 350.45 164.67 349.44 164.67 346.85C164.67 344.2 166.08 343.25 167.57 343.25C169.06 343.25 170.47 344.26 170.47 346.85C170.47 349.33 169.06 350.45 167.57 350.45ZM229.73 350.45C228.23 350.45 226.83 349.44 226.83 346.85C226.83 344.2 228.23 343.25 229.73 343.25C231.22 343.25 232.62 344.26 232.62 346.85C232.62 349.33 231.22 350.45 229.73 350.45ZM113.12 343.39L113.12 350.34C111.19 350.34 109.88 349.26 109.88 346.9C109.88 344.53 111.25 343.39 113.12 343.39ZM114.76 350.34L114.76 343.39C116.68 343.39 118 344.53 118 346.9C118 349.26 116.63 350.34 114.76 350.34ZM209.35 350.23L207.21 350.23L207.21 346.81L209.31 346.81C210.77 346.81 211.53 347.17 211.53 348.45C211.53 349.75 210.79 350.23 209.35 350.23ZM191.1 346.99L191.1 347.61C191.1 349.89 189.64 350.59 188.11 350.59C186.94 350.59 186.24 349.98 186.24 349.06C186.24 347.73 188.13 347.28 191.1 346.99ZM102.99 371.1C102.99 372.88 104.5 373.89 106.32 373.89C108.04 373.89 109.03 373.33 109.63 372.32C109.65 372.9 109.7 373.3 109.75 373.66L111.41 373.66C111.21 372.74 111.14 371.64 111.16 370L111.18 367.77C111.19 365.03 110.01 363.77 107.32 363.77C105.45 363.77 103.58 364.94 103.44 367.03L105.13 367.03C105.2 365.83 105.97 365.11 107.34 365.11C108.57 365.11 109.54 365.68 109.54 367.46L109.54 367.7C105.58 368.13 102.99 368.81 102.99 371.1ZM190.68 371.1C190.68 372.88 192.19 373.89 194.01 373.89C195.74 373.89 196.73 373.33 197.32 372.32C197.34 372.9 197.4 373.3 197.45 373.66L199.11 373.66C198.91 372.74 198.84 371.64 198.85 370L198.87 367.77C198.89 365.03 197.7 363.77 195.02 363.77C193.15 363.77 191.28 364.94 191.13 367.03L192.82 367.03C192.9 365.83 193.67 365.11 195.04 365.11C196.26 365.11 197.23 365.68 197.23 367.46L197.23 367.7C193.27 368.13 190.68 368.81 190.68 371.1ZM94.32 363.97L92.68 363.97L92.68 376.81L94.32 376.81L94.32 372.2C94.91 373.22 95.92 373.89 97.49 373.89C99.72 373.89 101.63 372.07 101.63 368.85C101.63 365.68 99.72 363.81 97.49 363.81C95.92 363.81 94.91 364.48 94.32 365.5L94.32 363.97ZM135.19 369.35L142.64 369.35C142.84 366.28 141.1 363.81 138.13 363.81C135.48 363.81 133.43 365.75 133.43 368.83C133.43 371.69 135.12 373.89 138.18 373.89C140.54 373.89 142.09 372.5 142.52 370.85L140.83 370.85C140.41 371.8 139.62 372.45 138.18 372.45C136.76 372.45 135.25 371.44 135.19 369.35ZM167.55 369.35L175.01 369.35C175.2 366.28 173.46 363.81 170.49 363.81C167.84 363.81 165.79 365.75 165.79 368.83C165.79 371.69 167.48 373.89 170.54 373.89C172.9 373.89 174.45 372.5 174.88 370.85L173.19 370.85C172.77 371.8 171.98 372.45 170.54 372.45C169.12 372.45 167.61 371.44 167.55 369.35ZM72.81 375.44L72.81 376.81L73.65 376.81C75.83 376.81 76.3 376.16 77.02 374.07L80.47 363.97L78.76 363.97L76.37 371.44L73.9 363.97L72.08 363.97L75.58 373.66L75.51 373.85C75.07 375.37 74.55 375.44 73.47 375.44L72.81 375.44ZM89.92 373.66L89.92 363.97L81.94 363.97L81.94 373.66L83.58 373.66L83.58 365.39L88.28 365.39L88.28 373.66L89.92 373.66ZM117.92 363.97L113.71 363.97L113.71 373.66L118.21 373.66C120.28 373.66 121.84 372.85 121.84 370.83C121.84 369.53 121.1 368.85 120.1 368.56C121 368.18 121.45 367.46 121.45 366.44C121.45 364.48 119.86 363.97 117.92 363.97ZM131.41 373.66L131.41 363.97L124.95 363.97L124.8 367.28C124.61 371.3 123.78 372.23 122.91 372.23L122.73 372.23L122.73 373.66L123.04 373.66C125.29 373.66 126.14 371.64 126.37 367.73L126.51 365.39L129.77 365.39L129.77 373.66L131.41 373.66ZM151.09 373.66L152.72 373.66L152.72 363.97L151.09 363.97L151.09 368L146.3 368L146.3 363.97L144.66 363.97L144.66 373.66L146.3 373.66L146.3 369.43L151.09 369.43L151.09 373.66ZM162.13 366.35L162.13 373.66L163.77 373.66L163.77 363.97L162.13 363.97L157.13 371.28L157.13 363.97L155.49 363.97L155.49 373.66L157.13 373.66L162.13 366.35ZM185.51 363.97L181.29 363.97L181.29 373.66L185.79 373.66C187.86 373.66 189.43 372.85 189.43 370.83C189.43 369.53 188.69 368.85 187.68 368.56C188.58 368.18 189.03 367.46 189.03 366.44C189.03 364.48 187.45 363.97 185.51 363.97ZM213.34 373.66L213.34 363.97L211.7 363.97L211.7 372.23L208.19 372.23L208.19 363.97L206.55 363.97L206.55 372.23L203.04 372.23L203.04 363.97L201.4 363.97L201.4 373.66L213.34 373.66ZM222.76 366.35L222.76 373.66L224.4 373.66L224.4 363.97L222.76 363.97L217.75 371.28L217.75 363.97L216.12 363.97L216.12 373.66L217.75 373.66L222.76 366.35ZM237.76 373.66L237.76 363.97L235.42 363.97L232.52 371.42L229.51 363.97L227.17 363.97L227.17 373.66L228.77 373.66L228.77 365.99L231.87 373.66L233.04 373.66L236.15 365.88L236.15 373.66L237.76 373.66ZM247.17 366.35L247.17 373.66L248.81 373.66L248.81 363.97L247.17 363.97L242.17 371.28L242.17 363.97L240.53 363.97L240.53 373.66L242.17 373.66L247.17 366.35ZM97.07 372.49C95.62 372.49 94.25 371.41 94.25 368.85C94.25 366.29 95.62 365.21 97.07 365.21C98.75 365.21 99.85 366.53 99.85 368.85C99.85 371.17 98.75 372.49 97.07 372.49ZM135.21 367.95C135.35 366.01 136.69 365.21 138.13 365.21C139.87 365.21 140.86 366.58 140.92 367.95L135.21 367.95ZM167.57 367.95C167.72 366.01 169.05 365.21 170.49 365.21C172.23 365.21 173.22 366.58 173.28 367.95L167.57 367.95ZM117.81 368.04L115.34 368.04L115.34 365.39L117.76 365.39C118.98 365.39 119.74 365.61 119.74 366.62C119.74 367.72 119.02 368.04 117.81 368.04ZM185.4 368.04L182.93 368.04L182.93 365.39L185.34 365.39C186.57 365.39 187.32 365.61 187.32 366.62C187.32 367.72 186.6 368.04 185.4 368.04ZM109.66 368.99L109.66 369.61C109.66 371.89 108.21 372.59 106.68 372.59C105.51 372.59 104.8 371.98 104.8 371.06C104.8 369.73 106.69 369.28 109.66 368.99ZM197.36 368.99L197.36 369.61C197.36 371.89 195.9 372.59 194.37 372.59C193.2 372.59 192.5 371.98 192.5 371.06C192.5 369.73 194.39 369.28 197.36 368.99ZM115.34 372.23L115.34 369.39L117.9 369.39C119.41 369.39 120.13 369.73 120.13 370.81C120.13 371.82 119.39 372.23 117.95 372.23L115.34 372.23ZM182.93 372.23L182.93 369.39L185.49 369.39C187 369.39 187.72 369.73 187.72 370.81C187.72 371.82 186.98 372.23 185.54 372.23L182.93 372.23ZM72.72 393.1C72.72 394.88 74.23 395.89 76.05 395.89C77.77 395.89 78.76 395.33 79.36 394.32C79.37 394.9 79.43 395.3 79.48 395.66L81.14 395.66C80.94 394.74 80.87 393.64 80.89 392L80.91 389.77C80.92 387.03 79.74 385.77 77.05 385.77C75.18 385.77 73.31 386.94 73.17 389.03L74.86 389.03C74.93 387.83 75.7 387.11 77.07 387.11C78.3 387.11 79.27 387.68 79.27 389.46L79.27 389.7C75.31 390.13 72.72 390.81 72.72 393.1ZM122.51 393.1C122.51 394.88 124.03 395.89 125.84 395.89C127.57 395.89 128.56 395.33 129.16 394.32C129.17 394.9 129.23 395.3 129.28 395.66L130.94 395.66C130.74 394.74 130.67 393.64 130.69 392L130.7 389.77C130.72 387.03 129.53 385.77 126.85 385.77C124.98 385.77 123.11 386.94 122.96 389.03L124.66 389.03C124.73 387.83 125.5 387.11 126.87 387.11C128.09 387.11 129.07 387.68 129.07 389.46L129.07 389.7C125.11 390.13 122.51 390.81 122.51 393.1ZM86.33 391.35L89.66 395.66L91.7 395.66L87.67 390.54L91.32 385.97L89.38 385.97L86.3 389.93L85.09 389.93L85.09 385.97L83.44 385.97L83.44 395.66L85.09 395.66L85.09 391.35L86.33 391.35ZM97.1 387.39L100.41 387.39L100.41 385.97L92.15 385.97L92.15 387.39L95.46 387.39L95.46 395.66L97.1 395.66L97.1 387.39ZM108.71 388.35L108.71 395.66L110.35 395.66L110.35 385.97L108.71 385.97L103.71 393.28L103.71 385.97L102.07 385.97L102.07 395.66L103.71 395.66L108.71 388.35ZM117.34 385.97L113.13 385.97L113.13 395.66L117.63 395.66C119.7 395.66 121.26 394.85 121.26 392.83C121.26 391.53 120.52 390.85 119.52 390.56C120.42 390.18 120.87 389.46 120.87 388.44C120.87 386.48 119.28 385.97 117.34 385.97ZM143.82 395.66L143.82 385.97L141.48 385.97L138.58 393.42L135.58 385.97L133.24 385.97L133.24 395.66L134.84 395.66L134.84 387.99L137.93 395.66L139.1 395.66L142.22 387.88L142.22 395.66L143.82 395.66ZM153.24 388.35L153.24 395.66L154.87 395.66L154.87 385.97L153.24 385.97L148.23 393.28L148.23 385.97L146.59 385.97L146.59 395.66L148.23 395.66L153.24 388.35ZM117.23 390.04L114.76 390.04L114.76 387.39L117.18 387.39C118.4 387.39 119.16 387.61 119.16 388.62C119.16 389.72 118.44 390.04 117.23 390.04ZM79.39 390.99L79.39 391.61C79.39 393.89 77.94 394.59 76.41 394.59C75.24 394.59 74.53 393.98 74.53 393.06C74.53 391.73 76.42 391.28 79.39 390.99ZM129.19 390.99L129.19 391.61C129.19 393.89 127.73 394.59 126.2 394.59C125.03 394.59 124.33 393.98 124.33 393.06C124.33 391.73 126.22 391.28 129.19 390.99ZM114.76 394.23L114.76 391.39L117.32 391.39C118.83 391.39 119.55 391.73 119.55 392.81C119.55 393.82 118.81 394.23 117.37 394.23L114.76 394.23Z" fill="#EFEFEF" fill-opacity="1.000000" fill-rule="evenodd"/>
				</g>
				<rect id="Frame 193" rx="8.000000" width="265.600006" height="320.000000" transform="translate(40.000000 112.000000)" stroke="#316CED" stroke-opacity="1.000000" stroke-width="1.000000"/>
			</g>
			<g filter="url(#filter_1_4582_dd)">
				<rect id="Frame 194" rx="8.000000" width="265.600006" height="320.000000" transform="translate(313.599609 112.000000)" fill="#1B3C84" fill-opacity="0.200000"/>
				<g clip-path="url(#clip1_4582)">
					<g clip-path="url(#clip1_4583)">
						<rect id="Rectangle 240" x="356.599609" y="155.000000" rx="2.000000" width="10.000000" height="10.000000" transform="rotate(1.52588e-05 356.599609 155.000000)" fill="#316CED" fill-opacity="1.000000"/>
						<rect id="Rectangle 248" x="367.599609" y="155.000000" rx="2.000000" width="10.000000" height="10.000000" transform="rotate(1.52588e-05 367.599609 155.000000)" fill="#316CED" fill-opacity="1.000000"/>
						<rect id="Rectangle 244" x="345.599609" y="166.000000" rx="2.000000" width="10.000000" height="10.000000" transform="rotate(1.52588e-05 345.599609 166.000000)" fill="#316CED" fill-opacity="1.000000"/>
						<rect id="Rectangle 246" x="345.599609" y="144.000000" rx="2.000000" width="10.000000" height="10.000000" transform="rotate(1.52588e-05 345.599609 144.000000)" fill="#316CED" fill-opacity="1.000000"/>
						<rect id="Rectangle 245" x="367.599609" y="144.000000" rx="2.000000" width="10.000000" height="10.000000" transform="rotate(1.52588e-05 367.599609 144.000000)" fill="#316CED" fill-opacity="1.000000"/>
						<rect id="Rectangle 247" x="367.599609" y="166.000000" rx="2.000000" width="10.000000" height="10.000000" transform="rotate(1.52588e-05 367.599609 166.000000)" fill="#316CED" fill-opacity="1.000000"/>
					</g>
					<path id="Экономия вашего времени" d="M347.95 369.32L346.14 369.32C346.62 372.14 348.89 373.89 351.95 373.89C355.84 373.89 358.09 371.14 358.09 367.12C358.09 363.14 355.78 360.37 351.88 360.37C348.85 360.37 346.73 362.15 346.19 364.96L348.03 364.96C348.46 362.84 350.1 361.92 351.95 361.92C354.22 361.92 355.84 363.56 356.13 366.2L350.01 366.2L350.01 367.79L356.14 367.79C355.95 370.6 354.31 372.34 351.93 372.34C349.99 372.34 348.39 371.39 347.95 369.32ZM378.44 368.85C378.44 365.34 376.04 363.81 373.79 363.81C371.54 363.81 369.15 365.34 369.15 368.85C369.15 372.36 371.54 373.89 373.79 373.89C376.04 373.89 378.44 372.36 378.44 368.85ZM399.88 368.85C399.88 365.34 397.49 363.81 395.24 363.81C392.99 363.81 390.59 365.34 390.59 368.85C390.59 372.36 392.99 373.89 395.24 373.89C397.49 373.89 399.88 372.36 399.88 368.85ZM363.29 369.35L366.62 373.66L368.66 373.66L364.62 368.54L368.28 363.97L366.33 363.97L363.26 367.93L362.05 367.93L362.05 363.97L360.39 363.97L360.39 373.66L362.05 373.66L362.05 369.35L363.29 369.35ZM386.91 373.66L388.55 373.66L388.55 363.97L386.91 363.97L386.91 368L382.12 368L382.12 363.97L380.49 363.97L380.49 373.66L382.12 373.66L382.12 369.43L386.91 369.43L386.91 373.66ZM412.51 373.66L412.51 363.97L410.17 363.97L407.28 371.42L404.27 363.97L401.93 363.97L401.93 373.66L403.53 373.66L403.53 365.99L406.63 373.66L407.8 373.66L410.91 365.88L410.91 373.66L412.51 373.66ZM421.93 366.35L421.93 373.66L423.57 373.66L423.57 363.97L421.93 363.97L416.93 371.28L416.93 363.97L415.29 363.97L415.29 373.66L416.93 373.66L421.93 366.35ZM433.51 373.66L433.51 363.97L429.71 363.97C427.48 363.97 426.11 364.96 426.11 366.96C426.11 368.4 426.94 369.34 428.16 369.75L425.23 373.66L427.26 373.66L429.89 370.2C429.98 370.22 430.07 370.22 430.16 370.22L431.87 370.22L431.87 373.66L433.51 373.66ZM373.79 372.45C372.3 372.45 370.89 371.44 370.89 368.85C370.89 366.2 372.3 365.25 373.79 365.25C375.29 365.25 376.69 366.26 376.69 368.85C376.69 371.33 375.29 372.45 373.79 372.45ZM395.24 372.45C393.74 372.45 392.34 371.44 392.34 368.85C392.34 366.2 393.74 365.25 395.24 365.25C396.73 365.25 398.14 366.26 398.14 368.85C398.14 371.33 396.73 372.45 395.24 372.45ZM429.8 365.39L431.87 365.39L431.87 368.8L429.95 368.8C428.81 368.8 427.79 368.38 427.79 367.07C427.79 365.9 428.6 365.39 429.8 365.39ZM356.37 393.1C356.37 394.88 357.88 395.89 359.7 395.89C361.43 395.89 362.42 395.33 363.01 394.32C363.03 394.9 363.08 395.3 363.14 395.66L364.79 395.66C364.6 394.74 364.52 393.64 364.54 392L364.56 389.77C364.58 387.03 363.39 385.77 360.71 385.77C358.84 385.77 356.96 386.94 356.82 389.03L358.51 389.03C358.58 387.83 359.36 387.11 360.73 387.11C361.95 387.11 362.92 387.68 362.92 389.46L362.92 389.7C358.96 390.13 356.37 390.81 356.37 393.1ZM382.81 391.35L390.26 391.35C390.46 388.28 388.72 385.81 385.75 385.81C383.1 385.81 381.05 387.75 381.05 390.83C381.05 393.69 382.74 395.89 385.8 395.89C388.16 395.89 389.71 394.5 390.14 392.85L388.45 392.85C388.03 393.8 387.24 394.45 385.8 394.45C384.38 394.45 382.87 393.44 382.81 391.35ZM408.27 390.85C408.27 387.34 405.87 385.81 403.62 385.81C401.37 385.81 398.98 387.34 398.98 390.85C398.98 394.36 401.37 395.89 403.62 395.89C405.87 395.89 408.27 394.36 408.27 390.85ZM426.28 385.97L424.64 385.97L424.64 398.81L426.28 398.81L426.28 394.2C426.87 395.22 427.88 395.89 429.45 395.89C431.68 395.89 433.59 394.07 433.59 390.85C433.59 387.68 431.68 385.81 429.45 385.81C427.88 385.81 426.87 386.48 426.28 387.5L426.28 385.97ZM436.76 391.35L444.21 391.35C444.41 388.28 442.66 385.81 439.69 385.81C437.05 385.81 434.99 387.75 434.99 390.83C434.99 393.69 436.69 395.89 439.75 395.89C442.1 395.89 443.65 394.5 444.08 392.85L442.39 392.85C441.98 393.8 441.19 394.45 439.75 394.45C438.32 394.45 436.81 393.44 436.76 391.35ZM460.59 391.35L468.05 391.35C468.24 388.28 466.5 385.81 463.53 385.81C460.88 385.81 458.83 387.75 458.83 390.83C458.83 393.69 460.52 395.89 463.58 395.89C465.94 395.89 467.49 394.5 467.92 392.85L466.23 392.85C465.81 393.8 465.02 394.45 463.58 394.45C462.16 394.45 460.65 393.44 460.59 391.35ZM351.19 385.97L346.98 385.97L346.98 395.66L351.48 395.66C353.55 395.66 355.12 394.85 355.12 392.83C355.12 391.53 354.38 390.85 353.37 390.56C354.27 390.18 354.72 389.46 354.72 388.44C354.72 386.48 353.14 385.97 351.19 385.97ZM379.02 395.66L379.02 385.97L377.39 385.97L377.39 394.23L373.88 394.23L373.88 385.97L372.24 385.97L372.24 394.23L368.73 394.23L368.73 385.97L367.09 385.97L367.09 395.66L379.02 395.66ZM393.92 387.39L398.45 387.39L398.45 385.97L392.28 385.97L392.28 395.66L393.92 395.66L393.92 387.39ZM418.8 385.97L414.59 385.97L414.59 395.66L419.09 395.66C421.16 395.66 422.72 394.85 422.72 392.83C422.72 391.53 421.98 390.85 420.98 390.56C421.88 390.18 422.33 389.46 422.33 388.44C422.33 386.48 420.74 385.97 418.8 385.97ZM456.81 395.66L456.81 385.97L454.47 385.97L451.57 393.42L448.57 385.97L446.23 385.97L446.23 395.66L447.83 395.66L447.83 387.99L450.93 395.66L452.1 395.66L455.21 387.88L455.21 395.66L456.81 395.66ZM476.49 395.66L478.13 395.66L478.13 385.97L476.49 385.97L476.49 390L471.7 390L471.7 385.97L470.06 385.97L470.06 395.66L471.7 395.66L471.7 391.43L476.49 391.43L476.49 395.66ZM487.53 388.35L487.53 395.66L489.17 395.66L489.17 385.97L487.53 385.97L482.53 393.28L482.53 385.97L480.89 385.97L480.89 395.66L482.53 395.66L487.53 388.35ZM382.83 389.95C382.97 388.01 384.31 387.21 385.75 387.21C387.49 387.21 388.48 388.58 388.54 389.95L382.83 389.95ZM429.03 394.49C427.58 394.49 426.21 393.41 426.21 390.85C426.21 388.29 427.58 387.21 429.03 387.21C430.71 387.21 431.81 388.53 431.81 390.85C431.81 393.17 430.71 394.49 429.03 394.49ZM436.78 389.95C436.92 388.01 438.25 387.21 439.69 387.21C441.44 387.21 442.43 388.58 442.48 389.95L436.78 389.95ZM460.61 389.95C460.76 388.01 462.09 387.21 463.53 387.21C465.27 387.21 466.26 388.58 466.32 389.95L460.61 389.95ZM403.62 394.45C402.13 394.45 400.72 393.44 400.72 390.85C400.72 388.2 402.13 387.25 403.62 387.25C405.12 387.25 406.52 388.26 406.52 390.85C406.52 393.33 405.12 394.45 403.62 394.45ZM351.09 390.04L348.62 390.04L348.62 387.39L351.03 387.39C352.26 387.39 353.01 387.61 353.01 388.62C353.01 389.72 352.29 390.04 351.09 390.04ZM418.69 390.04L416.22 390.04L416.22 387.39L418.64 387.39C419.86 387.39 420.62 387.61 420.62 388.62C420.62 389.72 419.9 390.04 418.69 390.04ZM363.05 390.99L363.05 391.61C363.05 393.89 361.59 394.59 360.06 394.59C358.89 394.59 358.19 393.98 358.19 393.06C358.19 391.73 360.08 391.28 363.05 390.99ZM348.62 394.23L348.62 391.39L351.18 391.39C352.69 391.39 353.41 391.73 353.41 392.81C353.41 393.82 352.67 394.23 351.23 394.23L348.62 394.23ZM416.22 394.23L416.22 391.39L418.78 391.39C420.29 391.39 421.01 391.73 421.01 392.81C421.01 393.82 420.27 394.23 418.83 394.23L416.22 394.23Z" fill="#EFEFEF" fill-opacity="1.000000" fill-rule="evenodd"/>
				</g>
				<rect id="Frame 194" rx="8.000000" width="265.600006" height="320.000000" transform="translate(313.599609 112.000000)" stroke="#316CED" stroke-opacity="1.000000" stroke-width="1.000000"/>
			</g>
			<g filter="url(#filter_1_4585_dd)">
				<rect id="Frame 195" rx="8.000000" width="265.600006" height="320.000000" transform="translate(587.200195 112.000000)" fill="#1B3C84" fill-opacity="0.200000"/>
				<g clip-path="url(#clip1_4585)">
					<g clip-path="url(#clip1_4586)">
						<rect id="Rectangle 240" x="641.200195" y="155.000000" rx="2.000000" width="10.000000" height="10.000000" transform="rotate(1.52588e-05 641.200195 155.000000)" fill="#316CED" fill-opacity="1.000000"/>
						<rect id="Rectangle 244" x="630.200195" y="155.000000" rx="2.000000" width="10.000000" height="10.000000" transform="rotate(1.52588e-05 630.200195 155.000000)" fill="#316CED" fill-opacity="1.000000"/>
						<rect id="Rectangle 246" x="619.200195" y="155.000000" rx="2.000000" width="10.000000" height="10.000000" transform="rotate(1.52588e-05 619.200195 155.000000)" fill="#316CED" fill-opacity="1.000000"/>
						<rect id="Rectangle 245" x="641.200195" y="144.000000" rx="2.000000" width="10.000000" height="10.000000" transform="rotate(1.52588e-05 641.200195 144.000000)" fill="#316CED" fill-opacity="1.000000"/>
						<rect id="Rectangle 247" x="641.200195" y="166.000000" rx="2.000000" width="10.000000" height="10.000000" transform="rotate(1.52588e-05 641.200195 166.000000)" fill="#316CED" fill-opacity="1.000000"/>
					</g>
					<path id="Широкая диверсификация вложений" d="M620.92 351.66L636.19 351.66L636.19 338.61L634.35 338.61L634.35 350.07L629.38 350.07L629.38 338.61L627.55 338.61L627.55 350.07L622.76 350.07L622.76 338.61L620.92 338.61L620.92 351.66ZM681.02 349.1C681.02 350.88 682.53 351.89 684.35 351.89C686.08 351.89 687.07 351.33 687.66 350.32C687.68 350.9 687.73 351.3 687.79 351.66L689.44 351.66C689.24 350.74 689.17 349.64 689.19 348L689.21 345.77C689.23 343.03 688.04 341.77 685.36 341.77C683.48 341.77 681.61 342.94 681.47 345.03L683.16 345.03C683.23 343.83 684.01 343.11 685.37 343.11C686.6 343.11 687.57 343.68 687.57 345.46L687.57 345.7C683.61 346.13 681.02 346.81 681.02 349.1ZM652 341.97L650.36 341.97L650.36 354.81L652 354.81L652 350.2C652.59 351.22 653.6 351.89 655.17 351.89C657.4 351.89 659.31 350.07 659.31 346.85C659.31 343.68 657.4 341.81 655.17 341.81C653.6 341.81 652.59 342.48 652 343.5L652 341.97ZM670.04 346.85C670.04 343.34 667.64 341.81 665.39 341.81C663.14 341.81 660.75 343.34 660.75 346.85C660.75 350.36 663.14 351.89 665.39 351.89C667.64 351.89 670.04 350.36 670.04 346.85ZM645.94 344.35L645.94 351.66L647.58 351.66L647.58 341.97L645.94 341.97L640.94 349.28L640.94 341.97L639.3 341.97L639.3 351.66L640.94 351.66L645.94 344.35ZM674.98 347.35L678.31 351.66L680.35 351.66L676.32 346.54L679.97 341.97L678.03 341.97L674.95 345.93L673.74 345.93L673.74 341.97L672.09 341.97L672.09 351.66L673.74 351.66L673.74 347.35L674.98 347.35ZM698.9 351.66L698.9 341.97L695.1 341.97C692.87 341.97 691.5 342.96 691.5 344.96C691.5 346.4 692.33 347.34 693.56 347.75L690.62 351.66L692.66 351.66L695.28 348.2C695.37 348.22 695.46 348.22 695.55 348.22L697.26 348.22L697.26 351.66L698.9 351.66ZM654.75 350.49C653.29 350.49 651.93 349.41 651.93 346.85C651.93 344.29 653.29 343.21 654.75 343.21C656.43 343.21 657.52 344.53 657.52 346.85C657.52 349.17 656.43 350.49 654.75 350.49ZM665.39 350.45C663.9 350.45 662.49 349.44 662.49 346.85C662.49 344.2 663.9 343.25 665.39 343.25C666.89 343.25 668.29 344.26 668.29 346.85C668.29 349.33 666.89 350.45 665.39 350.45ZM695.19 343.39L697.26 343.39L697.26 346.8L695.34 346.8C694.2 346.8 693.18 346.38 693.18 345.07C693.18 343.9 693.99 343.39 695.19 343.39ZM687.7 346.99L687.7 347.61C687.7 349.89 686.24 350.59 684.71 350.59C683.54 350.59 682.84 349.98 682.84 349.06C682.84 347.73 684.73 347.28 687.7 346.99ZM700.93 363.99L700.93 360.61L699.29 360.61L699.29 363.99C696.48 363.99 694.3 365.56 694.3 368.85C694.3 372.25 696.48 373.75 699.29 373.75L699.29 376.81L700.93 376.81L700.93 373.75C703.72 373.75 705.91 372.25 705.91 368.85C705.91 365.56 703.75 363.99 700.93 363.99ZM727.92 371.1C727.92 372.88 729.43 373.89 731.25 373.89C732.97 373.89 733.96 373.33 734.56 372.32C734.58 372.9 734.63 373.3 734.68 373.66L736.34 373.66C736.14 372.74 736.07 371.64 736.09 370L736.11 367.77C736.12 365.03 734.94 363.77 732.25 363.77C730.38 363.77 728.51 364.94 728.37 367.03L730.06 367.03C730.13 365.83 730.9 365.11 732.27 365.11C733.5 365.11 734.47 365.68 734.47 367.46L734.47 367.7C730.51 368.13 727.92 368.81 727.92 371.1ZM653.41 369.35L660.86 369.35C661.06 366.28 659.31 363.81 656.34 363.81C653.69 363.81 651.64 365.75 651.64 368.83C651.64 371.69 653.33 373.89 656.39 373.89C658.75 373.89 660.3 372.5 660.73 370.85L659.04 370.85C658.63 371.8 657.83 372.45 656.39 372.45C654.97 372.45 653.46 371.44 653.41 369.35ZM664.51 363.97L662.87 363.97L662.87 376.81L664.51 376.81L664.51 372.2C665.11 373.22 666.11 373.89 667.68 373.89C669.91 373.89 671.82 372.07 671.82 368.85C671.82 365.68 669.91 363.81 667.68 363.81C666.11 363.81 665.11 364.48 664.51 365.5L664.51 363.97ZM681.96 367.21C681.72 365.56 680.28 363.81 677.91 363.81C675.05 363.81 673.23 365.95 673.23 368.83C673.23 371.78 674.96 373.89 677.75 373.89C680.01 373.89 681.72 372.32 682.07 370.51L680.37 370.51C680.14 371.51 679.19 372.45 677.8 372.45C676.36 372.45 675.01 371.26 675.01 368.81C675.01 366.38 676.36 365.25 677.8 365.25C679.08 365.25 680.07 366.06 680.3 367.21L681.96 367.21ZM629.64 375.8L629.64 372.23L628.28 372.23L628.28 363.97L621.75 363.97L621.63 367.09C621.48 370.79 620.9 372.23 619.81 372.23L619.38 372.23L619.38 375.8L620.96 375.8L620.96 373.66L628.05 373.66L628.05 375.8L629.64 375.8ZM637.93 366.35L637.93 373.66L639.57 373.66L639.57 363.97L637.93 363.97L632.92 371.28L632.92 363.97L631.29 363.97L631.29 373.66L632.92 373.66L637.93 366.35ZM646.56 363.97L642.34 363.97L642.34 373.66L646.84 373.66C648.91 373.66 650.48 372.85 650.48 370.83C650.48 369.53 649.74 368.85 648.73 368.56C649.63 368.18 650.08 367.46 650.08 366.44C650.08 364.48 648.5 363.97 646.56 363.97ZM690.65 366.35L690.65 373.66L692.28 373.66L692.28 363.97L690.65 363.97L685.64 371.28L685.64 363.97L684 363.97L684 373.66L685.64 373.66L690.65 366.35ZM714.57 366.35L714.57 373.66L716.21 373.66L716.21 363.97L714.57 363.97L709.57 371.28L709.57 363.97L707.93 363.97L707.93 373.66L709.57 373.66L714.57 366.35ZM721.88 369.35L725.21 373.66L727.25 373.66L723.21 368.54L726.87 363.97L724.92 363.97L721.85 367.93L720.64 367.93L720.64 363.97L718.98 363.97L718.98 373.66L720.64 373.66L720.64 369.35L721.88 369.35ZM747.69 372.23L746.34 372.23L746.34 363.97L744.7 363.97L744.7 372.23L740.27 372.23L740.27 363.97L738.64 363.97L738.64 373.66L746.14 373.66L746.14 375.98L747.69 375.98L747.69 372.23ZM755.98 366.35L755.98 373.66L757.62 373.66L757.62 363.97L755.98 363.97L750.98 371.28L750.98 363.97L749.34 363.97L749.34 373.66L750.98 373.66L755.98 366.35ZM767.56 373.66L767.56 363.97L763.76 363.97C761.53 363.97 760.16 364.96 760.16 366.96C760.16 368.4 760.99 369.34 762.22 369.75L759.28 373.66L761.32 373.66L763.94 370.2C764.03 370.22 764.12 370.22 764.21 370.22L765.92 370.22L765.92 373.66L767.56 373.66ZM653.42 367.95C653.57 366.01 654.9 365.21 656.34 365.21C658.09 365.21 659.08 366.58 659.13 367.95L653.42 367.95ZM667.27 372.49C665.81 372.49 664.44 371.41 664.44 368.85C664.44 366.29 665.81 365.21 667.27 365.21C668.94 365.21 670.04 366.53 670.04 368.85C670.04 371.17 668.94 372.49 667.27 372.49ZM626.65 365.39L626.65 372.23L621.93 372.23C622.69 371.51 623.1 370.11 623.25 367.25L623.34 365.39L626.65 365.39ZM646.45 368.04L643.98 368.04L643.98 365.39L646.39 365.39C647.62 365.39 648.37 365.61 648.37 366.62C648.37 367.72 647.65 368.04 646.45 368.04ZM699.29 365.39L699.29 372.34C697.36 372.34 696.05 371.26 696.05 368.9C696.05 366.53 697.42 365.39 699.29 365.39ZM700.93 372.34L700.93 365.39C702.85 365.39 704.17 366.53 704.17 368.9C704.17 371.26 702.8 372.34 700.93 372.34ZM763.85 365.39L765.92 365.39L765.92 368.8L764 368.8C762.86 368.8 761.84 368.38 761.84 367.07C761.84 365.9 762.65 365.39 763.85 365.39ZM734.59 368.99L734.59 369.61C734.59 371.89 733.14 372.59 731.61 372.59C730.44 372.59 729.73 371.98 729.73 371.06C729.73 369.73 731.62 369.28 734.59 368.99ZM643.98 372.23L643.98 369.39L646.54 369.39C648.05 369.39 648.77 369.73 648.77 370.81C648.77 371.82 648.03 372.23 646.59 372.23L643.98 372.23ZM705 382.61L703.72 382.61C703.65 383.18 703.2 383.7 702.14 383.7C701.08 383.7 700.64 383.18 700.57 382.61L699.29 382.61C699.38 383.69 700.14 384.78 702.12 384.78C704.17 384.78 704.86 383.69 705 382.61ZM649.63 390.85C649.63 387.34 647.23 385.81 644.98 385.81C642.73 385.81 640.34 387.34 640.34 390.85C640.34 394.36 642.73 395.89 644.98 395.89C647.23 395.89 649.63 394.36 649.63 390.85ZM666.57 391.35L674.02 391.35C674.22 388.28 672.48 385.81 669.51 385.81C666.86 385.81 664.81 387.75 664.81 390.83C664.81 393.69 666.5 395.89 669.56 395.89C671.92 395.89 673.47 394.5 673.9 392.85L672.21 392.85C671.79 393.8 671 394.45 669.56 394.45C668.14 394.45 666.63 393.44 666.57 391.35ZM624.79 385.97L620.58 385.97L620.58 395.66L625.08 395.66C627.15 395.66 628.72 394.85 628.72 392.83C628.72 391.53 627.98 390.85 626.97 390.56C627.87 390.18 628.32 389.46 628.32 388.44C628.32 386.48 626.74 385.97 624.79 385.97ZM638.29 395.66L638.29 385.97L631.82 385.97L631.68 389.28C631.48 393.3 630.65 394.23 629.79 394.23L629.61 394.23L629.61 395.66L629.92 395.66C632.17 395.66 633.01 393.64 633.25 389.73L633.39 387.39L636.65 387.39L636.65 395.66L638.29 395.66ZM664.36 395.66L660.81 390.54L664.03 385.97L662.14 385.97L659.43 389.95L658.06 389.95L658.06 385.97L656.42 385.97L656.42 389.95L655.05 389.95L652.35 385.97L650.44 385.97L653.68 390.6L650.12 395.66L652.12 395.66L655.05 391.37L656.42 391.37L656.42 395.66L658.06 395.66L658.06 391.37L659.48 391.37L662.4 395.66L664.36 395.66ZM682.47 395.66L684.1 395.66L684.1 385.97L682.47 385.97L682.47 390L677.68 390L677.68 385.97L676.04 385.97L676.04 395.66L677.68 395.66L677.68 391.43L682.47 391.43L682.47 395.66ZM693.51 388.35L693.51 395.66L695.15 395.66L695.15 385.97L693.51 385.97L688.51 393.28L688.51 385.97L686.87 385.97L686.87 395.66L688.51 395.66L693.51 388.35ZM704.57 388.35L704.57 395.66L706.21 395.66L706.21 385.97L704.57 385.97L699.56 393.28L699.56 385.97L697.93 385.97L697.93 395.66L699.56 395.66L704.57 388.35ZM666.59 389.95C666.73 388.01 668.07 387.21 669.51 387.21C671.25 387.21 672.24 388.58 672.3 389.95L666.59 389.95ZM644.98 394.45C643.49 394.45 642.09 393.44 642.09 390.85C642.09 388.2 643.49 387.25 644.98 387.25C646.48 387.25 647.88 388.26 647.88 390.85C647.88 393.33 646.48 394.45 644.98 394.45ZM624.69 390.04L622.22 390.04L622.22 387.39L624.63 387.39C625.86 387.39 626.61 387.61 626.61 388.62C626.61 389.72 625.89 390.04 624.69 390.04ZM622.22 394.23L622.22 391.39L624.78 391.39C626.29 391.39 627.01 391.73 627.01 392.81C627.01 393.82 626.27 394.23 624.83 394.23L622.22 394.23Z" fill="#EFEFEF" fill-opacity="1.000000" fill-rule="evenodd"/>
				</g>
				<rect id="Frame 195" rx="8.000000" width="265.600006" height="320.000000" transform="translate(587.200195 112.000000)" stroke="#316CED" stroke-opacity="1.000000" stroke-width="1.000000"/>
			</g>
			<g filter="url(#filter_1_4588_dd)">
				<rect id="Frame 197" rx="8.000000" width="265.600037" height="320.000000" transform="translate(860.800781 112.000000)" fill="#1B3C84" fill-opacity="0.200000"/>
				<g clip-path="url(#clip1_4588)">
					<g clip-path="url(#clip1_4589)">
						<rect id="Rectangle 235" x="892.800781" y="166.000000" rx="2.000000" width="10.000000" height="10.000000" transform="rotate(1.52588e-05 892.800781 166.000000)" fill="#316CED" fill-opacity="1.000000"/>
						<rect id="Rectangle 240" x="892.800781" y="155.000000" rx="2.000000" width="10.000000" height="10.000000" transform="rotate(1.52588e-05 892.800781 155.000000)" fill="#316CED" fill-opacity="1.000000"/>
						<rect id="Rectangle 242" x="914.800781" y="144.000000" rx="2.000000" width="10.000000" height="10.000000" transform="rotate(1.52588e-05 914.800781 144.000000)" fill="#316CED" fill-opacity="1.000000"/>
						<rect id="Rectangle 244" x="903.800781" y="166.000000" rx="2.000000" width="10.000000" height="10.000000" transform="rotate(1.52588e-05 903.800781 166.000000)" fill="#316CED" fill-opacity="1.000000"/>
						<rect id="Rectangle 247" x="903.800781" y="144.000000" rx="2.000000" width="10.000000" height="10.000000" transform="rotate(1.52588e-05 903.800781 144.000000)" fill="#316CED" fill-opacity="1.000000"/>
						<rect id="Rectangle 246" x="903.800781" y="155.000000" rx="2.000000" width="10.000000" height="10.000000" transform="rotate(1.52588e-05 903.800781 155.000000)" fill="#316CED" fill-opacity="1.000000"/>
						<rect id="Rectangle 245" x="914.800781" y="155.000000" rx="2.000000" width="10.000000" height="10.000000" transform="rotate(1.52588e-05 914.800781 155.000000)" fill="#316CED" fill-opacity="1.000000"/>
					</g>
					<path id="Высокая ликвидность паев фонда" d="M894.52 360.61L894.52 373.66L899.67 373.66C902.28 373.66 904.35 372.58 904.35 369.8C904.35 368.2 903.61 367.23 902.37 366.71C903.29 366.19 903.81 365.07 903.81 363.83C903.81 361.24 901.65 360.61 899.22 360.61L894.52 360.61ZM896.36 366.19L896.36 362.15L899.51 362.15C900.97 362.15 901.96 362.73 901.96 364.08C901.96 365.61 901.02 366.19 899.51 366.19L896.36 366.19ZM949.29 371.1C949.29 372.88 950.8 373.89 952.62 373.89C954.35 373.89 955.34 373.33 955.93 372.32C955.95 372.9 956.01 373.3 956.06 373.66L957.72 373.66C957.52 372.74 957.45 371.64 957.46 370L957.48 367.77C957.5 365.03 956.31 363.77 953.63 363.77C951.76 363.77 949.89 364.94 949.74 367.03L951.43 367.03C951.51 365.83 952.28 365.11 953.65 365.11C954.87 365.11 955.84 365.68 955.84 367.46L955.84 367.7C951.88 368.13 949.29 368.81 949.29 371.1ZM927.61 367.21C927.38 365.56 925.94 363.81 923.56 363.81C920.7 363.81 918.88 365.95 918.88 368.83C918.88 371.78 920.61 373.89 923.4 373.89C925.67 373.89 927.38 372.32 927.72 370.51L926.03 370.51C925.79 371.51 924.84 372.45 923.45 372.45C922.01 372.45 920.66 371.26 920.66 368.81C920.66 366.38 922.01 365.25 923.45 365.25C924.73 365.25 925.72 366.06 925.95 367.21L927.61 367.21ZM938.31 368.85C938.31 365.34 935.92 363.81 933.67 363.81C931.42 363.81 929.02 365.34 929.02 368.85C929.02 372.36 931.42 373.89 933.67 373.89C935.92 373.89 938.31 372.36 938.31 368.85ZM1056.74 368.85C1056.74 365.34 1054.35 363.81 1052.1 363.81C1049.85 363.81 1047.44 365.34 1047.44 368.85C1047.44 372.36 1049.85 373.89 1052.1 373.89C1054.35 373.89 1056.74 372.36 1056.74 368.85ZM1066.9 367.21C1066.67 365.56 1065.23 363.81 1062.85 363.81C1059.99 363.81 1058.17 365.95 1058.17 368.83C1058.17 371.78 1059.9 373.89 1062.68 373.89C1064.96 373.89 1066.67 372.32 1067.01 370.51L1065.31 370.51C1065.07 371.51 1064.13 372.45 1062.74 372.45C1061.3 372.45 1059.94 371.26 1059.94 368.81C1059.94 366.38 1061.3 365.25 1062.74 365.25C1064.02 365.25 1065.01 366.06 1065.25 367.21L1066.9 367.21ZM906.49 373.66L909.98 373.66C912.19 373.66 913.61 372.85 913.61 370.45C913.61 368.38 912.52 367.39 910 367.39L908.12 367.39L908.12 363.97L906.49 363.97L906.49 373.66ZM915.22 373.66L916.85 373.66L916.85 363.97L915.22 363.97L915.22 373.66ZM943.26 369.35L946.59 373.66L948.62 373.66L944.59 368.54L948.24 363.97L946.3 363.97L943.22 367.93L942.02 367.93L942.02 363.97L940.36 363.97L940.36 373.66L942.02 373.66L942.02 369.35L943.26 369.35ZM967.18 373.66L967.18 363.97L963.38 363.97C961.15 363.97 959.78 364.96 959.78 366.96C959.78 368.4 960.61 369.34 961.83 369.75L958.9 373.66L960.93 373.66L963.56 370.2C963.65 370.22 963.74 370.22 963.83 370.22L965.54 370.22L965.54 373.66L967.18 373.66ZM981.87 373.66L981.87 363.97L975.4 363.97L975.26 367.28C975.06 371.3 974.23 372.23 973.37 372.23L973.19 372.23L973.19 373.66L973.5 373.66C975.75 373.66 976.59 371.64 976.83 367.73L976.97 365.39L980.23 365.39L980.23 373.66L981.87 373.66ZM991.28 366.35L991.28 373.66L992.92 373.66L992.92 363.97L991.28 363.97L986.28 371.28L986.28 363.97L984.64 363.97L984.64 373.66L986.28 373.66L991.28 366.35ZM998.59 369.35L1001.93 373.66L1003.96 373.66L999.93 368.54L1003.58 363.97L1001.64 363.97L998.56 367.93L997.35 367.93L997.35 363.97L995.7 363.97L995.7 373.66L997.35 373.66L997.35 369.35L998.59 369.35ZM1009.74 363.97L1005.53 363.97L1005.53 373.66L1010.03 373.66C1012.1 373.66 1013.66 372.85 1013.66 370.83C1013.66 369.53 1012.92 368.85 1011.92 368.56C1012.82 368.18 1013.27 367.46 1013.27 366.44C1013.27 364.48 1011.68 363.97 1009.74 363.97ZM1022.22 366.35L1022.22 373.66L1023.86 373.66L1023.86 363.97L1022.22 363.97L1017.22 371.28L1017.22 363.97L1015.58 363.97L1015.58 373.66L1017.22 373.66L1022.22 366.35ZM1035.68 375.8L1035.68 372.23L1034.34 372.23L1034.34 363.97L1027.81 363.97L1027.68 367.09C1027.54 370.79 1026.96 372.23 1025.86 372.23L1025.43 372.23L1025.43 375.8L1027.02 375.8L1027.02 373.66L1034.11 373.66L1034.11 375.8L1035.68 375.8ZM1043.77 373.66L1045.41 373.66L1045.41 363.97L1043.77 363.97L1043.77 368L1038.98 368L1038.98 363.97L1037.34 363.97L1037.34 373.66L1038.98 373.66L1038.98 369.43L1043.77 369.43L1043.77 373.66ZM1072.47 365.39L1075.78 365.39L1075.78 363.97L1067.52 363.97L1067.52 365.39L1070.82 365.39L1070.82 373.66L1072.47 373.66L1072.47 365.39ZM1081.38 367.39L1079.07 367.39L1079.07 363.97L1077.43 363.97L1077.43 373.66L1081.36 373.66C1083.59 373.66 1085 372.85 1085 370.45C1085 368.38 1083.92 367.39 1081.38 367.39ZM933.67 372.45C932.17 372.45 930.77 371.44 930.77 368.85C930.77 366.2 932.17 365.25 933.67 365.25C935.16 365.25 936.56 366.26 936.56 368.85C936.56 371.33 935.16 372.45 933.67 372.45ZM1052.1 372.45C1050.6 372.45 1049.19 371.44 1049.19 368.85C1049.19 366.2 1050.6 365.25 1052.1 365.25C1053.59 365.25 1054.99 366.26 1054.99 368.85C1054.99 371.33 1053.59 372.45 1052.1 372.45ZM963.47 365.39L965.54 365.39L965.54 368.8L963.61 368.8C962.48 368.8 961.45 368.38 961.45 367.07C961.45 365.9 962.26 365.39 963.47 365.39ZM1009.63 368.04L1007.16 368.04L1007.16 365.39L1009.58 365.39C1010.8 365.39 1011.56 365.61 1011.56 366.62C1011.56 367.72 1010.84 368.04 1009.63 368.04ZM1032.69 365.39L1032.69 372.23L1027.99 372.23C1028.74 371.51 1029.16 370.11 1029.3 367.25L1029.39 365.39L1032.69 365.39ZM896.36 372.11L896.36 367.64L899.58 367.64C901.54 367.64 902.46 368.29 902.46 369.82C902.46 371.32 901.56 372.11 899.69 372.11L896.36 372.11ZM908.12 372.23L908.12 368.81L909.78 368.81C911.29 368.81 912.01 369.16 912.01 370.45C912.01 371.77 911.27 372.23 909.83 372.23L908.12 372.23ZM1081.22 372.23L1079.07 372.23L1079.07 368.81L1081.18 368.81C1082.64 368.81 1083.4 369.17 1083.4 370.45C1083.4 371.75 1082.66 372.23 1081.22 372.23ZM955.97 368.99L955.97 369.61C955.97 371.89 954.51 372.59 952.98 372.59C951.81 372.59 951.11 371.98 951.11 371.06C951.11 369.73 953 369.28 955.97 368.99ZM1007.16 372.23L1007.16 369.39L1009.72 369.39C1011.23 369.39 1011.95 369.73 1011.95 370.81C1011.95 371.82 1011.21 372.23 1009.77 372.23L1007.16 372.23ZM945.65 385.99L945.65 382.61L944.01 382.61L944.01 385.99C941.2 385.99 939.02 387.56 939.02 390.85C939.02 394.25 941.2 395.75 944.01 395.75L944.01 398.81L945.65 398.81L945.65 395.75C948.44 395.75 950.63 394.25 950.63 390.85C950.63 387.56 948.47 385.99 945.65 385.99ZM904.26 393.1C904.26 394.88 905.77 395.89 907.59 395.89C909.31 395.89 910.3 395.33 910.9 394.32C910.92 394.9 910.97 395.3 911.02 395.66L912.68 395.66C912.48 394.74 912.41 393.64 912.43 392L912.45 389.77C912.46 387.03 911.28 385.77 908.59 385.77C906.72 385.77 904.85 386.94 904.71 389.03L906.4 389.03C906.47 387.83 907.24 387.11 908.61 387.11C909.84 387.11 910.81 387.68 910.81 389.46L910.81 389.7C906.85 390.13 904.26 390.81 904.26 393.1ZM984.27 393.1C984.27 394.88 985.78 395.89 987.6 395.89C989.33 395.89 990.32 395.33 990.91 394.32C990.93 394.9 990.99 395.3 991.04 395.66L992.7 395.66C992.5 394.74 992.43 393.64 992.44 392L992.46 389.77C992.48 387.03 991.29 385.77 988.61 385.77C986.74 385.77 984.87 386.94 984.72 389.03L986.41 389.03C986.49 387.83 987.26 387.11 988.63 387.11C989.85 387.11 990.82 387.68 990.82 389.46L990.82 389.7C986.86 390.13 984.27 390.81 984.27 393.1ZM915.99 391.35L923.44 391.35C923.64 388.28 921.89 385.81 918.92 385.81C916.27 385.81 914.22 387.75 914.22 390.83C914.22 393.69 915.91 395.89 918.97 395.89C921.33 395.89 922.88 394.5 923.31 392.85L921.62 392.85C921.21 393.8 920.41 394.45 918.97 394.45C917.55 394.45 916.04 393.44 915.99 391.35ZM961.36 390.85C961.36 387.34 958.96 385.81 956.71 385.81C954.46 385.81 952.07 387.34 952.07 390.85C952.07 394.36 954.46 395.89 956.71 395.89C958.96 395.89 961.36 394.36 961.36 390.85ZM902.16 395.66L902.16 385.97L894.18 385.97L894.18 395.66L895.82 395.66L895.82 387.39L900.52 387.39L900.52 395.66L902.16 395.66ZM929.67 385.97L925.45 385.97L925.45 395.66L929.95 395.66C932.02 395.66 933.59 394.85 933.59 392.83C933.59 391.53 932.85 390.85 931.84 390.56C932.74 390.18 933.19 389.46 933.19 388.44C933.19 386.48 931.61 385.97 929.67 385.97ZM969.83 395.66L971.47 395.66L971.47 385.97L969.83 385.97L969.83 390L965.04 390L965.04 385.97L963.4 385.97L963.4 395.66L965.04 395.66L965.04 391.43L969.83 391.43L969.83 395.66ZM983.29 397.8L983.29 394.23L981.94 394.23L981.94 385.97L975.4 385.97L975.28 389.09C975.13 392.79 974.56 394.23 973.46 394.23L973.03 394.23L973.03 397.8L974.61 397.8L974.61 395.66L981.7 395.66L981.7 397.8L983.29 397.8ZM916 389.95C916.15 388.01 917.48 387.21 918.92 387.21C920.67 387.21 921.66 388.58 921.71 389.95L916 389.95ZM956.71 394.45C955.22 394.45 953.81 393.44 953.81 390.85C953.81 388.2 955.22 387.25 956.71 387.25C958.21 387.25 959.61 388.26 959.61 390.85C959.61 393.33 958.21 394.45 956.71 394.45ZM929.56 390.04L927.09 390.04L927.09 387.39L929.5 387.39C930.73 387.39 931.48 387.61 931.48 388.62C931.48 389.72 930.76 390.04 929.56 390.04ZM944.01 387.39L944.01 394.34C942.08 394.34 940.77 393.26 940.77 390.9C940.77 388.53 942.14 387.39 944.01 387.39ZM945.65 394.34L945.65 387.39C947.57 387.39 948.89 388.53 948.89 390.9C948.89 393.26 947.52 394.34 945.65 394.34ZM980.3 387.39L980.3 394.23L975.58 394.23C976.34 393.51 976.75 392.11 976.9 389.25L976.99 387.39L980.3 387.39ZM910.93 390.99L910.93 391.61C910.93 393.89 909.48 394.59 907.95 394.59C906.78 394.59 906.07 393.98 906.07 393.06C906.07 391.73 907.96 391.28 910.93 390.99ZM990.95 390.99L990.95 391.61C990.95 393.89 989.49 394.59 987.96 394.59C986.79 394.59 986.09 393.98 986.09 393.06C986.09 391.73 987.98 391.28 990.95 390.99ZM927.09 394.23L927.09 391.39L929.65 391.39C931.16 391.39 931.88 391.73 931.88 392.81C931.88 393.82 931.14 394.23 929.7 394.23L927.09 394.23Z" fill="#EFEFEF" fill-opacity="1.000000" fill-rule="evenodd"/>
				</g>
				<rect id="Frame 197" rx="8.000000" width="265.600037" height="320.000000" transform="translate(860.800781 112.000000)" stroke="#316CED" stroke-opacity="1.000000" stroke-width="1.000000"/>
			</g>
			<g filter="url(#filter_1_4591_dd)">
				<rect id="Frame 196" rx="8.000000" width="265.600037" height="320.000000" transform="translate(1134.400391 112.000000)" fill="#1B3C84" fill-opacity="0.200000"/>
				<g clip-path="url(#clip1_4591)">
					<g clip-path="url(#clip1_4592)">
						<rect id="Rectangle 235" x="1166.400391" y="166.000000" rx="2.000000" width="10.000000" height="10.000000" transform="rotate(1.52588e-05 1166.400391 166.000000)" fill="#316CED" fill-opacity="1.000000"/>
						<rect id="Rectangle 240" x="1166.400391" y="155.000000" rx="2.000000" width="10.000000" height="10.000000" transform="rotate(1.52588e-05 1166.400391 155.000000)" fill="#316CED" fill-opacity="1.000000"/>
						<rect id="Rectangle 242" x="1188.400391" y="144.000000" rx="2.000000" width="10.000000" height="10.000000" transform="rotate(1.52588e-05 1188.400391 144.000000)" fill="#316CED" fill-opacity="1.000000"/>
						<rect id="Rectangle 244" x="1177.400391" y="166.000000" rx="2.000000" width="10.000000" height="10.000000" transform="rotate(1.52588e-05 1177.400391 166.000000)" fill="#316CED" fill-opacity="1.000000"/>
						<rect id="Rectangle 247" x="1177.400391" y="144.000000" rx="2.000000" width="10.000000" height="10.000000" transform="rotate(1.52588e-05 1177.400391 144.000000)" fill="#316CED" fill-opacity="1.000000"/>
						<rect id="Rectangle 249" x="1166.400391" y="144.000000" rx="2.000000" width="10.000000" height="10.000000" transform="rotate(1.52588e-05 1166.400391 144.000000)" fill="#316CED" fill-opacity="1.000000"/>
						<rect id="Rectangle 245" x="1188.400391" y="155.000000" rx="2.000000" width="10.000000" height="10.000000" transform="rotate(1.52588e-05 1188.400391 155.000000)" fill="#316CED" fill-opacity="1.000000"/>
						<rect id="Rectangle 248" x="1188.400391" y="166.000000" rx="2.000000" width="10.000000" height="10.000000" transform="rotate(1.52588e-05 1188.400391 166.000000)" fill="#316CED" fill-opacity="1.000000"/>
					</g>
					<path id="Прозрачность  и законодательная система контроля  за работой фонда  и интересами пайщиков" d="M1176.48 285.66L1178.31 285.66L1178.31 272.6L1168.13 272.6L1168.13 285.66L1169.96 285.66L1169.96 274.19L1176.48 274.19L1176.48 285.66ZM1210.3 282.9C1210.3 281.6 1209.36 280.87 1208.34 280.58C1209.19 280.17 1209.87 279.48 1209.87 278.49C1209.87 276.67 1208.1 275.76 1206.19 275.76C1204.16 275.76 1202.6 276.85 1202.25 278.96L1203.94 278.96C1204.16 277.65 1205.07 277.2 1206.29 277.2C1207.35 277.2 1208.18 277.61 1208.18 278.53C1208.18 279.54 1207.49 280.04 1206.36 280.04L1204.9 280.04L1204.9 281.39L1206.44 281.39C1207.81 281.39 1208.55 281.84 1208.55 282.97C1208.55 283.89 1207.68 284.52 1206.31 284.52C1204.93 284.52 1204.02 283.95 1203.75 282.7L1202.09 282.7C1202.43 284.92 1204.14 285.89 1206.21 285.89C1208.37 285.89 1210.3 284.99 1210.3 282.9ZM1222.54 283.1C1222.54 284.88 1224.06 285.89 1225.87 285.89C1227.6 285.89 1228.59 285.33 1229.18 284.32C1229.19 284.9 1229.26 285.29 1229.31 285.66L1230.97 285.66C1230.77 284.74 1230.69 283.64 1230.72 282L1230.73 279.77C1230.75 277.03 1229.56 275.77 1226.88 275.77C1225.01 275.77 1223.14 276.94 1222.99 279.03L1224.68 279.03C1224.76 277.82 1225.53 277.1 1226.9 277.1C1228.12 277.1 1229.1 277.68 1229.1 279.46L1229.1 279.7C1225.14 280.13 1222.54 280.81 1222.54 283.1ZM1183.06 275.97L1181.43 275.97L1181.43 288.81L1183.06 288.81L1183.06 284.2C1183.66 285.22 1184.67 285.89 1186.23 285.89C1188.46 285.89 1190.37 284.07 1190.37 280.85C1190.37 277.68 1188.46 275.81 1186.23 275.81C1184.67 275.81 1183.66 276.48 1183.06 277.5L1183.06 275.97ZM1201.1 280.85C1201.1 277.34 1198.71 275.81 1196.46 275.81C1194.21 275.81 1191.81 277.34 1191.81 280.85C1191.81 284.36 1194.21 285.89 1196.46 285.89C1198.71 285.89 1201.1 284.36 1201.1 280.85ZM1213.88 275.97L1212.24 275.97L1212.24 288.81L1213.88 288.81L1213.88 284.2C1214.47 285.22 1215.48 285.89 1217.05 285.89C1219.28 285.89 1221.18 284.07 1221.18 280.85C1221.18 277.68 1219.28 275.81 1217.05 275.81C1215.48 275.81 1214.47 276.48 1213.88 277.5L1213.88 275.97ZM1262.56 280.85C1262.56 277.34 1260.16 275.81 1257.91 275.81C1255.66 275.81 1253.27 277.34 1253.27 280.85C1253.27 284.36 1255.66 285.89 1257.91 285.89C1260.16 285.89 1262.56 284.36 1262.56 280.85ZM1272.72 279.21C1272.49 277.56 1271.05 275.81 1268.67 275.81C1265.81 275.81 1263.99 277.95 1263.99 280.83C1263.99 283.78 1265.72 285.89 1268.51 285.89C1270.78 285.89 1272.49 284.32 1272.82 282.51L1271.14 282.51C1270.9 283.51 1269.94 284.45 1268.56 284.45C1267.12 284.45 1265.77 283.26 1265.77 280.81C1265.77 278.38 1267.12 277.25 1268.56 277.25C1269.84 277.25 1270.82 278.06 1271.06 279.21L1272.72 279.21ZM1238.75 285.66L1240.39 285.66L1240.39 275.97L1238.75 275.97L1238.75 280.38C1237.85 280.6 1237.1 280.71 1236.47 280.71C1235.1 280.71 1234.42 280.22 1234.42 278.78L1234.42 275.97L1232.78 275.97L1232.78 279.12C1232.78 281.23 1233.84 282.13 1235.87 282.13C1236.76 282.13 1237.62 282 1238.75 281.73L1238.75 285.66ZM1249.59 285.66L1251.23 285.66L1251.23 275.97L1249.59 275.97L1249.59 280L1244.8 280L1244.8 275.97L1243.16 275.97L1243.16 285.66L1244.8 285.66L1244.8 281.43L1249.59 281.43L1249.59 285.66ZM1278.28 277.39L1281.6 277.39L1281.6 275.97L1273.32 275.97L1273.32 277.39L1276.65 277.39L1276.65 285.66L1278.28 285.66L1278.28 277.39ZM1287.19 279.39L1284.9 279.39L1284.9 275.97L1283.26 275.97L1283.26 285.66L1287.18 285.66C1289.41 285.66 1290.81 284.85 1290.81 282.45C1290.81 280.38 1289.74 279.39 1287.19 279.39ZM1185.81 284.49C1184.36 284.49 1182.99 283.41 1182.99 280.85C1182.99 278.29 1184.36 277.21 1185.81 277.21C1187.49 277.21 1188.59 278.53 1188.59 280.85C1188.59 283.17 1187.49 284.49 1185.81 284.49ZM1216.63 284.49C1215.18 284.49 1213.81 283.41 1213.81 280.85C1213.81 278.29 1215.18 277.21 1216.63 277.21C1218.31 277.21 1219.41 278.53 1219.41 280.85C1219.41 283.17 1218.31 284.49 1216.63 284.49ZM1196.46 284.45C1194.97 284.45 1193.56 283.44 1193.56 280.85C1193.56 278.2 1194.97 277.25 1196.46 277.25C1197.94 277.25 1199.36 278.26 1199.36 280.85C1199.36 283.33 1197.94 284.45 1196.46 284.45ZM1257.91 284.45C1256.42 284.45 1255.02 283.44 1255.02 280.85C1255.02 278.2 1256.42 277.25 1257.91 277.25C1259.41 277.25 1260.81 278.26 1260.81 280.85C1260.81 283.33 1259.41 284.45 1257.91 284.45ZM1287.04 284.23L1284.9 284.23L1284.9 280.81L1287 280.81C1288.46 280.81 1289.22 281.17 1289.22 282.45C1289.22 283.75 1288.48 284.23 1287.04 284.23ZM1229.22 280.99L1229.22 281.6C1229.22 283.89 1227.76 284.59 1226.23 284.59C1225.06 284.59 1224.36 283.98 1224.36 283.06C1224.36 281.73 1226.25 281.28 1229.22 280.99ZM1190.26 304.9C1190.26 303.6 1189.31 302.87 1188.3 302.58C1189.16 302.17 1189.82 301.48 1189.82 300.49C1189.82 298.67 1188.06 297.76 1186.16 297.76C1184.12 297.76 1182.56 298.85 1182.21 300.96L1183.91 300.96C1184.12 299.65 1185.04 299.2 1186.25 299.2C1187.31 299.2 1188.14 299.61 1188.14 300.53C1188.14 301.54 1187.44 302.04 1186.31 302.04L1184.86 302.04L1184.86 303.39L1186.41 303.39C1187.78 303.39 1188.51 303.84 1188.51 304.97C1188.51 305.89 1187.65 306.52 1186.28 306.52C1184.9 306.52 1183.98 305.95 1183.71 304.7L1182.05 304.7C1182.39 306.92 1184.1 307.89 1186.17 307.89C1188.32 307.89 1190.26 306.99 1190.26 304.9ZM1191.54 305.1C1191.54 306.88 1193.05 307.89 1194.87 307.89C1196.59 307.89 1197.57 307.33 1198.18 306.32C1198.19 306.9 1198.25 307.29 1198.3 307.66L1199.96 307.66C1199.76 306.74 1199.68 305.64 1199.71 304L1199.73 301.77C1199.74 299.03 1198.56 297.77 1195.87 297.77C1194 297.77 1192.13 298.94 1191.99 301.03L1193.68 301.03C1193.75 299.82 1194.52 299.1 1195.89 299.1C1197.12 299.1 1198.09 299.68 1198.09 301.46L1198.09 301.7C1194.13 302.13 1191.54 302.81 1191.54 305.1ZM1253.66 305.1C1253.66 306.88 1255.17 307.89 1256.99 307.89C1258.72 307.89 1259.71 307.33 1260.3 306.32C1260.31 306.9 1260.37 307.29 1260.43 307.66L1262.07 307.66C1261.88 306.74 1261.81 305.64 1261.82 304L1261.85 301.77C1261.87 299.03 1260.68 297.77 1258 297.77C1256.12 297.77 1254.25 298.94 1254.11 301.03L1255.8 301.03C1255.87 299.82 1256.65 299.1 1258.01 299.1C1259.24 299.1 1260.21 299.68 1260.21 301.46L1260.21 301.7C1256.25 302.13 1253.66 302.81 1253.66 305.1ZM1312.83 305.1C1312.83 306.88 1314.34 307.89 1316.16 307.89C1317.88 307.89 1318.87 307.33 1319.47 306.32C1319.49 306.9 1319.54 307.29 1319.59 307.66L1321.25 307.66C1321.05 306.74 1320.98 305.64 1321 304L1321.02 301.77C1321.03 299.03 1319.85 297.77 1317.16 297.77C1315.29 297.77 1313.42 298.94 1313.28 301.03L1314.97 301.03C1315.04 299.82 1315.81 299.1 1317.18 299.1C1318.41 299.1 1319.38 299.68 1319.38 301.46L1319.38 301.7C1315.42 302.13 1312.83 302.81 1312.83 305.1ZM1220.3 302.85C1220.3 299.34 1217.91 297.81 1215.66 297.81C1213.41 297.81 1211.01 299.34 1211.01 302.85C1211.01 306.36 1213.41 307.89 1215.66 307.89C1217.91 307.89 1220.3 306.36 1220.3 302.85ZM1241.74 302.85C1241.74 299.34 1239.35 297.81 1237.1 297.81C1234.85 297.81 1232.46 299.34 1232.46 302.85C1232.46 306.36 1234.85 307.89 1237.1 307.89C1239.35 307.89 1241.74 306.36 1241.74 302.85ZM1273.37 303.35L1280.81 303.35C1281.02 300.28 1279.27 297.81 1276.3 297.81C1273.65 297.81 1271.6 299.75 1271.6 302.83C1271.6 305.69 1273.29 307.89 1276.35 307.89C1278.71 307.89 1280.26 306.5 1280.68 304.85L1279 304.85C1278.59 305.8 1277.79 306.45 1276.35 306.45C1274.93 306.45 1273.42 305.44 1273.37 303.35ZM1174.43 300.35L1174.43 307.66L1176.06 307.66L1176.06 297.97L1174.43 297.97L1169.42 305.28L1169.42 297.97L1167.79 297.97L1167.79 307.66L1169.42 307.66L1174.43 300.35ZM1205.16 303.35L1208.49 307.66L1210.52 307.66L1206.49 302.54L1210.14 297.97L1208.19 297.97L1205.12 301.93L1203.91 301.93L1203.91 297.97L1202.26 297.97L1202.26 307.66L1203.91 307.66L1203.91 303.35L1205.16 303.35ZM1228.77 307.66L1230.41 307.66L1230.41 297.97L1228.77 297.97L1228.77 302L1223.99 302L1223.99 297.97L1222.35 297.97L1222.35 307.66L1223.99 307.66L1223.99 303.43L1228.77 303.43L1228.77 307.66ZM1252.67 309.8L1252.67 306.23L1251.31 306.23L1251.31 297.97L1244.79 297.97L1244.66 301.09C1244.52 304.79 1243.93 306.23 1242.84 306.23L1242.41 306.23L1242.41 309.8L1244 309.8L1244 307.66L1251.09 307.66L1251.09 309.8L1252.67 309.8ZM1267.69 299.39L1271.01 299.39L1271.01 297.97L1262.75 297.97L1262.75 299.39L1266.06 299.39L1266.06 307.66L1267.69 307.66L1267.69 299.39ZM1290.49 307.66L1290.49 297.97L1284.02 297.97L1283.88 301.28C1283.68 305.3 1282.85 306.23 1281.99 306.23L1281.81 306.23L1281.81 307.66L1282.12 307.66C1284.37 307.66 1285.21 305.64 1285.44 301.73L1285.59 299.39L1288.85 299.39L1288.85 307.66L1290.49 307.66ZM1297.19 301.39L1294.9 301.39L1294.9 297.97L1293.26 297.97L1293.26 307.66L1297.18 307.66C1299.42 307.66 1300.81 306.85 1300.81 304.45C1300.81 302.38 1299.74 301.39 1297.19 301.39ZM1309.09 307.66L1310.73 307.66L1310.73 297.97L1309.09 297.97L1309.09 302L1304.3 302L1304.3 297.97L1302.66 297.97L1302.66 307.66L1304.3 307.66L1304.3 303.43L1309.09 303.43L1309.09 307.66ZM1330.71 307.66L1330.71 297.97L1326.91 297.97C1324.68 297.97 1323.31 298.96 1323.31 300.96C1323.31 302.4 1324.14 303.34 1325.36 303.75L1322.43 307.66L1324.46 307.66L1327.09 304.2C1327.18 304.22 1327.27 304.22 1327.36 304.22L1329.07 304.22L1329.07 307.66L1330.71 307.66ZM1273.38 301.95C1273.53 300.01 1274.86 299.21 1276.3 299.21C1278.05 299.21 1279.04 300.58 1279.09 301.95L1273.38 301.95ZM1215.66 306.45C1214.16 306.45 1212.76 305.44 1212.76 302.85C1212.76 300.2 1214.16 299.25 1215.66 299.25C1217.15 299.25 1218.55 300.26 1218.55 302.85C1218.55 305.33 1217.15 306.45 1215.66 306.45ZM1237.1 306.45C1235.61 306.45 1234.19 305.44 1234.19 302.85C1234.19 300.2 1235.61 299.25 1237.1 299.25C1238.59 299.25 1240 300.26 1240 302.85C1240 305.33 1238.59 306.45 1237.1 306.45ZM1249.68 299.39L1249.68 306.23L1244.97 306.23C1245.72 305.51 1246.14 304.11 1246.28 301.25L1246.37 299.39L1249.68 299.39ZM1327 299.39L1329.07 299.39L1329.07 302.79L1327.15 302.79C1326.01 302.79 1324.99 302.38 1324.99 301.07C1324.99 299.9 1325.8 299.39 1327 299.39ZM1297.04 306.23L1294.9 306.23L1294.9 302.81L1297 302.81C1298.46 302.81 1299.22 303.17 1299.22 304.45C1299.22 305.75 1298.48 306.23 1297.04 306.23ZM1198.21 302.99L1198.21 303.6C1198.21 305.89 1196.76 306.59 1195.23 306.59C1194.06 306.59 1193.35 305.98 1193.35 305.06C1193.35 303.73 1195.24 303.28 1198.21 302.99ZM1260.34 302.99L1260.34 303.6C1260.34 305.89 1258.88 306.59 1257.35 306.59C1256.18 306.59 1255.48 305.98 1255.48 305.06C1255.48 303.73 1257.37 303.28 1260.34 302.99ZM1319.5 302.99L1319.5 303.6C1319.5 305.89 1318.05 306.59 1316.52 306.59C1315.35 306.59 1314.64 305.98 1314.64 305.06C1314.64 303.73 1316.53 303.28 1319.5 302.99ZM1230.23 327.1C1230.23 328.88 1231.74 329.89 1233.56 329.89C1235.28 329.89 1236.27 329.33 1236.87 328.32C1236.89 328.9 1236.93 329.3 1236.99 329.66L1238.65 329.66C1238.44 328.74 1238.38 327.64 1238.4 326L1238.42 323.77C1238.43 321.03 1237.25 319.77 1234.56 319.77C1232.68 319.77 1230.81 320.94 1230.68 323.03L1232.37 323.03C1232.43 321.82 1233.21 321.1 1234.57 321.1C1235.81 321.1 1236.78 321.68 1236.78 323.46L1236.78 323.7C1232.81 324.13 1230.23 324.81 1230.23 327.1ZM1175.76 323.21C1175.53 321.56 1174.09 319.81 1171.71 319.81C1168.85 319.81 1167.03 321.95 1167.03 324.83C1167.03 327.78 1168.76 329.89 1171.55 329.89C1173.81 329.89 1175.53 328.32 1175.87 326.51L1174.18 326.51C1173.93 327.51 1172.99 328.45 1171.6 328.45C1170.16 328.45 1168.81 327.26 1168.81 324.81C1168.81 322.38 1170.16 321.25 1171.6 321.25C1172.88 321.25 1173.87 322.06 1174.1 323.21L1175.76 323.21ZM1196.84 323.21C1196.6 321.56 1195.16 319.81 1192.79 319.81C1189.92 319.81 1188.11 321.95 1188.11 324.83C1188.11 327.78 1189.82 329.89 1192.62 329.89C1194.89 329.89 1196.6 328.32 1196.93 326.51L1195.25 326.51C1195.02 327.51 1194.06 328.45 1192.68 328.45C1191.24 328.45 1189.89 327.26 1189.89 324.81C1189.89 322.38 1191.24 321.25 1192.68 321.25C1193.96 321.25 1194.94 322.06 1195.18 323.21L1196.84 323.21ZM1208.06 325.35L1215.52 325.35C1215.71 322.28 1213.97 319.81 1211 319.81C1208.35 319.81 1206.3 321.75 1206.3 324.83C1206.3 327.69 1207.99 329.89 1211.05 329.89C1213.41 329.89 1214.96 328.5 1215.39 326.85L1213.69 326.85C1213.28 327.8 1212.49 328.45 1211.05 328.45C1209.63 328.45 1208.12 327.44 1208.06 325.35ZM1263.26 324.85C1263.26 321.34 1260.87 319.81 1258.62 319.81C1256.37 319.81 1253.97 321.34 1253.97 324.85C1253.97 328.36 1256.37 329.89 1258.62 329.89C1260.87 329.89 1263.26 328.36 1263.26 324.85ZM1286.57 319.97L1284.93 319.97L1284.93 332.81L1286.57 332.81L1286.57 328.2C1287.18 329.22 1288.18 329.89 1289.75 329.89C1291.98 329.89 1293.89 328.07 1293.89 324.85C1293.89 321.68 1291.98 319.81 1289.75 319.81C1288.18 319.81 1287.18 320.48 1286.57 321.5L1286.57 319.97ZM1304.62 324.85C1304.62 321.34 1302.23 319.81 1299.98 319.81C1297.73 319.81 1295.32 321.34 1295.32 324.85C1295.32 328.36 1297.73 329.89 1299.98 329.89C1302.23 329.89 1304.62 328.36 1304.62 324.85ZM1184.44 322.35L1184.44 329.66L1186.09 329.66L1186.09 319.97L1184.44 319.97L1179.43 327.28L1179.43 319.97L1177.81 319.97L1177.81 329.66L1179.43 329.66L1184.44 322.35ZM1202.4 321.39L1205.71 321.39L1205.71 319.97L1197.44 319.97L1197.44 321.39L1200.76 321.39L1200.76 329.66L1202.4 329.66L1202.4 321.39ZM1228.12 329.66L1228.12 319.97L1225.78 319.97L1222.88 327.42L1219.87 319.97L1217.53 319.97L1217.53 329.66L1219.13 329.66L1219.13 321.99L1222.23 329.66L1223.4 329.66L1226.51 321.88L1226.51 329.66L1228.12 329.66ZM1248.12 325.35L1251.44 329.66L1253.48 329.66L1249.44 324.54L1253.1 319.97L1251.16 319.97L1248.07 323.93L1246.87 323.93L1246.87 319.97L1245.22 319.97L1245.22 329.66L1246.87 329.66L1246.87 325.35L1248.12 325.35ZM1271.74 329.66L1273.37 329.66L1273.37 319.97L1271.74 319.97L1271.74 324L1266.94 324L1266.94 319.97L1265.31 319.97L1265.31 329.66L1266.94 329.66L1266.94 325.43L1271.74 325.43L1271.74 329.66ZM1279.97 321.39L1283.28 321.39L1283.28 319.97L1275.02 319.97L1275.02 321.39L1278.32 321.39L1278.32 329.66L1279.97 329.66L1279.97 321.39ZM1314.18 329.66L1314.18 319.97L1307.72 319.97L1307.56 323.28C1307.38 327.3 1306.55 328.23 1305.68 328.23L1305.5 328.23L1305.5 329.66L1305.81 329.66C1308.06 329.66 1308.91 327.64 1309.14 323.73L1309.28 321.39L1312.54 321.39L1312.54 329.66L1314.18 329.66ZM1324.12 329.66L1324.12 319.97L1320.32 319.97C1318.09 319.97 1316.72 320.96 1316.72 322.96C1316.72 324.4 1317.55 325.34 1318.77 325.75L1315.84 329.66L1317.87 329.66L1320.5 326.2C1320.59 326.22 1320.68 326.22 1320.77 326.22L1322.48 326.22L1322.48 329.66L1324.12 329.66ZM1208.07 323.95C1208.23 322.01 1209.56 321.21 1211 321.21C1212.74 321.21 1213.73 322.58 1213.79 323.95L1208.07 323.95ZM1289.34 328.49C1287.88 328.49 1286.51 327.41 1286.51 324.85C1286.51 322.29 1287.88 321.21 1289.34 321.21C1291.01 321.21 1292.11 322.53 1292.11 324.85C1292.11 327.17 1291.01 328.49 1289.34 328.49ZM1258.62 328.45C1257.12 328.45 1255.72 327.44 1255.72 324.85C1255.72 322.2 1257.12 321.25 1258.62 321.25C1260.11 321.25 1261.51 322.26 1261.51 324.85C1261.51 327.33 1260.11 328.45 1258.62 328.45ZM1299.98 328.45C1298.48 328.45 1297.07 327.44 1297.07 324.85C1297.07 322.2 1298.48 321.25 1299.98 321.25C1301.47 321.25 1302.88 322.26 1302.88 324.85C1302.88 327.33 1301.47 328.45 1299.98 328.45ZM1320.41 321.39L1322.48 321.39L1322.48 324.79L1320.55 324.79C1319.42 324.79 1318.39 324.38 1318.39 323.07C1318.39 321.9 1319.2 321.39 1320.41 321.39ZM1236.9 324.99L1236.9 325.6C1236.9 327.89 1235.44 328.59 1233.92 328.59C1232.75 328.59 1232.04 327.98 1232.04 327.06C1232.04 325.73 1233.93 325.28 1236.9 324.99ZM1220.67 347.12C1220.67 344.06 1218.78 342.53 1216.57 342.53C1215.14 342.53 1213.84 343.16 1213.19 344.51C1213.43 342.1 1214.56 341.22 1216.92 340.69L1220.02 340.03L1220.02 338.57L1216.82 339.2C1212.93 339.97 1211.79 342.01 1211.74 345.5L1211.74 346.62C1211.74 350.14 1213.79 351.89 1216.29 351.89C1218.67 351.89 1220.67 350.23 1220.67 347.12ZM1259.07 338.61L1257.8 338.61C1257.73 339.18 1257.28 339.7 1256.22 339.7C1255.15 339.7 1254.72 339.18 1254.65 338.61L1253.37 338.61C1253.46 339.69 1254.22 340.78 1256.19 340.78C1258.25 340.78 1258.93 339.69 1259.07 338.61ZM1273.19 341.99L1273.19 338.61L1271.56 338.61L1271.56 341.99C1268.75 341.99 1266.57 343.56 1266.57 346.85C1266.57 350.25 1268.75 351.75 1271.56 351.75L1271.56 354.81L1273.19 354.81L1273.19 351.75C1275.99 351.75 1278.18 350.25 1278.18 346.85C1278.18 343.56 1276.03 341.99 1273.19 341.99ZM1174.93 348.9C1174.93 347.61 1174 346.87 1172.97 346.58C1173.82 346.17 1174.5 345.48 1174.5 344.49C1174.5 342.67 1172.74 341.76 1170.82 341.76C1168.79 341.76 1167.23 342.85 1166.89 344.96L1168.57 344.96C1168.79 343.65 1169.71 343.2 1170.92 343.2C1171.98 343.2 1172.81 343.61 1172.81 344.53C1172.81 345.54 1172.12 346.04 1170.99 346.04L1169.53 346.04L1169.53 347.39L1171.07 347.39C1172.44 347.39 1173.18 347.84 1173.18 348.97C1173.18 349.89 1172.31 350.52 1170.94 350.52C1169.56 350.52 1168.65 349.95 1168.38 348.7L1166.72 348.7C1167.06 350.92 1168.78 351.89 1170.85 351.89C1173.01 351.89 1174.93 350.99 1174.93 348.9ZM1176.21 349.1C1176.21 350.88 1177.72 351.89 1179.54 351.89C1181.27 351.89 1182.26 351.33 1182.85 350.32C1182.87 350.9 1182.92 351.3 1182.98 351.66L1184.63 351.66C1184.43 350.74 1184.36 349.64 1184.38 348L1184.4 345.77C1184.42 343.03 1183.23 341.77 1180.55 341.77C1178.67 341.77 1176.8 342.94 1176.66 345.03L1178.35 345.03C1178.42 343.83 1179.19 343.11 1180.56 343.11C1181.79 343.11 1182.76 343.68 1182.76 345.46L1182.76 345.7C1178.8 346.13 1176.21 346.81 1176.21 349.1ZM1201.5 349.1C1201.5 350.88 1203.02 351.89 1204.82 351.89C1206.56 351.89 1207.55 351.33 1208.15 350.32C1208.16 350.9 1208.22 351.3 1208.27 351.66L1209.93 351.66C1209.73 350.74 1209.66 349.64 1209.68 348L1209.68 345.77C1209.71 343.03 1208.52 341.77 1205.84 341.77C1203.97 341.77 1202.1 342.94 1201.94 345.03L1203.65 345.03C1203.72 343.83 1204.49 343.11 1205.86 343.11C1207.07 343.11 1208.06 343.68 1208.06 345.46L1208.06 345.7C1204.1 346.13 1201.5 346.81 1201.5 349.1ZM1311.82 349.1C1311.82 350.88 1313.34 351.89 1315.15 351.89C1316.88 351.89 1317.87 351.33 1318.47 350.32C1318.48 350.9 1318.54 351.3 1318.59 351.66L1320.25 351.66C1320.05 350.74 1319.98 349.64 1320 348L1320.01 345.77C1320.03 343.03 1318.84 341.77 1316.16 341.77C1314.29 341.77 1312.42 342.94 1312.27 345.03L1313.97 345.03C1314.04 343.83 1314.81 343.11 1316.18 343.11C1317.4 343.11 1318.38 343.68 1318.38 345.46L1318.38 345.7C1314.42 346.13 1311.82 346.81 1311.82 349.1ZM1192.84 341.97L1191.19 341.97L1191.19 354.81L1192.84 354.81L1192.84 350.2C1193.43 351.22 1194.43 351.89 1196.01 351.89C1198.24 351.89 1200.15 350.07 1200.15 346.85C1200.15 343.68 1198.24 341.81 1196.01 341.81C1194.43 341.81 1193.43 342.48 1192.84 343.5L1192.84 341.97ZM1231.16 346.85C1231.16 343.34 1228.77 341.81 1226.52 341.81C1224.27 341.81 1221.88 343.34 1221.88 346.85C1221.88 350.36 1224.27 351.89 1226.52 351.89C1228.77 351.89 1231.16 350.36 1231.16 346.85ZM1249.94 346.85C1249.94 343.34 1247.56 341.81 1245.31 341.81C1243.06 341.81 1240.67 343.34 1240.67 346.85C1240.67 350.36 1243.06 351.89 1245.31 351.89C1247.56 351.89 1249.94 350.36 1249.94 346.85ZM1288.91 346.85C1288.91 343.34 1286.51 341.81 1284.26 341.81C1282.01 341.81 1279.62 343.34 1279.62 346.85C1279.62 350.36 1282.01 351.89 1284.26 351.89C1286.51 351.89 1288.91 350.36 1288.91 346.85ZM1236.73 343.39L1240.04 343.39L1240.04 341.97L1231.78 341.97L1231.78 343.39L1235.09 343.39L1235.09 351.66L1236.73 351.66L1236.73 343.39ZM1258.65 344.35L1258.65 351.66L1260.28 351.66L1260.28 341.97L1258.65 341.97L1253.64 349.28L1253.64 341.97L1252 341.97L1252 351.66L1253.64 351.66L1258.65 344.35ZM1297.38 351.66L1299.02 351.66L1299.02 341.97L1297.38 341.97L1297.38 346L1292.59 346L1292.59 341.97L1290.96 341.97L1290.96 351.66L1292.59 351.66L1292.59 347.43L1297.38 347.43L1297.38 351.66ZM1310.84 353.8L1310.84 350.23L1309.49 350.23L1309.49 341.97L1302.94 341.97L1302.82 345.09C1302.68 348.79 1302.11 350.23 1301.01 350.23L1300.57 350.23L1300.57 353.8L1302.16 353.8L1302.16 351.66L1309.25 351.66L1309.25 353.8L1310.84 353.8ZM1195.59 350.49C1194.13 350.49 1192.77 349.41 1192.77 346.85C1192.77 344.29 1194.13 343.21 1195.59 343.21C1197.27 343.21 1198.36 344.53 1198.36 346.85C1198.36 349.17 1197.27 350.49 1195.59 350.49ZM1226.52 350.45C1225.03 350.45 1223.62 349.44 1223.62 346.85C1223.62 344.2 1225.03 343.25 1226.52 343.25C1228.01 343.25 1229.42 344.26 1229.42 346.85C1229.42 349.33 1228.01 350.45 1226.52 350.45ZM1245.31 350.45C1243.81 350.45 1242.41 349.44 1242.41 346.85C1242.41 344.2 1243.81 343.25 1245.31 343.25C1246.8 343.25 1248.21 344.26 1248.21 346.85C1248.21 349.33 1246.8 350.45 1245.31 350.45ZM1284.26 350.45C1282.77 350.45 1281.37 349.44 1281.37 346.85C1281.37 344.2 1282.77 343.25 1284.26 343.25C1285.76 343.25 1287.16 344.26 1287.16 346.85C1287.16 349.33 1285.76 350.45 1284.26 350.45ZM1271.56 343.39L1271.56 350.34C1269.64 350.34 1268.31 349.26 1268.31 346.9C1268.31 344.53 1269.68 343.39 1271.56 343.39ZM1273.19 350.34L1273.19 343.39C1275.13 343.39 1276.43 344.53 1276.43 346.9C1276.43 349.26 1275.06 350.34 1273.19 350.34ZM1307.85 343.39L1307.85 350.23L1303.13 350.23C1303.89 349.51 1304.3 348.11 1304.44 345.25L1304.54 343.39L1307.85 343.39ZM1218.92 347.16C1218.92 349.26 1217.88 350.47 1216.29 350.47C1214.65 350.47 1213.5 349.19 1213.5 347.14C1213.5 344.96 1214.82 343.95 1216.31 343.95C1217.8 343.95 1218.92 345.03 1218.92 347.16ZM1182.89 346.99L1182.89 347.61C1182.89 349.89 1181.43 350.59 1179.9 350.59C1178.73 350.59 1178.03 349.98 1178.03 349.06C1178.03 347.73 1179.92 347.28 1182.89 346.99ZM1208.18 346.99L1208.18 347.61C1208.18 349.89 1206.72 350.59 1205.18 350.59C1204.02 350.59 1203.31 349.98 1203.31 349.06C1203.31 347.73 1205.21 347.28 1208.18 346.99ZM1318.5 346.99L1318.5 347.61C1318.5 349.89 1317.04 350.59 1315.51 350.59C1314.34 350.59 1313.64 349.98 1313.64 349.06C1313.64 347.73 1315.53 347.28 1318.5 346.99ZM1254.99 371.1C1254.99 372.88 1256.51 373.89 1258.31 373.89C1260.05 373.89 1261.04 373.33 1261.64 372.32C1261.65 372.9 1261.71 373.3 1261.76 373.66L1263.42 373.66C1263.22 372.74 1263.15 371.64 1263.17 370L1263.18 367.77C1263.19 365.03 1262.01 363.77 1259.32 363.77C1257.46 363.77 1255.59 364.94 1255.43 367.03L1257.14 367.03C1257.21 365.83 1257.98 365.11 1259.35 365.11C1260.56 365.11 1261.55 365.68 1261.55 367.46L1261.55 367.7C1257.59 368.13 1254.99 368.81 1254.99 371.1ZM1214.5 369.35L1221.94 369.35C1222.15 366.28 1220.4 363.81 1217.43 363.81C1214.79 363.81 1212.73 365.75 1212.73 368.83C1212.73 371.69 1214.43 373.89 1217.49 373.89C1219.84 373.89 1221.39 372.5 1221.81 370.85L1220.13 370.85C1219.72 371.8 1218.93 372.45 1217.49 372.45C1216.06 372.45 1214.55 371.44 1214.5 369.35ZM1225.6 363.97L1223.97 363.97L1223.97 376.81L1225.6 376.81L1225.6 372.2C1226.19 373.22 1227.21 373.89 1228.77 373.89C1231 373.89 1232.91 372.07 1232.91 368.85C1232.91 365.68 1231 363.81 1228.77 363.81C1227.21 363.81 1226.19 364.48 1225.6 365.5L1225.6 363.97ZM1236.07 369.35L1243.54 369.35C1243.73 366.28 1241.99 363.81 1239.02 363.81C1236.37 363.81 1234.31 365.75 1234.31 368.83C1234.31 371.69 1236.01 373.89 1239.06 373.89C1241.43 373.89 1242.98 372.5 1243.41 370.85L1241.72 370.85C1241.3 371.8 1240.51 372.45 1239.06 372.45C1237.65 372.45 1236.14 371.44 1236.07 369.35ZM1253.61 367.21C1253.38 365.56 1251.93 363.81 1249.56 363.81C1246.69 363.81 1244.88 365.95 1244.88 368.83C1244.88 371.78 1246.61 373.89 1249.4 373.89C1251.67 373.89 1253.38 372.32 1253.72 370.51L1252.03 370.51C1251.8 371.51 1250.84 372.45 1249.46 372.45C1248.02 372.45 1246.67 371.26 1246.67 368.81C1246.67 366.38 1248.02 365.25 1249.46 365.25C1250.73 365.25 1251.72 366.06 1251.96 367.21L1253.61 367.21ZM1174.43 366.35L1174.43 373.66L1176.06 373.66L1176.06 363.97L1174.43 363.97L1169.42 371.28L1169.42 363.97L1167.79 363.97L1167.79 373.66L1169.42 373.66L1174.43 366.35ZM1189.76 366.35L1189.76 373.66L1191.39 373.66L1191.39 363.97L1189.76 363.97L1184.75 371.28L1184.75 363.97L1183.11 363.97L1183.11 373.66L1184.75 373.66L1189.76 366.35ZM1200.6 373.66L1202.24 373.66L1202.24 363.97L1200.6 363.97L1200.6 368L1195.81 368L1195.81 363.97L1194.17 363.97L1194.17 373.66L1195.81 373.66L1195.81 369.43L1200.6 369.43L1200.6 373.66ZM1208.82 365.39L1212.15 365.39L1212.15 363.97L1203.88 363.97L1203.88 365.39L1207.19 365.39L1207.19 373.66L1208.82 373.66L1208.82 365.39ZM1276.3 373.66L1276.3 363.97L1273.96 363.97L1271.06 371.42L1268.05 363.97L1265.71 363.97L1265.71 373.66L1267.31 373.66L1267.31 365.99L1270.41 373.66L1271.57 373.66L1274.69 365.88L1274.69 373.66L1276.3 373.66ZM1285.72 366.35L1285.72 373.66L1287.35 373.66L1287.35 363.97L1285.72 363.97L1280.71 371.28L1280.71 363.97L1279.06 363.97L1279.06 373.66L1280.71 373.66L1285.72 366.35ZM1214.52 367.95C1214.66 366.01 1215.99 365.21 1217.43 365.21C1219.18 365.21 1220.17 366.58 1220.22 367.95L1214.52 367.95ZM1228.36 372.49C1226.9 372.49 1225.53 371.41 1225.53 368.85C1225.53 366.29 1226.9 365.21 1228.36 365.21C1230.03 365.21 1231.13 366.53 1231.13 368.85C1231.13 371.17 1230.03 372.49 1228.36 372.49ZM1236.1 367.95C1236.25 366.01 1237.57 365.21 1239.02 365.21C1240.76 365.21 1241.75 366.58 1241.81 367.95L1236.1 367.95ZM1261.67 368.99L1261.67 369.61C1261.67 371.89 1260.21 372.59 1258.68 372.59C1257.51 372.59 1256.81 371.98 1256.81 371.06C1256.81 369.73 1258.69 369.28 1261.67 368.99ZM1195.66 382.61L1194.38 382.61C1194.31 383.18 1193.86 383.7 1192.79 383.7C1191.73 383.7 1191.3 383.18 1191.23 382.61L1189.94 382.61C1190.04 383.69 1190.8 384.78 1192.78 384.78C1194.82 384.78 1195.51 383.69 1195.66 382.61ZM1177.86 393.1C1177.86 394.88 1179.37 395.89 1181.18 395.89C1182.92 395.89 1183.91 395.33 1184.5 394.32C1184.52 394.9 1184.56 395.3 1184.63 395.66L1186.28 395.66C1186.09 394.74 1186.01 393.64 1186.03 392L1186.05 389.77C1186.06 387.03 1184.88 385.77 1182.19 385.77C1180.32 385.77 1178.44 386.94 1178.31 389.03L1180 389.03C1180.06 387.83 1180.85 387.11 1182.22 387.11C1183.43 387.11 1184.41 387.68 1184.41 389.46L1184.41 389.7C1180.44 390.13 1177.86 390.81 1177.86 393.1ZM1243.68 390.85C1243.68 387.34 1241.28 385.81 1239.03 385.81C1236.78 385.81 1234.39 387.34 1234.39 390.85C1234.39 394.36 1236.78 395.89 1239.03 395.89C1241.28 395.89 1243.68 394.36 1243.68 390.85ZM1175.76 395.66L1175.76 385.97L1167.79 385.97L1167.79 395.66L1169.42 395.66L1169.42 387.39L1174.12 387.39L1174.12 395.66L1175.76 395.66ZM1195.22 388.35L1195.22 395.66L1196.86 395.66L1196.86 385.97L1195.22 385.97L1190.22 393.28L1190.22 385.97L1188.57 385.97L1188.57 395.66L1190.22 395.66L1195.22 388.35ZM1212.92 397.98L1212.92 394.23L1211.56 394.23L1211.56 385.97L1209.93 385.97L1209.93 394.23L1206.42 394.23L1206.42 385.97L1204.79 385.97L1204.79 394.23L1201.28 394.23L1201.28 385.97L1199.64 385.97L1199.64 395.66L1211.37 395.66L1211.37 397.98L1212.92 397.98ZM1221.22 388.35L1221.22 395.66L1222.86 395.66L1222.86 385.97L1221.22 385.97L1216.22 393.28L1216.22 385.97L1214.57 385.97L1214.57 395.66L1216.22 395.66L1221.22 388.35ZM1228.53 391.35L1231.86 395.66L1233.9 395.66L1229.87 390.54L1233.52 385.97L1231.57 385.97L1228.5 389.93L1227.29 389.93L1227.29 385.97L1225.64 385.97L1225.64 395.66L1227.29 395.66L1227.29 391.35L1228.53 391.35ZM1249.93 385.97L1245.73 385.97L1245.73 395.66L1250.23 395.66C1252.3 395.66 1253.86 394.85 1253.86 392.83C1253.86 391.53 1253.13 390.85 1252.12 390.56C1253.02 390.18 1253.47 389.46 1253.47 388.44C1253.47 386.48 1251.88 385.97 1249.93 385.97ZM1239.03 394.45C1237.54 394.45 1236.14 393.44 1236.14 390.85C1236.14 388.2 1237.54 387.25 1239.03 387.25C1240.53 387.25 1241.93 388.26 1241.93 390.85C1241.93 393.33 1240.53 394.45 1239.03 394.45ZM1249.82 390.04L1247.37 390.04L1247.37 387.39L1249.78 387.39C1251 387.39 1251.76 387.61 1251.76 388.62C1251.76 389.72 1251.04 390.04 1249.82 390.04ZM1184.54 390.99L1184.54 391.61C1184.54 393.89 1183.07 394.59 1181.55 394.59C1180.38 394.59 1179.68 393.98 1179.68 393.06C1179.68 391.73 1181.56 391.28 1184.54 390.99ZM1247.37 394.23L1247.37 391.39L1249.92 391.39C1251.43 391.39 1252.15 391.73 1252.15 392.81C1252.15 393.82 1251.42 394.23 1249.98 394.23L1247.37 394.23Z" fill="#EFEFEF" fill-opacity="1.000000" fill-rule="evenodd"/>
				</g>
				<rect id="Frame 196" rx="8.000000" width="265.600037" height="320.000000" transform="translate(1134.400391 112.000000)" stroke="#316CED" stroke-opacity="1.000000" stroke-width="1.000000"/>
			</g>
		</g>
		<g filter="url(#filter_1_4594_dd)">
			<ellipse id="Ellipse 215" rx="297.727264" ry="493.457123" transform="matrix(-0.471632 0.881795 -0.881795 -0.471632 52.5479 799.265)" fill="#3179FF" fill-opacity="0.500000"/>
		</g>
	</g>
</svg>
