<svg width="768.000000" height="372.000000" viewBox="0 0 768 372" fill="none" xmlns="http://www.w3.org/2000/svg" xmlns:xlink="http://www.w3.org/1999/xlink">
	<desc>
			Created with Pixso.
	</desc>
	<defs>
		<filter id="filter_47_1459_dd" x="194.043945" y="-118.640625" width="906.851196" height="842.507812" filterUnits="userSpaceOnUse" color-interpolation-filters="sRGB">
			<feFlood flood-opacity="0" result="BackgroundImageFix"/>
			<feBlend mode="normal" in="SourceGraphic" in2="BackgroundImageFix" result="shape"/>
			<feGaussianBlur stdDeviation="66.6667" result="effect_layerBlur_1"/>
		</filter>
		<filter id="filter_47_1460_dd" x="-432.507935" y="-373.685547" width="875.208252" height="780.640625" filterUnits="userSpaceOnUse" color-interpolation-filters="sRGB">
			<feFlood flood-opacity="0" result="BackgroundImageFix"/>
			<feBlend mode="normal" in="SourceGraphic" in2="BackgroundImageFix" result="shape"/>
			<feGaussianBlur stdDeviation="66.6667" result="effect_layerBlur_1"/>
		</filter>
		<clipPath id="clip1_1762">
			<rect id="Banner CTA Tablet" rx="0.000000" width="767.000000" height="371.000000" transform="translate(0.500000 0.500000)" fill="white" fill-opacity="0"/>
		</clipPath>
	</defs>
	<g clip-path="url(#clip1_1762)">
		<rect id="Rectangle 240654859" x="718.000000" y="64.000000" rx="8.000000" width="59.000000" height="72.000000" fill="#316CED" fill-opacity="1.000000"/>
		<rect id="Rectangle 10" x="388.000000" y="332.902344" rx="8.000000" width="59.789368" height="114.453941" fill="#316CED" fill-opacity="1.000000"/>
		<rect id="Rectangle 240654866" rx="8.000000" width="114.453941" height="97.940704" transform="matrix(-4.37114e-08 1 1 4.37114e-08 598.131 332.902)" fill="#316CED" fill-opacity="1.000000"/>
		<rect id="Rectangle 11" x="598.130859" y="229.248047" rx="8.000000" width="61.497635" height="43.845543" fill="#316CED" fill-opacity="1.000000"/>
		<rect id="Rectangle 240654867" x="598.000000" y="186.173828" rx="8.000000" width="43.000000" height="38.000000" transform="rotate(90 598.000000 186.173828)" fill="#316CED" fill-opacity="1.000000"/>
		<rect id="Rectangle 240654861" x="598.351562" y="273.082031" rx="8.000000" width="59.703270" height="150.556061" transform="rotate(90 598.351562 273.082031)" fill="#316CED" fill-opacity="1.000000"/>
		<rect id="Rectangle 240654860" x="659.052734" y="135.781250" rx="8.000000" width="59.703270" height="93.448578" fill="#316CED" fill-opacity="1.000000"/>
		<g filter="url(#filter_47_1459_dd)">
			<ellipse id="Ellipse 217" rx="158.851517" ry="296.482147" transform="matrix(0.615104 0.788446 -0.788446 0.615104 647.47 302.613)" fill="#3179FF" fill-opacity="0.300000"/>
		</g>
		<g filter="url(#filter_47_1460_dd)">
			<ellipse id="Ellipse 218" rx="68.828766" ry="296.482147" transform="matrix(0.615104 0.788446 -0.788446 0.615104 5.09619 16.6348)" fill="#3179FF" fill-opacity="0.500000"/>
		</g>
		<g opacity="0.000000">
			<path id="Доверьте свои активы Восхождению" d="M47.04 98.17L47.04 90.52L44.22 90.52L44.22 70.14L29.6 70.14L29.5 76.92C29.4 84.31 28.48 90.52 25.79 90.52L24.8 90.52L24.8 98.17L27.8 98.17L27.8 93.34L44.03 93.34L44.03 98.17L47.04 98.17ZM40.96 72.95L40.96 90.52L29.95 90.52C31.39 88.57 32.57 84.38 32.67 77.98L32.73 72.95L40.96 72.95ZM253.19 88.79C253.19 91.96 255.88 93.75 259.11 93.75C262.18 93.75 263.94 92.76 265 90.97C265.03 91.99 265.13 92.7 265.22 93.34L268.17 93.34C267.81 91.7 267.69 89.75 267.72 86.84L267.75 82.87C267.78 78.01 265.67 75.77 260.9 75.77C257.57 75.77 254.25 77.85 253.99 81.56L257 81.56C257.13 79.42 258.5 78.14 260.93 78.14C263.11 78.14 264.84 79.16 264.84 82.33L264.84 82.74C257.8 83.51 253.19 84.73 253.19 88.79ZM64.8 84.79C64.8 78.55 60.55 75.83 56.55 75.83C52.55 75.83 48.29 78.55 48.29 84.79C48.29 91.03 52.55 93.75 56.55 93.75C60.55 93.75 64.8 91.03 64.8 84.79ZM86.83 85.69L100.08 85.69C100.43 80.22 97.33 75.83 92.05 75.83C87.34 75.83 83.7 79.29 83.7 84.76C83.7 89.85 86.7 93.75 92.14 93.75C96.34 93.75 99.09 91.29 99.86 88.34L96.85 88.34C96.11 90.04 94.7 91.19 92.14 91.19C89.62 91.19 86.93 89.4 86.83 85.69ZM105.94 76.12L103.02 76.12L103.02 98.94L105.94 98.94L105.94 90.74C106.99 92.57 108.78 93.75 111.57 93.75C115.54 93.75 118.93 90.52 118.93 84.79C118.93 79.16 115.54 75.83 111.57 75.83C108.78 75.83 106.99 77.01 105.94 78.84L105.94 76.12ZM152.62 85.69L165.86 85.69C166.22 80.22 163.11 75.83 157.83 75.83C153.13 75.83 149.48 79.29 149.48 84.76C149.48 89.85 152.49 93.75 157.93 93.75C162.12 93.75 164.87 91.29 165.64 88.34L162.63 88.34C161.89 90.04 160.49 91.19 157.93 91.19C155.4 91.19 152.71 89.4 152.62 85.69ZM189.94 81.88C189.52 78.94 186.96 75.83 182.74 75.83C177.65 75.83 174.42 79.64 174.42 84.76C174.42 90.01 177.49 93.75 182.45 93.75C186.48 93.75 189.52 90.97 190.13 87.74L187.12 87.74C186.71 89.53 185.01 91.19 182.55 91.19C179.99 91.19 177.59 89.08 177.59 84.73C177.59 80.41 179.99 78.39 182.55 78.39C184.82 78.39 186.58 79.83 186.99 81.88L189.94 81.88ZM225.4 84.79C225.4 78.55 221.15 75.83 217.15 75.83C213.15 75.83 208.89 78.55 208.89 84.79C208.89 91.03 213.15 93.75 217.15 93.75C221.15 93.75 225.4 91.03 225.4 84.79ZM75.29 76.12L67.8 76.12L67.8 93.34L75.8 93.34C79.48 93.34 82.27 91.9 82.27 88.31C82.27 86.01 80.96 84.79 79.16 84.28C80.76 83.61 81.56 82.33 81.56 80.5C81.56 77.01 78.75 76.12 75.29 76.12ZM128.89 82.2L124.8 82.2L124.8 76.12L121.88 76.12L121.88 93.34L128.86 93.34C132.83 93.34 135.32 91.9 135.32 87.64C135.32 83.96 133.4 82.2 128.89 82.2ZM143.19 78.65L149.07 78.65L149.07 76.12L134.39 76.12L134.39 78.65L140.27 78.65L140.27 93.34L143.19 93.34L143.19 78.65ZM200.42 76.12L192.93 76.12L192.93 93.34L200.93 93.34C204.61 93.34 207.4 91.9 207.4 88.31C207.4 86.01 206.09 84.79 204.29 84.28C205.89 83.61 206.69 82.33 206.69 80.5C206.69 77.01 203.88 76.12 200.42 76.12ZM240.21 80.34L240.21 93.34L243.12 93.34L243.12 76.12L240.21 76.12L231.32 89.11L231.32 76.12L228.4 76.12L228.4 93.34L231.32 93.34L240.21 80.34ZM276.76 85.69L282.68 93.34L286.3 93.34L279.13 84.25L285.63 76.12L282.17 76.12L276.7 83.16L274.55 83.16L274.55 76.12L271.61 76.12L271.61 93.34L274.55 93.34L274.55 85.69L276.76 85.69ZM295.25 78.65L301.14 78.65L301.14 76.12L286.45 76.12L286.45 78.65L292.34 78.65L292.34 93.34L295.25 93.34L295.25 78.65ZM315.26 80.34L315.26 93.34L318.17 93.34L318.17 76.12L315.26 76.12L306.37 89.11L306.37 76.12L303.45 76.12L303.45 93.34L306.37 93.34L315.26 80.34ZM329.96 76.12L322.47 76.12L322.47 93.34L330.47 93.34C334.15 93.34 336.93 91.9 336.93 88.31C336.93 86.01 335.62 84.79 333.83 84.28C335.43 83.61 336.23 82.33 336.23 80.5C336.23 77.01 333.41 76.12 329.96 76.12ZM339.71 93.34L345.91 93.34C349.85 93.34 352.38 91.9 352.38 87.64C352.38 83.96 350.43 82.2 345.95 82.2L342.62 82.2L342.62 76.12L339.71 76.12L339.71 93.34ZM355.23 93.34L358.14 93.34L358.14 76.12L355.23 76.12L355.23 93.34ZM86.86 83.19C87.12 79.74 89.49 78.33 92.05 78.33C95.15 78.33 96.91 80.76 97.01 83.19L86.86 83.19ZM110.83 91.26C108.24 91.26 105.81 89.34 105.81 84.79C105.81 80.25 108.24 78.33 110.83 78.33C113.81 78.33 115.76 80.66 115.76 84.79C115.76 88.92 113.81 91.26 110.83 91.26ZM152.65 83.19C152.9 79.74 155.27 78.33 157.83 78.33C160.94 78.33 162.7 80.76 162.79 83.19L152.65 83.19ZM56.55 91.19C53.89 91.19 51.39 89.4 51.39 84.79C51.39 80.09 53.89 78.39 56.55 78.39C59.2 78.39 61.7 80.18 61.7 84.79C61.7 89.21 59.2 91.19 56.55 91.19ZM217.15 91.19C214.49 91.19 211.99 89.4 211.99 84.79C211.99 80.09 214.49 78.39 217.15 78.39C219.8 78.39 222.3 80.18 222.3 84.79C222.3 89.21 219.8 91.19 217.15 91.19ZM75.1 83.35L70.72 83.35L70.72 78.65L75 78.65C77.18 78.65 78.52 79.03 78.52 80.82C78.52 82.78 77.24 83.35 75.1 83.35ZM200.23 83.35L195.85 83.35L195.85 78.65L200.13 78.65C202.31 78.65 203.65 79.03 203.65 80.82C203.65 82.78 202.37 83.35 200.23 83.35ZM329.77 83.35L325.38 83.35L325.38 78.65L329.67 78.65C331.85 78.65 333.19 79.03 333.19 80.82C333.19 82.78 331.91 83.35 329.77 83.35ZM128.6 90.81L124.8 90.81L124.8 84.73L128.54 84.73C131.13 84.73 132.48 85.37 132.48 87.64C132.48 89.94 131.16 90.81 128.6 90.81ZM342.62 90.81L342.62 84.73L345.56 84.73C348.25 84.73 349.53 85.34 349.53 87.64C349.53 89.98 348.22 90.81 345.66 90.81L342.62 90.81ZM265.06 85.05L265.06 86.14C265.06 90.2 262.47 91.45 259.75 91.45C257.67 91.45 256.42 90.36 256.42 88.73C256.42 86.36 259.78 85.56 265.06 85.05ZM70.72 90.81L70.72 85.75L75.26 85.75C77.95 85.75 79.23 86.36 79.23 88.28C79.23 90.07 77.92 90.81 75.36 90.81L70.72 90.81ZM195.85 90.81L195.85 85.75L200.39 85.75C203.08 85.75 204.36 86.36 204.36 88.28C204.36 90.07 203.05 90.81 200.49 90.81L195.85 90.81ZM325.38 90.81L325.38 85.75L329.93 85.75C332.61 85.75 333.89 86.36 333.89 88.28C333.89 90.07 332.58 90.81 330.02 90.81L325.38 90.81ZM27.07 105.14L27.07 128.34L36.22 128.34C40.86 128.34 44.54 126.42 44.54 121.49C44.54 118.64 43.23 116.91 41.02 115.98C42.65 115.06 43.58 113.07 43.58 110.86C43.58 106.26 39.74 105.14 35.42 105.14L27.07 105.14ZM30.33 115.06L30.33 107.89L35.93 107.89C38.52 107.89 40.28 108.91 40.28 111.31C40.28 114.03 38.62 115.06 35.93 115.06L30.33 115.06ZM62.93 119.79C62.93 113.55 58.67 110.83 54.67 110.83C50.67 110.83 46.41 113.55 46.41 119.79C46.41 126.03 50.67 128.75 54.67 128.75C58.67 128.75 62.93 126.03 62.93 119.79ZM80.36 116.88C79.94 113.94 77.38 110.83 73.16 110.83C68.07 110.83 64.83 114.64 64.83 119.76C64.83 125.01 67.91 128.75 72.87 128.75C76.9 128.75 79.94 125.97 80.55 122.74L77.54 122.74C77.12 124.53 75.43 126.19 72.96 126.19C70.4 126.19 68 124.08 68 119.73C68 115.41 70.4 113.39 72.96 113.39C75.24 113.39 77 114.83 77.41 116.88L80.36 116.88ZM113.73 119.79C113.73 113.55 109.47 110.83 105.47 110.83C101.47 110.83 97.21 113.55 97.21 119.79C97.21 126.03 101.47 128.75 105.47 128.75C109.47 128.75 113.73 126.03 113.73 119.79ZM161.74 120.69L174.99 120.69C175.34 115.22 172.24 110.83 166.96 110.83C162.25 110.83 158.6 114.29 158.6 119.76C158.6 124.85 161.61 128.75 167.05 128.75C171.24 128.75 174 126.29 174.76 123.34L171.76 123.34C171.02 125.04 169.61 126.19 167.05 126.19C164.52 126.19 161.84 124.4 161.74 120.69ZM237.96 119.79C237.96 113.55 233.7 110.83 229.7 110.83C226.18 110.83 222.57 113.07 221.96 118.29L218.47 118.29L218.47 111.12L215.56 111.12L215.56 128.34L218.47 128.34L218.47 120.82L221.9 120.82C222.31 126.32 226.12 128.75 229.7 128.75C233.7 128.75 237.96 126.03 237.96 119.79ZM90.53 119.34L96.38 111.12L93.12 111.12L88.9 117.04L84.7 111.12L81.22 111.12L87.17 119.47L80.83 128.34L84.16 128.34L88.8 121.78L93.47 128.34L96.96 128.34L90.53 119.34ZM139.27 128.34L132.97 119.25L138.7 111.12L135.34 111.12L130.5 118.19L128.07 118.19L128.07 111.12L125.16 111.12L125.16 118.19L122.73 118.19L117.93 111.12L114.54 111.12L120.3 119.34L113.96 128.34L117.51 128.34L122.73 120.72L125.16 120.72L125.16 128.34L128.07 128.34L128.07 120.72L130.6 120.72L135.78 128.34L139.27 128.34ZM157.65 132.14L157.65 125.81L155.25 125.81L155.25 111.12L143.64 111.12L143.41 116.66C143.16 123.25 142.13 125.81 140.18 125.81L139.41 125.81L139.41 132.14L142.23 132.14L142.23 128.34L154.84 128.34L154.84 132.14L157.65 132.14ZM189.36 128.34L192.27 128.34L192.27 111.12L189.36 111.12L189.36 118.29L180.85 118.29L180.85 111.12L177.93 111.12L177.93 128.34L180.85 128.34L180.85 120.82L189.36 120.82L189.36 128.34ZM208.35 115.34L208.35 128.34L211.26 128.34L211.26 111.12L208.35 111.12L199.46 124.11L199.46 111.12L196.54 111.12L196.54 128.34L199.46 128.34L208.35 115.34ZM161.77 118.19C162.03 114.74 164.4 113.33 166.96 113.33C170.06 113.33 171.82 115.76 171.92 118.19L161.77 118.19ZM54.67 126.19C52.01 126.19 49.52 124.4 49.52 119.79C49.52 115.09 52.01 113.39 54.67 113.39C57.33 113.39 59.82 115.18 59.82 119.79C59.82 124.21 57.33 126.19 54.67 126.19ZM105.47 126.19C102.81 126.19 100.32 124.4 100.32 119.79C100.32 115.09 102.81 113.39 105.47 113.39C108.13 113.39 110.62 115.18 110.62 119.79C110.62 124.21 108.13 126.19 105.47 126.19ZM234.86 119.79C234.86 124.21 232.36 126.19 229.7 126.19C227.3 126.19 224.97 124.4 224.97 119.79C224.97 115.09 227.3 113.39 229.7 113.39C232.36 113.39 234.86 115.18 234.86 119.79ZM152.34 113.65L152.34 125.81L143.96 125.81C145.3 124.53 146.04 122.03 146.29 116.94L146.45 113.65L152.34 113.65ZM30.33 125.58L30.33 117.65L36.06 117.65C39.55 117.65 41.18 118.8 41.18 121.52C41.18 124.18 39.58 125.58 36.25 125.58L30.33 125.58Z" fill="#EFEFEF" fill-opacity="1.000000" fill-rule="evenodd"/>
		</g>
		<g opacity="0.000000">
			<path id="Получите консультацию с нашим специалистом и ответы на интересущие вопросы." d="M32.96 173.42L34.59 173.42L34.59 161.82L25.53 161.82L25.53 173.42L27.16 173.42L27.16 163.22L32.96 163.22L32.96 173.42ZM164.43 171.14C164.43 172.73 165.77 173.62 167.39 173.62C168.93 173.62 169.81 173.13 170.33 172.23C170.35 172.74 170.4 173.1 170.45 173.42L171.92 173.42C171.74 172.6 171.68 171.62 171.69 170.17L171.71 168.18C171.73 165.75 170.67 164.63 168.29 164.63C166.62 164.63 164.96 165.67 164.83 167.53L166.33 167.53C166.4 166.46 167.09 165.82 168.3 165.82C169.39 165.82 170.25 166.33 170.25 167.91L170.25 168.12C166.73 168.5 164.43 169.11 164.43 171.14ZM229.31 171.14C229.31 172.73 230.65 173.62 232.27 173.62C233.8 173.62 234.68 173.13 235.21 172.23C235.23 172.74 235.28 173.1 235.32 173.42L236.8 173.42C236.62 172.6 236.56 171.62 236.57 170.17L236.59 168.18C236.6 165.75 235.55 164.63 233.16 164.63C231.5 164.63 229.84 165.67 229.71 167.53L231.21 167.53C231.28 166.46 231.96 165.82 233.18 165.82C234.27 165.82 235.13 166.33 235.13 167.91L235.13 168.12C231.61 168.5 229.31 169.11 229.31 171.14ZM320.73 171.14C320.73 172.73 322.08 173.62 323.69 173.62C325.23 173.62 326.11 173.13 326.64 172.23C326.65 172.74 326.7 173.1 326.75 173.42L328.22 173.42C328.04 172.6 327.98 171.62 328 170.17L328.01 168.18C328.03 165.75 326.97 164.63 324.59 164.63C322.92 164.63 321.26 165.67 321.13 167.53L322.64 167.53C322.7 166.46 323.39 165.82 324.6 165.82C325.69 165.82 326.56 166.33 326.56 167.91L326.56 168.12C323.04 168.5 320.73 169.11 320.73 171.14ZM44.65 169.14C44.65 166.02 42.52 164.66 40.52 164.66C38.52 164.66 36.39 166.02 36.39 169.14C36.39 172.26 38.52 173.62 40.52 173.62C42.52 173.62 44.65 172.26 44.65 169.14ZM88.37 169.59L94.99 169.59C95.17 166.86 93.62 164.66 90.98 164.66C88.62 164.66 86.8 166.39 86.8 169.13C86.8 171.67 88.3 173.62 91.02 173.62C93.12 173.62 94.5 172.39 94.88 170.92L93.38 170.92C93.01 171.77 92.3 172.34 91.02 172.34C89.76 172.34 88.42 171.45 88.37 169.59ZM115.66 169.14C115.66 166.02 113.53 164.66 111.53 164.66C109.53 164.66 107.4 166.02 107.4 169.14C107.4 172.26 109.53 173.62 111.53 173.62C113.53 173.62 115.66 172.26 115.66 169.14ZM133.55 167.69C133.35 166.22 132.07 164.66 129.95 164.66C127.41 164.66 125.79 166.57 125.79 169.13C125.79 171.75 127.33 173.62 129.81 173.62C131.83 173.62 133.35 172.23 133.65 170.62L132.14 170.62C131.94 171.51 131.09 172.34 129.86 172.34C128.58 172.34 127.38 171.29 127.38 169.11C127.38 166.95 128.58 165.94 129.86 165.94C130.99 165.94 131.87 166.66 132.08 167.69L133.55 167.69ZM203.54 169.14C203.54 166.02 201.42 164.66 199.42 164.66C197.66 164.66 195.85 165.78 195.54 168.39L193.8 168.39L193.8 164.81L192.34 164.81L192.34 173.42L193.8 173.42L193.8 169.66L195.51 169.66C195.72 172.41 197.62 173.62 199.42 173.62C201.42 173.62 203.54 172.26 203.54 169.14ZM215.62 167.69C215.41 166.22 214.13 164.66 212.02 164.66C209.48 164.66 207.86 166.57 207.86 169.13C207.86 171.75 209.4 173.62 211.88 173.62C213.89 173.62 215.41 172.23 215.72 170.62L214.21 170.62C214 171.51 213.16 172.34 211.92 172.34C210.64 172.34 209.44 171.29 209.44 169.11C209.44 166.95 210.64 165.94 211.92 165.94C213.06 165.94 213.94 166.66 214.15 167.69L215.62 167.69ZM282.9 167.69C282.69 166.22 281.41 164.66 279.3 164.66C276.76 164.66 275.14 166.57 275.14 169.13C275.14 171.75 276.68 173.62 279.16 173.62C281.18 173.62 282.69 172.23 283 170.62L281.49 170.62C281.29 171.51 280.44 172.34 279.21 172.34C277.93 172.34 276.73 171.29 276.73 169.11C276.73 166.95 277.93 165.94 279.21 165.94C280.34 165.94 281.22 166.66 281.43 167.69L282.9 167.69ZM294.52 169.59L301.15 169.59C301.32 166.86 299.77 164.66 297.13 164.66C294.78 164.66 292.96 166.39 292.96 169.13C292.96 171.67 294.46 173.62 297.18 173.62C299.28 173.62 300.65 172.39 301.04 170.92L299.53 170.92C299.16 171.77 298.46 172.34 297.18 172.34C295.92 172.34 294.57 171.45 294.52 169.59ZM355.48 167.69C355.28 166.22 354 164.66 351.88 164.66C349.34 164.66 347.72 166.57 347.72 169.13C347.72 171.75 349.26 173.62 351.74 173.62C353.76 173.62 355.28 172.23 355.58 170.62L354.08 170.62C353.87 171.51 353.02 172.34 351.79 172.34C350.51 172.34 349.31 171.29 349.31 169.11C349.31 166.95 350.51 165.94 351.79 165.94C352.92 165.94 353.8 166.66 354.01 167.69L355.48 167.69ZM371.54 169.14C371.54 166.02 369.42 164.66 367.42 164.66C365.42 164.66 363.29 166.02 363.29 169.14C363.29 172.26 365.42 173.62 367.42 173.62C369.42 173.62 371.54 172.26 371.54 169.14ZM52.82 173.42L52.82 164.81L47.08 164.81L46.95 167.75C46.78 171.32 46.04 172.15 45.27 172.15L45.11 172.15L45.11 173.42L45.38 173.42C47.38 173.42 48.14 171.62 48.34 168.15L48.47 166.07L51.37 166.07L51.37 173.42L52.82 173.42ZM54.46 175L54.46 176.22L55.21 176.22C57.15 176.22 57.56 175.64 58.2 173.78L61.27 164.81L59.75 164.81L57.63 171.45L55.43 164.81L53.82 164.81L56.92 173.42L56.86 173.59C56.47 174.94 56.01 175 55.05 175L54.46 175ZM67.14 173.42L68.6 173.42L68.6 164.81L67.14 164.81L67.14 168.73C66.34 168.92 65.67 169.02 65.11 169.02C63.89 169.02 63.28 168.58 63.28 167.3L63.28 164.81L61.83 164.81L61.83 167.61C61.83 169.48 62.77 170.28 64.58 170.28C65.36 170.28 66.13 170.17 67.14 169.93L67.14 173.42ZM76.64 166.92L76.64 173.42L78.1 173.42L78.1 164.81L76.64 164.81L72.19 171.3L72.19 164.81L70.74 164.81L70.74 173.42L72.19 173.42L76.64 166.92ZM83.65 166.07L86.6 166.07L86.6 164.81L79.25 164.81L79.25 166.07L82.2 166.07L82.2 173.42L83.65 173.42L83.65 166.07ZM102.52 169.59L105.48 173.42L107.29 173.42L103.7 168.87L106.95 164.81L105.22 164.81L102.49 168.33L101.41 168.33L101.41 164.81L99.94 164.81L99.94 173.42L101.41 173.42L101.41 169.59L102.52 169.59ZM122.87 173.42L124.33 173.42L124.33 164.81L122.87 164.81L122.87 168.39L118.62 168.39L118.62 164.81L117.16 164.81L117.16 173.42L118.62 173.42L118.62 169.66L122.87 169.66L122.87 173.42ZM134.46 175L134.46 176.22L135.21 176.22C137.15 176.22 137.57 175.64 138.21 173.78L141.28 164.81L139.76 164.81L137.63 171.45L135.44 164.81L133.82 164.81L136.92 173.42L136.86 173.59C136.48 174.94 136.01 175 135.05 175L134.46 175ZM148.58 173.42L148.58 164.81L142.83 164.81L142.71 167.75C142.53 171.32 141.79 172.15 141.03 172.15L140.87 172.15L140.87 173.42L141.14 173.42C143.14 173.42 143.89 171.62 144.1 168.15L144.23 166.07L147.12 166.07L147.12 173.42L148.58 173.42ZM154.23 167.85L152.18 167.85L152.18 164.81L150.72 164.81L150.72 173.42L154.21 173.42C156.2 173.42 157.44 172.7 157.44 170.57C157.44 168.73 156.48 167.85 154.23 167.85ZM161.37 166.07L164.32 166.07L164.32 164.81L156.97 164.81L156.97 166.07L159.92 166.07L159.92 173.42L161.37 173.42L161.37 166.07ZM181.69 172.15L180.49 172.15L180.49 164.81L179.03 164.81L179.03 172.15L175.1 172.15L175.1 164.81L173.64 164.81L173.64 173.42L180.31 173.42L180.31 175.48L181.69 175.48L181.69 172.15ZM188.74 166.92L188.74 173.42L190.19 173.42L190.19 164.81L188.74 164.81L184.29 171.3L184.29 164.81L182.83 164.81L182.83 173.42L184.29 173.42L188.74 166.92ZM226.31 173.42L227.76 173.42L227.76 164.81L226.31 164.81L226.31 168.39L222.05 168.39L222.05 164.81L220.59 164.81L220.59 173.42L222.05 173.42L222.05 169.66L226.31 169.66L226.31 173.42ZM249.12 173.42L249.12 164.81L247.67 164.81L247.67 172.15L244.55 172.15L244.55 164.81L243.09 164.81L243.09 172.15L239.97 172.15L239.97 164.81L238.52 164.81L238.52 173.42L249.12 173.42ZM257.18 166.92L257.18 173.42L258.63 173.42L258.63 164.81L257.18 164.81L252.73 171.3L252.73 164.81L251.27 164.81L251.27 173.42L252.73 173.42L257.18 166.92ZM270.19 173.42L270.19 164.81L268.11 164.81L265.54 171.43L262.86 164.81L260.78 164.81L260.78 173.42L262.21 173.42L262.21 166.6L264.96 173.42L266 173.42L268.77 166.5L268.77 173.42L270.19 173.42ZM291.49 173.42L291.49 164.81L284.4 164.81L284.4 173.42L285.86 173.42L285.86 166.07L290.03 166.07L290.03 173.42L291.49 173.42ZM310.67 172.15L309.47 172.15L309.47 164.81L308.01 164.81L308.01 172.15L304.08 172.15L304.08 164.81L302.62 164.81L302.62 173.42L309.29 173.42L309.29 175.48L310.67 175.48L310.67 172.15ZM317.72 166.92L317.72 173.42L319.18 173.42L319.18 164.81L317.72 164.81L313.27 171.3L313.27 164.81L311.82 164.81L311.82 173.42L313.27 173.42L317.72 166.92ZM336.74 173.42L336.74 164.81L331 164.81L330.87 167.75C330.69 171.32 329.96 172.15 329.19 172.15L329.03 172.15L329.03 173.42L329.3 173.42C331.3 173.42 332.05 171.62 332.26 168.15L332.39 166.07L335.29 166.07L335.29 173.42L336.74 173.42ZM344.79 166.92L344.79 173.42L346.25 173.42L346.25 164.81L344.79 164.81L340.34 171.3L340.34 164.81L338.89 164.81L338.89 173.42L340.34 173.42L344.79 166.92ZM360.11 166.07L363.05 166.07L363.05 164.81L355.71 164.81L355.71 166.07L358.65 166.07L358.65 173.42L360.11 173.42L360.11 166.07ZM382.45 173.42L382.45 164.81L380.37 164.81L377.8 171.43L375.13 164.81L373.04 164.81L373.04 173.42L374.47 173.42L374.47 166.6L377.22 173.42L378.26 173.42L381.03 166.5L381.03 173.42L382.45 173.42ZM88.38 168.34C88.51 166.62 89.7 165.91 90.98 165.91C92.53 165.91 93.41 167.13 93.46 168.34L88.38 168.34ZM294.54 168.34C294.67 166.62 295.85 165.91 297.13 165.91C298.68 165.91 299.56 167.13 299.61 168.34L294.54 168.34ZM40.52 172.34C39.19 172.34 37.94 171.45 37.94 169.14C37.94 166.79 39.19 165.94 40.52 165.94C41.85 165.94 43.1 166.84 43.1 169.14C43.1 171.35 41.85 172.34 40.52 172.34ZM111.53 172.34C110.2 172.34 108.96 171.45 108.96 169.14C108.96 166.79 110.2 165.94 111.53 165.94C112.86 165.94 114.11 166.84 114.11 169.14C114.11 171.35 112.86 172.34 111.53 172.34ZM201.99 169.14C201.99 171.35 200.74 172.34 199.42 172.34C198.22 172.34 197.05 171.45 197.05 169.14C197.05 166.79 198.22 165.94 199.42 165.94C200.74 165.94 201.99 166.84 201.99 169.14ZM367.42 172.34C366.09 172.34 364.84 171.45 364.84 169.14C364.84 166.79 366.09 165.94 367.42 165.94C368.74 165.94 369.99 166.84 369.99 169.14C369.99 171.35 368.74 172.34 367.42 172.34ZM154.08 172.15L152.18 172.15L152.18 169.11L154.05 169.11C155.35 169.11 156.02 169.43 156.02 170.57C156.02 171.72 155.36 172.15 154.08 172.15ZM170.37 169.27L170.37 169.82C170.37 171.85 169.07 172.47 167.71 172.47C166.67 172.47 166.05 171.93 166.05 171.11C166.05 169.93 167.73 169.53 170.37 169.27ZM235.24 169.27L235.24 169.82C235.24 171.85 233.95 172.47 232.59 172.47C231.55 172.47 230.92 171.93 230.92 171.11C230.92 169.93 232.6 169.53 235.24 169.27ZM326.67 169.27L326.67 169.82C326.67 171.85 325.37 172.47 324.01 172.47C322.97 172.47 322.35 171.93 322.35 171.11C322.35 169.93 324.03 169.53 326.67 169.27ZM102.87 190.14C102.87 191.73 104.22 192.62 105.83 192.62C107.37 192.62 108.25 192.13 108.78 191.23C108.79 191.74 108.84 192.1 108.89 192.42L110.36 192.42C110.19 191.6 110.12 190.62 110.14 189.17L110.15 187.18C110.17 184.75 109.11 183.63 106.73 183.63C105.07 183.63 103.4 184.67 103.27 186.53L104.78 186.53C104.84 185.46 105.53 184.82 106.75 184.82C107.83 184.82 108.7 185.33 108.7 186.91L108.7 187.12C105.18 187.5 102.87 188.11 102.87 190.14ZM45.83 188.14C45.83 185.02 43.7 183.66 41.7 183.66C39.7 183.66 37.57 185.02 37.57 188.14C37.57 191.26 39.7 192.62 41.7 192.62C43.7 192.62 45.83 191.26 45.83 188.14ZM64.07 188.59L70.69 188.59C70.87 185.86 69.32 183.66 66.68 183.66C64.33 183.66 62.5 185.39 62.5 188.13C62.5 190.67 64.01 192.62 66.73 192.62C68.82 192.62 70.2 191.39 70.58 189.92L69.08 189.92C68.71 190.77 68.01 191.34 66.73 191.34C65.46 191.34 64.12 190.45 64.07 188.59ZM142.5 188.59L149.12 188.59C149.3 185.86 147.74 183.66 145.1 183.66C142.75 183.66 140.93 185.39 140.93 188.13C140.93 190.67 142.43 192.62 145.15 192.62C147.25 192.62 148.62 191.39 149.01 189.92L147.5 189.92C147.14 190.77 146.43 191.34 145.15 191.34C143.89 191.34 142.54 190.45 142.5 188.59ZM152.05 183.81L150.59 183.81L150.59 195.22L152.05 195.22L152.05 191.12C152.58 192.03 153.47 192.62 154.86 192.62C156.85 192.62 158.54 191.01 158.54 188.14C158.54 185.33 156.85 183.66 154.86 183.66C153.47 183.66 152.58 184.26 152.05 185.17L152.05 183.81ZM161.04 188.59L167.67 188.59C167.84 185.86 166.29 183.66 163.65 183.66C161.3 183.66 159.47 185.39 159.47 188.13C159.47 190.67 160.98 192.62 163.7 192.62C165.79 192.62 167.17 191.39 167.55 189.92L166.05 189.92C165.68 190.77 164.98 191.34 163.7 191.34C162.43 191.34 161.09 190.45 161.04 188.59ZM176.31 186.69C176.1 185.22 174.82 183.66 172.71 183.66C170.16 183.66 168.55 185.57 168.55 188.13C168.55 190.75 170.08 192.62 172.56 192.62C174.58 192.62 176.1 191.23 176.4 189.62L174.9 189.62C174.69 190.51 173.84 191.34 172.61 191.34C171.33 191.34 170.13 190.29 170.13 188.11C170.13 185.95 171.33 184.94 172.61 184.94C173.75 184.94 174.63 185.66 174.83 186.69L176.31 186.69ZM208.38 188.59L215 188.59C215.18 185.86 213.63 183.66 210.99 183.66C208.64 183.66 206.81 185.39 206.81 188.13C206.81 190.67 208.32 192.62 211.04 192.62C213.13 192.62 214.51 191.39 214.89 189.92L213.39 189.92C213.02 190.77 212.32 191.34 211.04 191.34C209.77 191.34 208.43 190.45 208.38 188.59ZM236.19 188.14C236.19 185.02 234.06 183.66 232.06 183.66C230.06 183.66 227.93 185.02 227.93 188.14C227.93 191.26 230.06 192.62 232.06 192.62C234.06 192.62 236.19 191.26 236.19 188.14ZM248.37 183.81L246.92 183.81L246.92 195.22L248.37 195.22L248.37 191.12C248.9 192.03 249.8 192.62 251.19 192.62C253.17 192.62 254.87 191.01 254.87 188.14C254.87 185.33 253.17 183.66 251.19 183.66C249.8 183.66 248.9 184.26 248.37 185.17L248.37 183.81ZM264.09 188.14C264.09 185.02 261.96 183.66 259.96 183.66C257.96 183.66 255.83 185.02 255.83 188.14C255.83 191.26 257.96 192.62 259.96 192.62C261.96 192.62 264.09 191.26 264.09 188.14ZM272.8 186.69C272.59 185.22 271.31 183.66 269.2 183.66C266.66 183.66 265.04 185.57 265.04 188.13C265.04 190.75 266.58 192.62 269.06 192.62C271.07 192.62 272.59 191.23 272.9 189.62L271.39 189.62C271.19 190.51 270.34 191.34 269.1 191.34C267.82 191.34 266.63 190.29 266.63 188.11C266.63 185.95 267.82 184.94 269.1 184.94C270.24 184.94 271.12 185.66 271.33 186.69L272.8 186.69ZM31.13 185.92L31.13 192.42L32.59 192.42L32.59 183.81L31.13 183.81L26.68 190.3L26.68 183.81L25.23 183.81L25.23 192.42L26.68 192.42L31.13 185.92ZM50.46 185.07L53.4 185.07L53.4 183.81L46.06 183.81L46.06 185.07L49 185.07L49 192.42L50.46 192.42L50.46 185.07ZM58.3 183.81L54.56 183.81L54.56 192.42L58.56 192.42C60.4 192.42 61.79 191.7 61.79 189.9C61.79 188.75 61.13 188.14 60.24 187.89C61.04 187.55 61.44 186.91 61.44 186C61.44 184.26 60.03 183.81 58.3 183.81ZM75.22 185.07L78.16 185.07L78.16 183.81L70.82 183.81L70.82 185.07L73.76 185.07L73.76 192.42L75.22 192.42L75.22 185.07ZM79.32 192.42L82.42 192.42C84.39 192.42 85.65 191.7 85.65 189.57C85.65 187.73 84.68 186.85 82.44 186.85L80.77 186.85L80.77 183.81L79.32 183.81L79.32 192.42ZM87.08 192.42L88.53 192.42L88.53 183.81L87.08 183.81L87.08 192.42ZM99.87 192.42L101.33 192.42L101.33 183.81L99.87 183.81L99.87 187.39L95.62 187.39L95.62 183.81L94.16 183.81L94.16 192.42L95.62 192.42L95.62 188.66L99.87 188.66L99.87 192.42ZM121.46 185.92L121.46 192.42L122.92 192.42L122.92 183.81L121.46 183.81L117.02 190.3L117.02 183.81L115.56 183.81L115.56 192.42L117.02 192.42L121.46 185.92ZM130.78 192.42L132.24 192.42L132.24 183.81L130.78 183.81L130.78 187.39L126.52 187.39L126.52 183.81L125.07 183.81L125.07 192.42L126.52 192.42L126.52 188.66L130.78 188.66L130.78 192.42ZM137.78 185.07L140.72 185.07L140.72 183.81L133.38 183.81L133.38 185.07L136.32 185.07L136.32 192.42L137.78 192.42L137.78 185.07ZM177.21 194L177.21 195.22L177.97 195.22C179.9 195.22 180.32 194.64 180.96 192.78L184.03 183.81L182.51 183.81L180.38 190.45L178.19 183.81L176.57 183.81L179.68 192.42L179.61 192.59C179.23 193.94 178.77 194 177.81 194L177.21 194ZM196.82 194.48L196.82 191.15L195.62 191.15L195.62 183.81L194.17 183.81L194.17 191.15L191.05 191.15L191.05 183.81L189.59 183.81L189.59 191.15L186.47 191.15L186.47 183.81L185.02 183.81L185.02 192.42L195.45 192.42L195.45 194.48L196.82 194.48ZM203.88 185.92L203.88 192.42L205.34 192.42L205.34 183.81L203.88 183.81L199.43 190.3L199.43 183.81L197.98 183.81L197.98 192.42L199.43 192.42L203.88 185.92ZM223.7 183.81L219.95 183.81L219.95 192.42L223.95 192.42C225.79 192.42 227.19 191.7 227.19 189.9C227.19 188.75 226.53 188.14 225.63 187.89C226.43 187.55 226.83 186.91 226.83 186C226.83 184.26 225.43 183.81 223.7 183.81ZM244.78 192.42L244.78 183.81L237.69 183.81L237.69 192.42L239.14 192.42L239.14 185.07L243.32 185.07L243.32 192.42L244.78 192.42ZM274.3 192.42L277.4 192.42C279.37 192.42 280.64 191.7 280.64 189.57C280.64 187.73 279.66 186.85 277.42 186.85L275.76 186.85L275.76 183.81L274.3 183.81L274.3 192.42ZM282.06 192.42L283.51 192.42L283.51 183.81L282.06 183.81L282.06 192.42ZM64.09 187.34C64.21 185.62 65.4 184.91 66.68 184.91C68.23 184.91 69.11 186.13 69.16 187.34L64.09 187.34ZM142.51 187.34C142.64 185.62 143.82 184.91 145.1 184.91C146.66 184.91 147.53 186.13 147.58 187.34L142.51 187.34ZM154.5 191.38C153.2 191.38 151.98 190.42 151.98 188.14C151.98 185.87 153.2 184.91 154.5 184.91C155.98 184.91 156.96 186.08 156.96 188.14C156.96 190.21 155.98 191.38 154.5 191.38ZM161.06 187.34C161.19 185.62 162.37 184.91 163.65 184.91C165.2 184.91 166.08 186.13 166.13 187.34L161.06 187.34ZM208.4 187.34C208.52 185.62 209.71 184.91 210.99 184.91C212.54 184.91 213.42 186.13 213.47 187.34L208.4 187.34ZM250.82 191.38C249.52 191.38 248.31 190.42 248.31 188.14C248.31 185.87 249.52 184.91 250.82 184.91C252.31 184.91 253.28 186.08 253.28 188.14C253.28 190.21 252.31 191.38 250.82 191.38ZM41.7 191.34C40.37 191.34 39.12 190.45 39.12 188.14C39.12 185.79 40.37 184.94 41.7 184.94C43.03 184.94 44.28 185.84 44.28 188.14C44.28 190.35 43.03 191.34 41.7 191.34ZM232.06 191.34C230.73 191.34 229.48 190.45 229.48 188.14C229.48 185.79 230.73 184.94 232.06 184.94C233.39 184.94 234.64 185.84 234.64 188.14C234.64 190.35 233.39 191.34 232.06 191.34ZM259.96 191.34C258.63 191.34 257.38 190.45 257.38 188.14C257.38 185.79 258.63 184.94 259.96 184.94C261.29 184.94 262.53 185.84 262.53 188.14C262.53 190.35 261.29 191.34 259.96 191.34ZM58.2 187.42L56.01 187.42L56.01 185.07L58.16 185.07C59.24 185.07 59.92 185.26 59.92 186.16C59.92 187.14 59.28 187.42 58.2 187.42ZM223.6 187.42L221.41 187.42L221.41 185.07L223.55 185.07C224.64 185.07 225.31 185.26 225.31 186.16C225.31 187.14 224.67 187.42 223.6 187.42ZM80.77 191.15L80.77 188.11L82.24 188.11C83.59 188.11 84.23 188.42 84.23 189.57C84.23 190.74 83.57 191.15 82.29 191.15L80.77 191.15ZM275.76 191.15L275.76 188.11L277.23 188.11C278.57 188.11 279.21 188.42 279.21 189.57C279.21 190.74 278.56 191.15 277.28 191.15L275.76 191.15ZM108.81 188.27L108.81 188.82C108.81 190.85 107.51 191.47 106.15 191.47C105.11 191.47 104.49 190.93 104.49 190.11C104.49 188.93 106.17 188.53 108.81 188.27ZM56.01 191.15L56.01 188.62L58.28 188.62C59.63 188.62 60.27 188.93 60.27 189.89C60.27 190.78 59.61 191.15 58.33 191.15L56.01 191.15ZM221.41 191.15L221.41 188.62L223.68 188.62C225.03 188.62 225.67 188.93 225.67 189.89C225.67 190.78 225.01 191.15 223.73 191.15L221.41 191.15ZM285.47 192.42L287.31 192.42L287.31 190.58L285.47 190.58L285.47 192.42Z" fill="#EFEFEF" fill-opacity="1.000000" fill-rule="evenodd"/>
		</g>
		<g opacity="0.000000">
			<rect id="Mobile + Tablet Buttons" rx="7.500000" width="199.000000" height="47.000000" transform="translate(24.500000 260.500000)" fill="#1A50C5" fill-opacity="1.000000"/>
			<path id="Купить паи" d="M97.7 285.8L95.99 285.8C95.67 287.2 94.72 287.9 93.33 287.9C91.71 287.9 90.46 286.53 90.46 284.07C90.46 281.62 91.73 280.3 93.34 280.3C94.67 280.3 95.64 281.01 95.96 282.4L97.67 282.4C97.26 280.12 95.65 278.84 93.4 278.84C90.45 278.84 88.63 280.87 88.63 284.07C88.63 287.26 90.35 289.36 93.32 289.36C95.67 289.36 97.26 288.08 97.7 285.8ZM122.15 287.1C122.15 288.48 123.29 289.36 124.93 289.36C126.05 289.36 126.92 288.98 127.41 288.15C127.45 288.67 127.49 288.85 127.55 289.18L129.08 289.18C128.92 288.54 128.85 287.55 128.85 286.6C128.85 285.91 128.88 285.02 128.88 284.65C128.92 282.25 127.51 281.42 125.7 281.42C123.88 281.42 122.61 282.48 122.5 284.01L124.13 284.01C124.18 283.1 124.81 282.65 125.65 282.65C126.49 282.65 127.21 283.04 127.21 284.33L127.21 284.47C124.47 284.76 122.15 285.21 122.15 287.1ZM121.23 286.96C121.23 285.96 120.73 285.44 119.9 285.2C120.63 284.88 120.99 284.36 120.99 283.62C120.99 282.1 119.66 281.45 118.03 281.45C116.36 281.45 114.85 282.3 114.58 284.08L116.18 284.08C116.3 283.14 117.06 282.69 118 282.69C118.94 282.69 119.34 283.04 119.34 283.73C119.34 284.39 118.82 284.67 118 284.67L116.85 284.67L116.85 285.97L118.08 285.97C119.03 285.97 119.57 286.26 119.57 287.05C119.57 287.71 119.01 288.13 117.94 288.13C116.88 288.13 116.25 287.58 116.09 286.73L114.5 286.73C114.76 288.64 116.23 289.36 117.89 289.36C119.78 289.36 121.23 288.63 121.23 286.96ZM151.76 284.22C151.46 282.55 150.04 281.48 148.38 281.48C146.13 281.48 144.69 283.18 144.69 285.42C144.69 287.66 146.13 289.36 148.31 289.36C149.92 289.36 151.48 288.36 151.81 286.6L150.19 286.6C149.97 287.61 149.17 287.97 148.34 287.97C147.36 287.97 146.41 287.2 146.41 285.41C146.41 283.63 147.33 282.86 148.38 282.86C149.29 282.86 149.98 283.42 150.13 284.22L151.76 284.22ZM102.69 281.64L99.15 281.64L99.15 289.18L102.87 289.18C104.57 289.18 105.83 288.53 105.83 286.92C105.83 285.93 105.27 285.41 104.52 285.19C105.18 284.89 105.52 284.36 105.52 283.59C105.52 282.04 104.26 281.64 102.69 281.64ZM113.23 289.18L113.23 281.64L110.03 281.64C108.14 281.64 107.14 282.51 107.14 284.04C107.14 285.12 107.73 285.82 108.53 286.14L106.64 289.18L108.53 289.18L110.07 286.57L111.57 286.57L111.57 289.18L113.23 289.18ZM133.97 282.96L136.53 282.96L136.53 281.64L129.73 281.64L129.73 282.96L132.3 282.96L132.3 289.18L133.97 289.18L133.97 282.96ZM140.96 284.18L139.41 284.18L139.41 281.64L137.74 281.64L137.74 289.18L140.99 289.18C142.87 289.18 143.9 288.53 143.9 286.63C143.9 284.96 143.03 284.18 140.96 284.18ZM158.94 289.18L158.94 281.64L155.73 281.64C153.84 281.64 152.85 282.51 152.85 284.04C152.85 285.12 153.43 285.82 154.23 286.14L152.34 289.18L154.23 289.18L155.77 286.57L157.27 286.57L157.27 289.18L158.94 289.18ZM102.56 284.72L100.81 284.72L100.81 282.95L102.55 282.95C103.38 282.95 103.87 283.16 103.87 283.81C103.87 284.49 103.39 284.72 102.56 284.72ZM110.26 282.96L111.57 282.96L111.57 285.26L110.19 285.26C109.35 285.26 108.84 284.96 108.84 284.16C108.84 283.38 109.38 282.96 110.26 282.96ZM155.97 282.96L157.27 282.96L157.27 285.26L155.9 285.26C155.06 285.26 154.54 284.96 154.54 284.16C154.54 283.38 155.09 282.96 155.97 282.96ZM140.77 287.86L139.41 287.86L139.41 285.49L140.75 285.49C141.76 285.49 142.25 285.77 142.25 286.61C142.25 287.52 141.76 287.86 140.77 287.86ZM127.26 285.63L127.26 286.21C127.26 287.5 126.53 288.11 125.3 288.11C124.46 288.11 123.91 287.72 123.91 287.06C123.91 286.21 124.88 285.86 127.26 285.63ZM100.81 287.87L100.81 285.93L102.66 285.93C103.67 285.93 104.16 286.15 104.16 286.87C104.16 287.54 103.67 287.87 102.68 287.87L100.81 287.87Z" fill="#EFEFEF" fill-opacity="1.000000" fill-rule="evenodd"/>
			<rect id="Mobile + Tablet Buttons" rx="7.500000" width="199.000000" height="47.000000" transform="translate(24.500000 260.500000)" stroke="#316CED" stroke-opacity="1.000000" stroke-width="1.000000"/>
		</g>
	</g>
</svg>
