<svg width="1440.000000" height="486.000000" viewBox="0 0 1440 486" fill="none" xmlns="http://www.w3.org/2000/svg" xmlns:xlink="http://www.w3.org/1999/xlink">
	<desc>
			Created with Pixso.
	</desc>
	<defs>
		<filter id="filter_47_1421_dd" x="-5.172241" y="-816.171875" width="2938.126953" height="2938.128906" filterUnits="userSpaceOnUse" color-interpolation-filters="sRGB">
			<feFlood flood-opacity="0" result="BackgroundImageFix"/>
			<feBlend mode="normal" in="SourceGraphic" in2="BackgroundImageFix" result="shape"/>
			<feGaussianBlur stdDeviation="166.566" result="effect_layerBlur_1"/>
		</filter>
		<filter id="filter_47_1422_dd" x="-2062.171875" y="-1063.171875" width="2938.126953" height="2938.128906" filterUnits="userSpaceOnUse" color-interpolation-filters="sRGB">
			<feFlood flood-opacity="0" result="BackgroundImageFix"/>
			<feBlend mode="normal" in="SourceGraphic" in2="BackgroundImageFix" result="shape"/>
			<feGaussianBlur stdDeviation="166.566" result="effect_layerBlur_1"/>
		</filter>
		<clipPath id="clip47_1424">
			<rect id="Graphic" rx="0.000000" width="1439.000000" height="485.000000" transform="translate(0.500000 0.500000)" fill="white" fill-opacity="0"/>
		</clipPath>
	</defs>
	<g clip-path="url(#clip47_1424)">
		<rect id="Rectangle 10" x="903.000000" y="329.000000" rx="8.000000" width="105.000000" height="201.000000" fill="#316CED" fill-opacity="1.000000"/>
		<rect id="Rectangle 240654866" rx="8.000000" width="201.000000" height="172.000015" transform="matrix(-4.37114e-08 1 1 4.37114e-08 1272 329)" fill="#316CED" fill-opacity="1.000000"/>
		<rect id="Rectangle 11" x="1272.000000" y="147.000000" rx="8.000000" width="108.000000" height="77.000000" fill="#316CED" fill-opacity="1.000000"/>
		<rect id="Rectangle 240654862" x="903.000000" y="183.000000" rx="8.000000" width="105.000000" height="41.000000" fill="#316CED" fill-opacity="1.000000"/>
		<rect id="Rectangle 240654863" x="861.000000" y="141.000000" rx="8.000000" width="42.000000" height="42.000000" fill="#316CED" fill-opacity="1.000000"/>
		<rect id="Rectangle 240654864" x="663.000000" y="267.000000" rx="8.000000" width="240.000000" height="62.000000" fill="#316CED" fill-opacity="1.000000"/>
		<rect id="Rectangle 240654865" x="589.000000" y="329.000000" rx="8.000000" width="74.000000" height="178.000000" fill="#316CED" fill-opacity="1.000000"/>
		<rect id="Rectangle 240654861" x="1272.406250" y="224.000000" rx="8.000000" width="104.848793" height="264.401306" transform="rotate(90 1272.406250 224.000000)" fill="#316CED" fill-opacity="1.000000"/>
		<rect id="Rectangle 240654860" x="1379.000000" y="-17.152344" rx="8.000000" width="104.848793" height="164.111145" fill="#316CED" fill-opacity="1.000000"/>
		<g opacity="0.600000" filter="url(#filter_47_1421_dd)">
			<ellipse id="Ellipse 214" rx="384.131012" ry="1315.601807" transform="matrix(-0.707107 -0.707107 0.707107 -0.707107 1463.89 652.893)" fill="#316CED" fill-opacity="1.000000"/>
		</g>
		<g opacity="0.500000" filter="url(#filter_47_1422_dd)">
			<ellipse id="Ellipse 215" rx="384.131012" ry="1315.601807" transform="matrix(-0.707107 -0.707107 0.707107 -0.707107 -593.109 405.893)" fill="#316CED" fill-opacity="1.000000"/>
		</g>
	</g>
</svg>
