<svg width="390.000000" height="625.000000" viewBox="0 0 390 625" fill="none" xmlns="http://www.w3.org/2000/svg" xmlns:xlink="http://www.w3.org/1999/xlink">
	<desc>
			Created with Pixso.
	</desc>
	<defs>
		<filter id="filter_47_1485_dd" x="-185.419922" y="136.568359" width="938.075195" height="830.996094" filterUnits="userSpaceOnUse" color-interpolation-filters="sRGB">
			<feFlood flood-opacity="0" result="BackgroundImageFix"/>
			<feBlend mode="normal" in="SourceGraphic" in2="BackgroundImageFix" result="shape"/>
			<feGaussianBlur stdDeviation="66.6667" result="effect_layerBlur_1"/>
		</filter>
		<filter id="filter_47_1486_dd" x="-430.970703" y="-586.837891" width="944.284180" height="933.009766" filterUnits="userSpaceOnUse" color-interpolation-filters="sRGB">
			<feFlood flood-opacity="0" result="BackgroundImageFix"/>
			<feBlend mode="normal" in="SourceGraphic" in2="BackgroundImageFix" result="shape"/>
			<feGaussianBlur stdDeviation="66.6667" result="effect_layerBlur_1"/>
		</filter>
		<clipPath id="clip47_1495">
			<rect id="bg" rx="0.000000" width="389.000000" height="624.000000" transform="translate(0.500000 0.500000)" fill="white" fill-opacity="0"/>
		</clipPath>
	</defs>
	<g clip-path="url(#clip47_1495)">
		<g filter="url(#filter_47_1485_dd)">
			<ellipse id="Ellipse 217" rx="77.934395" ry="335.704956" transform="matrix(0.615104 0.788446 -0.788446 0.615104 283.617 552.066)" fill="#3179FF" fill-opacity="0.500000"/>
		</g>
		<g filter="url(#filter_47_1486_dd)">
			<ellipse id="Ellipse 215" rx="112.803963" ry="363.709717" transform="matrix(0.698074 0.716026 -0.716026 0.698074 41.1709 -120.332)" fill="#3179FF" fill-opacity="0.500000"/>
		</g>
		<rect id="Rectangle 240654859" x="354.291016" y="371.000000" rx="4.000000" width="48.677048" height="48.677048" fill="#316CED" fill-opacity="1.000000"/>
		<rect id="Rectangle 10" x="85.468750" y="580.390625" rx="4.000000" width="48.747246" height="93.316162" fill="#316CED" fill-opacity="1.000000"/>
		<rect id="Rectangle 240654866" rx="4.000000" width="93.316162" height="79.852646" transform="matrix(-4.37114e-08 1 1 4.37114e-08 256.789 580.391)" fill="#316CED" fill-opacity="1.000000"/>
		<rect id="Rectangle 11" x="256.791016" y="495.888672" rx="4.000000" width="50.140022" height="35.747986" fill="#316CED" fill-opacity="1.000000"/>
		<rect id="Rectangle 240654867" x="257.000000" y="472.000000" rx="4.000000" width="24.000002" height="21.999998" transform="rotate(90 257.000000 472.000000)" fill="#316CED" fill-opacity="1.000000"/>
		<rect id="Rectangle 240654861" x="256.972656" y="531.621094" rx="4.000000" width="48.677048" height="122.750801" transform="rotate(90 256.972656 531.621094)" fill="#316CED" fill-opacity="1.000000"/>
		<rect id="Rectangle 240654860" x="306.460938" y="419.679688" rx="4.000000" width="48.677048" height="76.190147" fill="#316CED" fill-opacity="1.000000"/>
	</g>
</svg>
