<svg width="390.000000" height="580.000000" viewBox="0 0 390 580" fill="none" xmlns="http://www.w3.org/2000/svg" xmlns:xlink="http://www.w3.org/1999/xlink">
	<desc>
			Created with Pixso.
	</desc>
	<defs>
		<filter id="filter_1_3736_dd" x="-166.816406" y="128.337891" width="875.208008" height="780.640625" filterUnits="userSpaceOnUse" color-interpolation-filters="sRGB">
			<feFlood flood-opacity="0" result="BackgroundImageFix"/>
			<feBlend mode="normal" in="SourceGraphic" in2="BackgroundImageFix" result="shape"/>
			<feGaussianBlur stdDeviation="66.6667" result="effect_layerBlur_1"/>
		</filter>
		<clipPath id="clip1_3735">
			<rect id="iPhone SE - 10" rx="0.000000" width="389.000000" height="579.000000" transform="translate(0.500000 0.500000)" fill="white" fill-opacity="0"/>
		</clipPath>
	</defs>
	<g clip-path="url(#clip1_3735)">
		<g filter="url(#filter_1_3736_dd)">
			<ellipse id="Ellipse 217" rx="68.828766" ry="296.482147" transform="matrix(0.615104 0.788446 -0.788446 0.615104 270.788 518.658)" fill="#3179FF" fill-opacity="0.500000"/>
		</g>
		<rect id="Rectangle 240654885" rx="4.000000" width="89.000000" height="75.000000" transform="matrix(-1 0 0 1 149.633 517)" fill="#316CED" fill-opacity="1.000000"/>
		<rect id="Rectangle 240654862" rx="4.000000" width="107.000000" height="75.000000" transform="matrix(-1 0 0 1 411.633 517)" fill="#316CED" fill-opacity="1.000000"/>
		<rect id="Rectangle 240654886" rx="4.000000" width="155.000000" height="73.000000" transform="matrix(-1 0 0 1 304.633 444)" fill="#316CED" fill-opacity="1.000000"/>
		<rect id="Rectangle 240654864" rx="4.000000" width="58.999996" height="57.000004" transform="matrix(-4.37114e-08 1 1 4.37114e-08 305.633 385)" fill="#316CED" fill-opacity="1.000000"/>
		<rect id="Rectangle 240654861" rx="4.000000" width="37.000000" height="33.000000" transform="matrix(-1 0 0 1 60.6328 484)" fill="#316CED" fill-opacity="1.000000"/>
		<rect id="Rectangle 240654887" rx="4.000000" width="37.000000" height="33.000000" transform="matrix(-1 0 0 1 399.633 352)" fill="#316CED" fill-opacity="1.000000"/>
		<g opacity="0.000000">
			<rect id="Rectangle 1" x="138.000000" y="345.000000" rx="1.000000" width="8.000000" height="8.000000" fill="#316CED" fill-opacity="1.000000"/>
		</g>
	</g>
</svg>
