<svg width="768.000000" height="349.000000" viewBox="0 0 768 349" fill="none" xmlns="http://www.w3.org/2000/svg" xmlns:xlink="http://www.w3.org/1999/xlink">
	<desc>
			Created with Pixso.
	</desc>
	<defs>
		<filter id="filter_1_1496_dd" x="234.070312" y="-62.896484" width="818.611084" height="737.562500" filterUnits="userSpaceOnUse" color-interpolation-filters="sRGB">
			<feFlood flood-opacity="0" result="BackgroundImageFix"/>
			<feBlend mode="normal" in="SourceGraphic" in2="BackgroundImageFix" result="shape"/>
			<feGaussianBlur stdDeviation="66.6667" result="effect_layerBlur_1"/>
		</filter>
		<clipPath id="clip1_1495">
			<rect id="iPhone SE - 10" rx="0.000000" width="767.000000" height="348.000000" transform="translate(0.500000 0.500000)" fill="white" fill-opacity="0"/>
		</clipPath>
	</defs>
	<g clip-path="url(#clip1_1495)">
		<g filter="url(#filter_1_1496_dd)">
			<ellipse id="Ellipse 217" rx="68.174561" ry="260.029846" transform="matrix(0.615104 0.788446 -0.788446 0.615104 643.376 305.885)" fill="#3179FF" fill-opacity="0.500000"/>
		</g>
		<rect id="Rectangle 240654885" rx="8.000000" width="68.838234" height="83.272057" transform="matrix(-1 0 0 1 588.922 292.727)" fill="#316CED" fill-opacity="1.000000"/>
		<rect id="Rectangle 240654862" rx="8.000000" width="96.000000" height="83.000000" transform="matrix(-1 0 0 1 789 293)" fill="#316CED" fill-opacity="1.000000"/>
		<rect id="Rectangle 240654886" rx="8.000000" width="104.000000" height="64.000000" transform="matrix(-1 0 0 1 693 229)" fill="#316CED" fill-opacity="1.000000"/>
		<rect id="Rectangle 240654864" rx="8.000000" width="118.000000" height="42.000004" transform="matrix(-4.37114e-08 1 1 4.37114e-08 693 111)" fill="#316CED" fill-opacity="1.000000"/>
		<rect id="Rectangle 240654887" rx="8.000000" width="54.000000" height="47.000000" transform="matrix(-1 0 0 1 789 64)" fill="#316CED" fill-opacity="1.000000"/>
		<rect id="Rectangle 240654887" rx="8.000000" width="31.000000" height="28.000000" transform="matrix(-1 0 0 1 520 265)" fill="#316CED" fill-opacity="1.000000"/>
	</g>
</svg>
