<svg width="1440.000000" height="1097.000000" viewBox="0 0 1440 1097" fill="none" xmlns="http://www.w3.org/2000/svg" xmlns:xlink="http://www.w3.org/1999/xlink">
	<desc>
			Created with Pixso.
	</desc>
	<defs>
		<filter id="filter_82_2737_dd" x="360.000000" y="24.000000" width="765.000000" height="50.000000" filterUnits="userSpaceOnUse" color-interpolation-filters="sRGB">
			<feFlood flood-opacity="0" result="BackgroundImageFix"/>
			<feGaussianBlur in="BackgroundImage" stdDeviation="3.33333"/>
			<feComposite in2="SourceAlpha" operator="in" result="effect_backgroundBlur_1"/>
			<feBlend mode="normal" in="SourceGraphic" in2="effect_backgroundBlur_1" result="shape"/>
		</filter>
		<filter id="filter_1_4906_dd" x="-206.781250" y="151.911133" width="2521.103516" height="1727.035156" filterUnits="userSpaceOnUse" color-interpolation-filters="sRGB">
			<feFlood flood-opacity="0" result="BackgroundImageFix"/>
			<feBlend mode="normal" in="SourceGraphic" in2="BackgroundImageFix" result="shape"/>
			<feGaussianBlur stdDeviation="166.566" result="effect_layerBlur_1"/>
		</filter>
		<filter id="filter_1_4907_dd" x="-1006.009766" y="-850.763672" width="1869.335938" height="1764.641602" filterUnits="userSpaceOnUse" color-interpolation-filters="sRGB">
			<feFlood flood-opacity="0" result="BackgroundImageFix"/>
			<feBlend mode="normal" in="SourceGraphic" in2="BackgroundImageFix" result="shape"/>
			<feGaussianBlur stdDeviation="166.566" result="effect_layerBlur_1"/>
		</filter>
		<clipPath id="clip1_4865">
			<rect id="Frame 2131329457" rx="0.000000" width="1439.000000" height="1096.000000" transform="translate(0.500000 0.500000)" fill="white" fill-opacity="0"/>
		</clipPath>
		<linearGradient x1="-12.331848" y1="-25.011475" x2="345.117004" y2="114.710327" id="paint_linear_1_4869_0" gradientUnits="userSpaceOnUse">
			<stop stop-color="#306BED"/>
			<stop offset="1.000000" stop-color="#FFFFFF"/>
		</linearGradient>
	</defs>
	<g clip-path="url(#clip1_4865)">
		<rect id="Rectangle 240654895" rx="8.000000" width="224.338181" height="68.604553" transform="matrix(1 1.86195e-07 1.62931e-07 -1 904.562 975.945)" fill="#316CED" fill-opacity="1.000000"/>
		<rect id="Rectangle 240654906" rx="8.000000" width="189.858231" height="59.999992" transform="matrix(-4.37114e-08 -1 -1 4.37114e-08 1189 1166)" fill="#316CED" fill-opacity="1.000000"/>
		<rect id="Rectangle 240654896" rx="8.000000" width="224.806259" height="142.842407" transform="matrix(-1 -8.74228e-08 -8.74228e-08 1 1354.12 760.875)" fill="#316CED" fill-opacity="1.000000"/>
		<rect id="Rectangle 240654900" rx="8.000000" width="164.354706" height="68.604530" transform="matrix(-1 6.19181e-08 2.6743e-08 1 1519 903.711)" fill="#316CED" fill-opacity="1.000000"/>
		<rect id="Rectangle 240654897" rx="8.000000" width="119.987625" height="59.948330" transform="matrix(-5.19124e-08 -1 -1 9.48422e-08 1413.95 761.016)" fill="#316CED" fill-opacity="1.000000"/>
		<rect id="Rectangle 240654899" rx="8.000000" width="81.204430" height="60.000004" transform="matrix(8.74228e-08 -1 -1 -8.74228e-08 904 1058.22)" fill="#316CED" fill-opacity="1.000000"/>
		<rect id="Rectangle 240654901" rx="8.000000" width="151.000000" height="68.623474" transform="matrix(1 -1.25648e-08 1.09858e-08 -1 693 1127.13)" fill="#316CED" fill-opacity="1.000000"/>
		<rect id="Rectangle 240654902" rx="8.000000" width="40.602207" height="30.000000" transform="matrix(8.74228e-08 -1 -1 -8.74228e-08 1444 641.602)" fill="#316CED" fill-opacity="1.000000"/>
		<g opacity="0.500000" filter="url(#filter_1_4906_dd)">
			<ellipse id="Ellipse 214" rx="163.248306" ry="827.333374" transform="matrix(-0.400754 -0.916186 -0.916186 0.400754 1053.77 1015.43)" fill="#316CED" fill-opacity="1.000000"/>
		</g>
		<g opacity="0.500000" filter="url(#filter_1_4907_dd)">
			<ellipse id="Ellipse 215" rx="163.248306" ry="555.680054" transform="matrix(-0.651282 -0.758835 -0.758835 0.651282 -71.3418 31.5566)" fill="#316CED" fill-opacity="1.000000"/>
		</g>
	</g>
</svg>
