<svg width="173.000000" height="20.000000" viewBox="0 0 173 20" fill="none" xmlns="http://www.w3.org/2000/svg" xmlns:xlink="http://www.w3.org/1999/xlink">
	<desc>
			Created with Pixso.
	</desc>
	<defs/>
	<path id="365" d="M82.82 6.33C82.82 7.06 82.28 7.45 81.51 7.45C80.69 7.45 80.28 6.96 80.19 6.24L79.44 6.24C79.53 7.21 80.13 8.06 81.5 8.06C82.62 8.06 83.6 7.49 83.6 6.32C83.6 5.71 83.36 5.15 82.5 4.87C83.1 4.62 83.44 4.12 83.44 3.52C83.44 2.46 82.56 2.05 81.56 2.05C80.34 2.05 79.62 2.76 79.53 3.79L80.28 3.79C80.34 3.12 80.77 2.66 81.54 2.66C82.16 2.66 82.67 2.99 82.67 3.6C82.67 4.28 82.14 4.56 81.13 4.56L81.03 4.56L81.03 5.23L81.15 5.23C82.08 5.23 82.82 5.5 82.82 6.33ZM85.09 4.9C85.13 3.56 85.61 2.66 86.51 2.66C87.11 2.66 87.5 2.98 87.6 3.5L88.39 3.5C88.26 2.76 87.74 2.05 86.6 2.05C84.91 2.05 84.34 3.63 84.34 5.26C84.34 7.05 85 8.06 86.45 8.06C87.69 8.06 88.49 7.14 88.49 6.06C88.49 4.9 87.7 4.09 86.62 4.09C85.85 4.09 85.35 4.44 85.09 4.9ZM92.59 6.05C92.59 6.95 91.99 7.45 91.29 7.45C90.48 7.45 90.1 7.01 89.98 6.28L89.23 6.28C89.33 7.21 89.95 8.06 91.29 8.06C92.37 8.06 93.35 7.37 93.35 6.04C93.35 4.76 92.47 4.04 91.45 4.04C90.97 4.04 90.51 4.19 90.2 4.48L90.4 2.84L93.14 2.84L93.14 2.16L89.81 2.16L89.43 5.28L90.16 5.32C90.29 5.03 90.68 4.67 91.28 4.67C91.91 4.67 92.59 5.09 92.59 6.05ZM86.44 7.45C85.67 7.45 85.18 6.9 85.18 6.1C85.18 5.31 85.69 4.72 86.45 4.72C87.19 4.72 87.71 5.31 87.71 6.1C87.71 6.89 87.18 7.45 86.44 7.45Z" fill="#316CED" fill-opacity="1.000000" fill-rule="evenodd"/>
	<line id="Line 42" x1="0.000000" y1="10.000000" x2="173.000000" y2="10.000000" stroke="#316CED" stroke-opacity="1.000000" stroke-width="1.000000"/>
	<path id="Период с даты формирования фонда, в днях" d="M4.48 17.95L5.29 17.95L5.29 12.16L0.76 12.16L0.76 17.95L1.58 17.95L1.58 12.86L4.48 12.86L4.48 17.95ZM62.03 13.66L62.03 12.16L61.3 12.16L61.3 13.66C60.06 13.66 59.09 14.36 59.09 15.82C59.09 17.33 60.06 18 61.3 18L61.3 19.36L62.03 19.36L62.03 18C63.27 18 64.25 17.33 64.25 15.82C64.25 14.36 63.29 13.66 62.03 13.66ZM122.89 13.66L122.89 12.16L122.16 12.16L122.16 13.66C120.92 13.66 119.95 14.36 119.95 15.82C119.95 17.33 120.92 18 122.16 18L122.16 19.36L122.89 19.36L122.89 18C124.13 18 125.11 17.33 125.11 15.82C125.11 14.36 124.15 13.66 122.89 13.66ZM43.23 16.82C43.23 17.61 43.9 18.06 44.71 18.06C45.48 18.06 45.92 17.81 46.18 17.36C46.19 17.62 46.21 17.79 46.24 17.95L46.97 17.95C46.89 17.55 46.85 17.06 46.86 16.33L46.87 15.34C46.88 14.12 46.35 13.56 45.16 13.56C44.33 13.56 43.49 14.08 43.43 15.01L44.18 15.01C44.21 14.48 44.56 14.16 45.17 14.16C45.71 14.16 46.14 14.41 46.14 15.2L46.14 15.31C44.38 15.5 43.23 15.8 43.23 16.82ZM99.48 16.82C99.48 17.61 100.15 18.06 100.96 18.06C101.73 18.06 102.17 17.81 102.43 17.36C102.44 17.62 102.46 17.79 102.49 17.95L103.22 17.95C103.14 17.55 103.1 17.06 103.11 16.33L103.12 15.34C103.13 14.12 102.6 13.56 101.41 13.56C100.58 13.56 99.74 14.08 99.68 15.01L100.43 15.01C100.46 14.48 100.81 14.16 101.42 14.16C101.96 14.16 102.39 14.41 102.39 15.2L102.39 15.31C100.63 15.5 99.48 15.8 99.48 16.82ZM140.06 16.82C140.06 17.61 140.73 18.06 141.54 18.06C142.31 18.06 142.75 17.81 143.01 17.36C143.02 17.62 143.04 17.79 143.07 17.95L143.8 17.95C143.71 17.55 143.68 17.06 143.69 16.33L143.7 15.34C143.71 14.12 143.18 13.56 141.99 13.56C141.15 13.56 140.32 14.08 140.26 15.01L141.01 15.01C141.04 14.48 141.39 14.16 141.99 14.16C142.54 14.16 142.97 14.41 142.97 15.2L142.97 15.31C141.21 15.5 140.06 15.8 140.06 16.82ZM7.12 16.04L10.43 16.04C10.52 14.68 9.75 13.58 8.43 13.58C7.25 13.58 6.34 14.44 6.34 15.81C6.34 17.08 7.09 18.06 8.45 18.06C9.5 18.06 10.19 17.44 10.38 16.71L9.63 16.71C9.44 17.13 9.09 17.42 8.45 17.42C7.82 17.42 7.15 16.97 7.12 16.04ZM12.06 13.65L11.33 13.65L11.33 19.36L12.06 19.36L12.06 17.31C12.32 17.76 12.77 18.06 13.47 18.06C14.46 18.06 15.31 17.25 15.31 15.82C15.31 14.41 14.46 13.58 13.47 13.58C12.77 13.58 12.32 13.88 12.06 14.33L12.06 13.65ZM24.93 15.82C24.93 14.26 23.86 13.58 22.86 13.58C21.86 13.58 20.8 14.26 20.8 15.82C20.8 17.38 21.86 18.06 22.86 18.06C23.86 18.06 24.93 17.38 24.93 15.82ZM35.96 15.09C35.86 14.36 35.22 13.58 34.16 13.58C32.89 13.58 32.08 14.53 32.08 15.81C32.08 17.12 32.85 18.06 34.09 18.06C35.1 18.06 35.86 17.36 36.01 16.56L35.26 16.56C35.15 17 34.73 17.42 34.11 17.42C33.47 17.42 32.87 16.89 32.87 15.8C32.87 14.72 33.47 14.22 34.11 14.22C34.68 14.22 35.12 14.58 35.22 15.09L35.96 15.09ZM69.01 15.82C69.01 14.26 67.95 13.58 66.95 13.58C65.95 13.58 64.88 14.26 64.88 15.82C64.88 17.38 65.95 18.06 66.95 18.06C67.95 18.06 69.01 17.38 69.01 15.82ZM70.65 13.65L69.92 13.65L69.92 19.36L70.65 19.36L70.65 17.31C70.92 17.76 71.36 18.06 72.06 18.06C73.05 18.06 73.9 17.25 73.9 15.82C73.9 14.41 73.05 13.58 72.06 13.58C71.36 13.58 70.92 13.88 70.65 14.33L70.65 13.65ZM86.38 13.65L85.65 13.65L85.65 19.36L86.38 19.36L86.38 17.31C86.64 17.76 87.09 18.06 87.79 18.06C88.78 18.06 89.63 17.25 89.63 15.82C89.63 14.41 88.78 13.58 87.79 13.58C87.09 13.58 86.64 13.88 86.38 14.33L86.38 13.65ZM94.4 15.82C94.4 14.26 93.33 13.58 92.33 13.58C91.33 13.58 90.27 14.26 90.27 15.82C90.27 17.38 91.33 18.06 92.33 18.06C93.33 18.06 94.4 17.38 94.4 15.82ZM129.87 15.82C129.87 14.26 128.81 13.58 127.81 13.58C126.81 13.58 125.74 14.26 125.74 15.82C125.74 17.38 126.81 18.06 127.81 18.06C128.81 18.06 129.87 17.38 129.87 15.82ZM19.16 14.71L19.16 17.95L19.88 17.95L19.88 13.65L19.16 13.65L16.93 16.9L16.93 13.65L16.2 13.65L16.2 17.95L16.93 17.95L19.16 14.71ZM29.78 18.91L29.78 17.32L29.18 17.32L29.18 13.65L26.28 13.65L26.22 15.04C26.16 16.68 25.9 17.32 25.42 17.32L25.22 17.32L25.22 18.91L25.93 18.91L25.93 17.95L29.08 17.95L29.08 18.91L29.78 18.91ZM42.79 18.91L42.79 17.32L42.19 17.32L42.19 13.65L39.29 13.65L39.23 15.04C39.17 16.68 38.91 17.32 38.42 17.32L38.23 17.32L38.23 18.91L38.94 18.91L38.94 17.95L42.09 17.95L42.09 18.91L42.79 18.91ZM49.47 14.28L50.94 14.28L50.94 13.65L47.27 13.65L47.27 14.28L48.74 14.28L48.74 17.95L49.47 17.95L49.47 14.28ZM51.68 17.95L53.23 17.95C54.22 17.95 54.85 17.6 54.85 16.53C54.85 15.61 54.36 15.17 53.24 15.17L52.41 15.17L52.41 13.65L51.68 13.65L51.68 17.95ZM55.56 17.95L56.29 17.95L56.29 13.65L55.56 13.65L55.56 17.95ZM79.5 17.95L79.5 13.65L78.46 13.65L77.17 16.96L75.84 13.65L74.8 13.65L74.8 17.95L75.51 17.95L75.51 14.55L76.89 17.95L77.41 17.95L78.79 14.5L78.79 17.95L79.5 17.95ZM83.69 14.71L83.69 17.95L84.42 17.95L84.42 13.65L83.69 13.65L81.46 16.9L81.46 13.65L80.74 13.65L80.74 17.95L81.46 17.95L83.69 14.71ZM97.18 13.65L95.31 13.65L95.31 17.95L97.31 17.95C98.23 17.95 98.92 17.6 98.92 16.7C98.92 16.12 98.59 15.82 98.15 15.69C98.55 15.52 98.75 15.2 98.75 14.75C98.75 13.88 98.04 13.65 97.18 13.65ZM107.1 17.95L107.83 17.95L107.83 13.65L107.1 13.65L107.1 15.44L104.97 15.44L104.97 13.65L104.24 13.65L104.24 17.95L104.97 17.95L104.97 16.08L107.1 16.08L107.1 17.95ZM112.01 14.71L112.01 17.95L112.74 17.95L112.74 13.65L112.01 13.65L109.78 16.9L109.78 13.65L109.06 13.65L109.06 17.95L109.78 17.95L112.01 14.71ZM117.15 17.95L117.15 13.65L115.47 13.65C114.47 13.65 113.87 14.09 113.87 14.98C113.87 15.62 114.23 16.04 114.78 16.22L113.47 17.95L114.38 17.95L115.55 16.42C115.59 16.43 115.63 16.43 115.67 16.43L116.43 16.43L116.43 17.95L117.15 17.95ZM133.64 17.95L134.37 17.95L134.37 13.65L133.64 13.65L133.64 15.44L131.51 15.44L131.51 13.65L130.78 13.65L130.78 17.95L131.51 17.95L131.51 16.08L133.64 16.08L133.64 17.95ZM139.62 18.91L139.62 17.32L139.02 17.32L139.02 13.65L136.12 13.65L136.06 15.04C136 16.68 135.74 17.32 135.25 17.32L135.06 17.32L135.06 18.91L135.76 18.91L135.76 17.95L138.92 17.95L138.92 18.91L139.62 18.91ZM150.55 13.65L148.68 13.65L148.68 17.95L150.68 17.95C151.6 17.95 152.3 17.6 152.3 16.7C152.3 16.12 151.97 15.82 151.52 15.69C151.92 15.52 152.12 15.2 152.12 14.75C152.12 13.88 151.42 13.65 150.55 13.65ZM159.07 18.91L159.07 17.32L158.47 17.32L158.47 13.65L155.57 13.65L155.51 15.04C155.45 16.68 155.19 17.32 154.71 17.32L154.51 17.32L154.51 18.91L155.22 18.91L155.22 17.95L158.37 17.95L158.37 18.91L159.07 18.91ZM162.66 17.95L163.39 17.95L163.39 13.65L162.66 13.65L162.66 15.44L160.53 15.44L160.53 13.65L159.81 13.65L159.81 17.95L160.53 17.95L160.53 16.08L162.66 16.08L162.66 17.95ZM167.8 17.95L167.8 13.65L166.12 13.65C165.12 13.65 164.52 14.09 164.52 14.98C164.52 15.62 164.88 16.04 165.43 16.22L164.12 17.95L165.03 17.95L166.2 16.42C166.24 16.43 166.28 16.43 166.32 16.43L167.08 16.43L167.08 17.95L167.8 17.95ZM170.92 15.71L172.39 13.65L171.57 13.65L170.51 15.13L169.47 13.65L168.59 13.65L170.08 15.74L168.5 17.95L169.33 17.95L170.49 16.32L171.66 17.95L172.53 17.95L170.92 15.71ZM7.13 15.42C7.19 14.56 7.79 14.2 8.43 14.2C9.2 14.2 9.64 14.81 9.67 15.42L7.13 15.42ZM13.28 17.44C12.63 17.44 12.03 16.95 12.03 15.82C12.03 14.68 12.63 14.2 13.28 14.2C14.03 14.2 14.51 14.79 14.51 15.82C14.51 16.85 14.03 17.44 13.28 17.44ZM71.88 17.44C71.23 17.44 70.62 16.95 70.62 15.82C70.62 14.68 71.23 14.2 71.88 14.2C72.62 14.2 73.11 14.79 73.11 15.82C73.11 16.85 72.62 17.44 71.88 17.44ZM87.6 17.44C86.95 17.44 86.35 16.95 86.35 15.82C86.35 14.68 86.95 14.2 87.6 14.2C88.35 14.2 88.83 14.79 88.83 15.82C88.83 16.85 88.35 17.44 87.6 17.44ZM22.86 17.42C22.2 17.42 21.57 16.97 21.57 15.82C21.57 14.64 22.2 14.22 22.86 14.22C23.53 14.22 24.15 14.67 24.15 15.82C24.15 16.92 23.53 17.42 22.86 17.42ZM66.95 17.42C66.28 17.42 65.66 16.97 65.66 15.82C65.66 14.64 66.28 14.22 66.95 14.22C67.61 14.22 68.24 14.67 68.24 15.82C68.24 16.92 67.61 17.42 66.95 17.42ZM92.33 17.42C91.67 17.42 91.04 16.97 91.04 15.82C91.04 14.64 91.67 14.22 92.33 14.22C93 14.22 93.62 14.67 93.62 15.82C93.62 16.92 93 17.42 92.33 17.42ZM127.81 17.42C127.14 17.42 126.52 16.97 126.52 15.82C126.52 14.64 127.14 14.22 127.81 14.22C128.47 14.22 129.1 14.67 129.1 15.82C129.1 16.92 128.47 17.42 127.81 17.42ZM28.46 14.28L28.46 17.32L26.36 17.32C26.7 17 26.88 16.38 26.94 15.11L26.98 14.28L28.46 14.28ZM41.46 14.28L41.46 17.32L39.37 17.32C39.7 17 39.89 16.38 39.95 15.11L39.99 14.28L41.46 14.28ZM61.3 14.28L61.3 17.37C60.45 17.37 59.86 16.89 59.86 15.84C59.86 14.79 60.47 14.28 61.3 14.28ZM62.03 17.37L62.03 14.28C62.89 14.28 63.47 14.79 63.47 15.84C63.47 16.89 62.86 17.37 62.03 17.37ZM97.13 15.46L96.03 15.46L96.03 14.28L97.11 14.28C97.65 14.28 97.99 14.38 97.99 14.83C97.99 15.32 97.67 15.46 97.13 15.46ZM115.51 14.28L116.43 14.28L116.43 15.8L115.57 15.8C115.07 15.8 114.61 15.61 114.61 15.03C114.61 14.51 114.97 14.28 115.51 14.28ZM122.16 14.28L122.16 17.37C121.31 17.37 120.72 16.89 120.72 15.84C120.72 14.79 121.33 14.28 122.16 14.28ZM122.89 17.37L122.89 14.28C123.75 14.28 124.33 14.79 124.33 15.84C124.33 16.89 123.72 17.37 122.89 17.37ZM138.29 14.28L138.29 17.32L136.2 17.32C136.53 17 136.72 16.38 136.78 15.11L136.82 14.28L138.29 14.28ZM150.5 15.46L149.41 15.46L149.41 14.28L150.48 14.28C151.03 14.28 151.36 14.38 151.36 14.83C151.36 15.32 151.04 15.46 150.5 15.46ZM157.74 14.28L157.74 17.32L155.65 17.32C155.99 17 156.17 16.38 156.23 15.11L156.27 14.28L157.74 14.28ZM166.16 14.28L167.08 14.28L167.08 15.8L166.22 15.8C165.72 15.8 165.26 15.61 165.26 15.03C165.26 14.51 165.62 14.28 166.16 14.28ZM52.41 17.32L52.41 15.8L53.15 15.8C53.82 15.8 54.14 15.96 54.14 16.53C54.14 17.12 53.81 17.32 53.17 17.32L52.41 17.32ZM46.2 15.88L46.2 16.16C46.2 17.17 45.55 17.48 44.87 17.48C44.35 17.48 44.04 17.21 44.04 16.8C44.04 16.21 44.88 16.01 46.2 15.88ZM102.45 15.88L102.45 16.16C102.45 17.17 101.8 17.48 101.12 17.48C100.6 17.48 100.29 17.21 100.29 16.8C100.29 16.21 101.13 16.01 102.45 15.88ZM143.03 15.88L143.03 16.16C143.03 17.17 142.38 17.48 141.7 17.48C141.18 17.48 140.87 17.21 140.87 16.8C140.87 16.21 141.71 16.01 143.03 15.88ZM96.03 17.32L96.03 16.06L97.17 16.06C97.84 16.06 98.16 16.21 98.16 16.69C98.16 17.14 97.83 17.32 97.19 17.32L96.03 17.32ZM149.41 17.32L149.41 16.06L150.55 16.06C151.22 16.06 151.54 16.21 151.54 16.69C151.54 17.14 151.21 17.32 150.57 17.32L149.41 17.32ZM144.73 17.04L144.73 17.95L145.12 17.95L144.69 19.07L145.16 19.07L145.65 18.02L145.65 17.04L144.73 17.04Z" fill="#316CED" fill-opacity="1.000000" fill-rule="evenodd"/>
</svg>
