<svg width="225.000000" height="29.689453" viewBox="0 0 225 29.6895" fill="none" xmlns="http://www.w3.org/2000/svg" xmlns:xlink="http://www.w3.org/1999/xlink">
	<desc>
			Created with Pixso.
	</desc>
	<defs/>
	<rect id="Rectangle 34626311" rx="0.812963" width="6.910188" height="6.910188" transform="matrix(4.37114e-08 1 1 -4.37114e-08 0 20.707)" fill="#EFEFEF" fill-opacity="1.000000"/>
	<rect id="Rectangle 34626312" rx="0.812963" width="6.910188" height="15.039823" transform="matrix(4.37114e-08 1 1 -4.37114e-08 6.91016 13.7969)" fill="#EFEFEF" fill-opacity="1.000000"/>
	<rect id="Rectangle 34626315" rx="0.812963" width="13.413896" height="7.723152" transform="matrix(4.37114e-08 1 1 -4.37114e-08 22.0996 0.382812)" fill="#EFEFEF" fill-opacity="1.000000"/>
	<path id="Аннапурна" d="M41.62 3.78L33.85 24.65L37.59 24.65L39.2 20.01L47.67 20.01L49.31 24.65L53.31 24.65L45.48 3.78L41.62 3.78ZM40.27 16.96L43.41 8.01L46.57 16.96L40.27 16.96ZM87.18 20.39C87.18 23.21 89.54 25.02 92.91 25.02C95.22 25.02 97 24.24 98.01 22.54C98.09 23.61 98.18 23.98 98.3 24.65L101.43 24.65C101.12 23.35 100.97 21.31 100.97 19.35C100.97 17.94 101.03 16.1 101.03 15.35C101.12 10.4 98.21 8.7 94.5 8.7C90.75 8.7 88.13 10.89 87.9 14.02L91.27 14.02C91.36 12.15 92.65 11.23 94.38 11.23C96.11 11.23 97.61 12.04 97.61 14.69L97.61 14.97C91.96 15.58 87.18 16.5 87.18 20.39ZM166.12 20.39C166.12 23.21 168.48 25.02 171.85 25.02C174.15 25.02 175.94 24.24 176.94 22.54C177.03 23.61 177.12 23.98 177.23 24.65L180.37 24.65C180.05 23.35 179.91 21.31 179.91 19.35C179.91 17.94 179.97 16.1 179.97 15.35C180.05 10.4 177.14 8.7 173.43 8.7C169.69 8.7 167.07 10.89 166.84 14.02L170.21 14.02C170.29 12.15 171.59 11.23 173.32 11.23C175.04 11.23 176.54 12.04 176.54 14.69L176.54 14.97C170.9 15.58 166.12 16.5 166.12 20.39ZM137.09 9.16L133.66 9.16L133.66 29.68L137.09 29.68L137.09 22.6C138.01 24.13 139.62 25.02 141.69 25.02C145.49 25.02 148.34 21.88 148.34 16.9C148.34 11.95 145.49 8.81 141.69 8.81C139.62 8.81 138.01 9.71 137.09 11.23L137.09 9.16ZM64.78 24.65L68.21 24.65L68.21 9.16L64.78 9.16L64.78 15.35L57.87 15.35L57.87 9.16L54.45 9.16L54.45 24.65L57.87 24.65L57.87 18.05L64.78 18.05L64.78 24.65ZM81.68 24.65L85.11 24.65L85.11 9.16L81.68 9.16L81.68 15.35L74.77 15.35L74.77 9.16L71.35 9.16L71.35 24.65L74.77 24.65L74.77 18.05L81.68 18.05L81.68 24.65ZM117.1 24.65L117.1 9.16L103.63 9.16L103.63 24.65L107.06 24.65L107.06 11.86L113.68 11.86L113.68 24.65L117.1 24.65ZM119.65 29.68L121.2 29.68C124.68 29.68 125.69 28.62 127.16 24.62L132.6 9.16L129.09 9.16L125.58 20.27L122.06 9.16L118.32 9.16L123.94 24.56L123.76 24.93C123.07 26.95 122.44 27.06 120.94 27.06L119.65 27.06L119.65 29.68ZM160.62 24.65L164.04 24.65L164.04 9.16L160.62 9.16L160.62 15.35L153.71 15.35L153.71 9.16L150.28 9.16L150.28 24.65L153.71 24.65L153.71 18.05L160.62 18.05L160.62 24.65ZM140.95 22.23C138.7 22.23 136.94 20.47 136.94 16.9C136.94 13.33 138.7 11.61 140.95 11.61C143.36 11.61 144.77 13.65 144.77 16.9C144.77 20.21 143.36 22.23 140.95 22.23ZM97.69 17.36L97.69 18.54C97.69 21.19 96.19 22.46 93.66 22.46C91.93 22.46 90.81 21.65 90.81 20.3C90.81 18.54 92.8 17.82 97.69 17.36ZM176.63 17.36L176.63 18.54C176.63 21.19 175.13 22.46 172.6 22.46C170.87 22.46 169.75 21.65 169.75 20.3C169.75 18.54 171.73 17.82 176.63 17.36Z" fill="#EFEFEF" fill-opacity="1.000000" fill-rule="evenodd"/>
</svg>
