<svg width="225.711914" height="28.627930" viewBox="0 0 225.712 28.6279" fill="none" xmlns="http://www.w3.org/2000/svg" xmlns:xlink="http://www.w3.org/1999/xlink">
	<desc>
			Created with Pixso.
	</desc>
	<defs/>
	<rect id="Rectangle 251" x="24.104492" y="0.078125" rx="0.821333" width="7.065009" height="7.065009" fill="#EFEFEF" fill-opacity="1.000000"/>
	<rect id="Rectangle 253" x="9.974609" y="21.272461" rx="0.821333" width="7.065009" height="6.649420" fill="#EFEFEF" fill-opacity="1.000000"/>
	<rect id="Rectangle 254" y="14.208008" rx="0.821333" width="9.974130" height="7.065009" fill="#EFEFEF" fill-opacity="1.000000"/>
	<rect id="Rectangle 252" x="17.039062" y="7.142578" rx="0.821333" width="7.065009" height="14.130017" fill="#EFEFEF" fill-opacity="1.000000"/>
	<path id="Восхождение" d="M37.82 3.55L37.82 24.89L46.39 24.89C50.74 24.89 54.36 23.15 54.36 18.56C54.36 15.73 52.92 14.35 51.15 13.55C52.42 12.76 53.54 10.99 53.54 8.99C53.54 4.61 49.74 3.55 45.86 3.55L37.82 3.55ZM41.56 12.46L41.56 6.55L46.21 6.55C48.33 6.55 49.74 7.52 49.74 9.4C49.74 11.52 48.42 12.46 46.21 12.46L41.56 12.46ZM71.15 17C71.15 11.29 67.21 8.7 63.35 8.7C59.5 8.7 55.55 11.29 55.55 17C55.55 22.74 59.5 25.27 63.35 25.27C67.21 25.27 71.15 22.74 71.15 17ZM86.95 14.47C86.33 10.96 83.33 8.7 79.85 8.7C75.11 8.7 72.08 12.29 72.08 17C72.08 21.71 75.11 25.27 79.71 25.27C83.09 25.27 86.36 23.18 87.06 19.47L83.65 19.47C83.18 21.59 81.5 22.35 79.76 22.35C77.7 22.35 75.7 20.74 75.7 16.97C75.7 13.23 77.65 11.61 79.85 11.61C81.77 11.61 83.21 12.79 83.53 14.47L86.95 14.47ZM117.04 17C117.04 11.29 113.09 8.7 109.24 8.7C105.38 8.7 101.44 11.29 101.44 17C101.44 22.74 105.38 25.27 109.24 25.27C113.09 25.27 117.04 22.74 117.04 17ZM162.97 17.97L174.77 17.97C175.09 12.67 172.03 8.7 167.17 8.7C162.67 8.7 159.4 12.08 159.4 16.85C159.4 21.41 162.32 25.27 167.41 25.27C171.47 25.27 173.88 22.68 174.59 20.15L171.15 20.15C170.53 21.65 169.12 22.35 167.26 22.35C165.26 22.35 163.2 20.91 162.97 17.97ZM213.88 17.97L225.68 17.97C226.01 12.67 222.95 8.7 218.09 8.7C213.59 8.7 210.32 12.08 210.32 16.85C210.32 21.41 213.23 25.27 218.33 25.27C222.39 25.27 224.8 22.68 225.51 20.15L222.06 20.15C221.45 21.65 220.03 22.35 218.18 22.35C216.18 22.35 214.12 20.91 213.88 17.97ZM96.36 16.64L101.78 9.05L97.95 9.05L94.45 13.94L91.06 9.05L86.94 9.05L92.39 16.85L86.62 24.89L90.47 24.89L94.27 19.56L98.01 24.89L102.13 24.89L96.36 16.64ZM126.53 17.97L126.53 24.89L130.03 24.89L130.03 17.97L131.48 17.97L136.13 24.89L140.22 24.89L134.42 16.53L139.83 9.05L135.8 9.05L131.56 15.2L130.03 15.2L130.03 9.05L126.53 9.05L126.53 15.2L124.94 15.2L120.76 9.05L116.85 9.05L122.2 16.56L116.38 24.89L120.5 24.89L125.15 17.97L126.53 17.97ZM159.23 28.62L159.23 22.15L156.88 22.15L156.88 9.05L145.34 9.05L145.1 14.08C144.84 19.85 143.92 22.15 142.16 22.15L141.31 22.15L141.31 28.62L144.48 28.62L144.48 24.89L156.05 24.89L156.05 28.62L159.23 28.62ZM187.36 24.89L190.87 24.89L190.87 9.05L187.36 9.05L187.36 15.38L180.3 15.38L180.3 9.05L176.8 9.05L176.8 24.89L180.3 24.89L180.3 18.15L187.36 18.15L187.36 24.89ZM208.62 24.89L208.62 9.05L205.11 9.05L197.58 20.09L197.58 9.05L194.08 9.05L194.08 24.89L197.58 24.89L205.11 13.91L205.11 24.89L208.62 24.89ZM162.97 15.41C163.29 12.44 165.53 11.43 167.17 11.43C169.23 11.43 171.12 12.94 171.21 15.41L162.97 15.41ZM213.88 15.41C214.21 12.44 216.44 11.43 218.09 11.43C220.15 11.43 222.03 12.94 222.12 15.41L213.88 15.41ZM63.35 22.41C61.11 22.41 59.17 20.65 59.17 17C59.17 13.35 61.11 11.55 63.35 11.55C65.59 11.55 67.53 13.35 67.53 17C67.53 20.65 65.59 22.41 63.35 22.41ZM109.24 22.41C107 22.41 105.06 20.65 105.06 17C105.06 13.35 107 11.55 109.24 11.55C111.48 11.55 113.42 13.35 113.42 17C113.42 20.65 111.48 22.41 109.24 22.41ZM153.37 11.82L153.37 22.15L146.22 22.15C147.49 20.94 148.05 18.7 148.28 14.5L148.43 11.82L153.37 11.82ZM41.56 21.88L41.56 15.32L46.33 15.32C49.18 15.32 50.51 16.35 50.51 18.56C50.51 20.68 49.21 21.88 46.53 21.88L41.56 21.88Z" fill="#EFEFEF" fill-opacity="1.000000" fill-rule="evenodd"/>
</svg>
