<svg version="1.2" xmlns="http://www.w3.org/2000/svg" viewBox="0 0 185 30" width="185" height="30">
	<defs>
		<linearGradient id="g1" x2="1" gradientUnits="userSpaceOnUse" gradientTransform="matrix(0,-21.439,32.163,0,16.081,24.439)">
			<stop offset="0" stop-color="#799eed"/>
			<stop offset=".341" stop-color="#bbcef5"/>
			<stop offset="1" stop-color="#fefefe"/>
		</linearGradient>
	</defs>
	<style>
		.s0 { fill: #efefef } 
		.s1 { fill: url(#g1) } 
	</style>
	<path id="Аннапурна" fill-rule="evenodd" class="s0" d="m49.48 3.78l7.83 20.87h-4l-1.64-4.64h-8.47l-1.61 4.64h-3.74l7.77-20.87zm1.09 13.18l-3.16-8.95-3.14 8.95zm51.04-1.99v-0.28c0-2.65-1.5-3.46-3.23-3.46-1.73 0-3.02 0.92-3.11 2.79h-3.37c0.23-3.13 2.85-5.32 6.6-5.32 3.71 0 6.62 1.7 6.53 6.65 0 0.75-0.06 2.59-0.06 4 0 1.96 0.15 4 0.46 5.3h-3.13c-0.12-0.67-0.21-1.04-0.29-2.11-1.01 1.7-2.79 2.48-5.1 2.48-3.37 0-5.73-1.81-5.73-4.63 0-3.89 4.78-4.81 10.43-5.42zm78.93 0v-0.28c0-2.65-1.5-3.46-3.22-3.46-1.73 0-3.03 0.92-3.11 2.79h-3.37c0.23-3.13 2.85-5.32 6.59-5.32 3.71 0 6.62 1.7 6.54 6.65 0 0.75-0.06 2.59-0.06 4 0 1.96 0.14 4 0.46 5.3h-3.14c-0.11-0.67-0.2-1.04-0.29-2.11-1 1.7-2.79 2.48-5.09 2.48-3.37 0-5.73-1.81-5.73-4.63 0-3.89 4.78-4.81 10.42-5.42zm-39.45-3.74c0.92-1.52 2.53-2.42 4.6-2.42 3.8 0 6.65 3.14 6.65 8.09 0 4.98-2.85 8.12-6.65 8.12-2.07 0-3.68-0.89-4.6-2.42v7.08h-3.43v-20.52h3.43zm-72.31 6.82h-6.91v6.6h-3.42v-15.49h3.42v6.19h6.91v-6.19h3.43v15.49h-3.43zm16.9 0h-6.91v6.6h-3.42v-15.49h3.42v6.19h6.91v-6.19h3.43v15.49h-3.43zm32 6.6v-12.79h-6.62v12.79h-3.43v-15.49h13.47v15.49zm5.97 2.41h1.29c1.5 0 2.13-0.11 2.82-2.13l0.18-0.37-5.62-15.4h3.74l3.52 11.11 3.51-11.11h3.51l-5.44 15.46c-1.47 4-2.48 5.06-5.96 5.06h-1.55zm40.97-9.01h-6.91v6.6h-3.43v-15.49h3.43v6.19h6.91v-6.19h3.42v15.49h-3.42zm-15.85-1.15c0-3.25-1.41-5.29-3.82-5.29-2.25 0-4.01 1.72-4.01 5.29 0 3.57 1.76 5.33 4.01 5.33 2.41 0 3.82-2.02 3.82-5.33zm-53.96 3.4c0 1.35 1.12 2.16 2.85 2.16 2.53 0 4.03-1.27 4.03-3.92v-1.18c-4.89 0.46-6.88 1.18-6.88 2.94zm78.94 0c0 1.35 1.12 2.16 2.85 2.16 2.53 0 4.03-1.27 4.03-3.92v-1.18c-4.9 0.46-6.88 1.18-6.88 2.94z"/>
	<path fill-rule="evenodd" class="s1" d="m16.08 3l8.04 10.72 8.04 10.72h-32.16l8.04-10.72zm0 5.28l-9.75 12.99 19.48-0.02z"/>
</svg>